<svg width="455" height="142" viewBox="0 0 455 142" fill="none" xmlns="http://www.w3.org/2000/svg">
<g filter="url(#filter0_d)">
<rect x="2" width="446.667" height="134" fill="#356DF2"/>
</g>
<path d="M225 46.4239V38.2011L240.684 13.533H248.145V24.4966H243.882L235.431 37.8966V38.2011H258.576V46.4239H225ZM243.958 52.5148V43.9114L244.186 40.333V13.533H254.084V52.5148H243.958Z" fill="black"/>
<path d="M279.994 53.5807C276.454 53.568 273.396 52.7495 270.82 51.1253C268.244 49.501 266.258 47.1599 264.862 44.1017C263.466 41.0436 262.775 37.3763 262.787 33.1C262.8 28.811 263.498 25.1691 264.881 22.1744C266.277 19.1797 268.257 16.902 270.82 15.3412C273.396 13.7804 276.454 13 279.994 13C283.535 13 286.593 13.7867 289.169 15.3602C291.745 16.921 293.731 19.1988 295.126 22.1935C296.522 25.1882 297.214 28.8237 297.201 33.1C297.201 37.4017 296.503 41.0816 295.107 44.1398C293.711 47.1979 291.726 49.5391 289.15 51.1634C286.586 52.7749 283.535 53.5807 279.994 53.5807ZM279.994 44.9773C281.822 44.9773 283.319 44.0256 284.486 42.1222C285.666 40.2061 286.25 37.1987 286.237 33.1C286.237 30.4225 285.971 28.2336 285.438 26.5332C284.905 24.8329 284.169 23.5766 283.23 22.7645C282.291 21.9397 281.212 21.5273 279.994 21.5273C278.167 21.5273 276.676 22.4536 275.521 24.3063C274.366 26.1589 273.776 29.0902 273.751 33.1C273.738 35.8282 273.999 38.0742 274.531 39.8381C275.064 41.5892 275.8 42.8835 276.739 43.721C277.691 44.5585 278.776 44.9773 279.994 44.9773Z" fill="black"/>
<path d="M301.788 46.4239V38.2011L317.472 13.533H324.934V24.4966H320.67L312.219 37.8966V38.2011H335.364V46.4239H301.788ZM320.746 52.5148V43.9114L320.975 40.333V13.533H330.872V52.5148H320.746Z" fill="black"/>
<circle cx="91.3333" cy="67" r="53.6" fill="white"/>
<path d="M167.869 72.1773V68.6243H181.986V72.1773H177.101V84.8667H172.755V72.1773H167.869Z" fill="black"/>
<path d="M188.087 78.0144V84.8667H183.709V68.6243H187.929V75.0007H188.055C188.33 74.2234 188.788 73.6181 189.428 73.1845C190.067 72.7457 190.837 72.5262 191.735 72.5262C192.597 72.5262 193.345 72.7219 193.98 73.1131C194.62 73.5044 195.114 74.0437 195.463 74.731C195.817 75.4184 195.992 76.2062 195.986 77.0944V84.8667H191.609V78.0144C191.614 77.4117 191.463 76.9384 191.156 76.5948C190.855 76.2511 190.424 76.0793 189.864 76.0793C189.509 76.0793 189.198 76.1586 188.928 76.3172C188.664 76.4705 188.457 76.6926 188.309 76.9834C188.167 77.2689 188.092 77.6126 188.087 78.0144Z" fill="black"/>
<path d="M198.148 84.8667V72.6849H202.525V84.8667H198.148ZM200.344 71.4159C199.747 71.4159 199.237 71.2203 198.814 70.829C198.391 70.4378 198.179 69.9672 198.179 69.4173C198.179 68.8675 198.391 68.3969 198.814 68.0056C199.237 67.6144 199.744 67.4188 200.336 67.4188C200.934 67.4188 201.441 67.6144 201.859 68.0056C202.282 68.3969 202.494 68.8675 202.494 69.4173C202.494 69.9672 202.282 70.4378 201.859 70.829C201.441 71.2203 200.937 71.4159 200.344 71.4159Z" fill="black"/>
<path d="M215.891 76.6503H211.862C211.841 76.4018 211.754 76.1877 211.6 76.0079C211.447 75.8281 211.249 75.6907 211.005 75.5955C210.768 75.495 210.503 75.4448 210.212 75.4448C209.837 75.4448 209.514 75.5135 209.245 75.651C208.975 75.7885 208.843 75.9841 208.848 76.2379C208.843 76.4177 208.92 76.5842 209.078 76.7375C209.242 76.8909 209.557 77.0098 210.022 77.0944L212.496 77.5386C213.744 77.7659 214.672 78.1492 215.28 78.6885C215.893 79.2225 216.203 79.939 216.208 80.8378C216.203 81.7049 215.944 82.4583 215.431 83.0981C214.923 83.7326 214.228 84.2243 213.345 84.5732C212.467 84.9169 211.465 85.0887 210.339 85.0887C208.478 85.0887 207.021 84.7081 205.969 83.9467C204.922 83.1853 204.338 82.1808 204.217 80.933H208.563C208.621 81.3189 208.811 81.6177 209.134 81.8292C209.462 82.0354 209.874 82.1385 210.371 82.1385C210.773 82.1385 211.103 82.0697 211.362 81.9323C211.627 81.7948 211.762 81.5992 211.767 81.3454C211.762 81.1127 211.645 80.9277 211.418 80.7902C211.196 80.6527 210.847 80.5417 210.371 80.4571L208.214 80.0764C206.971 79.8597 206.041 79.4472 205.422 78.8392C204.803 78.2312 204.497 77.4487 204.502 76.4917C204.497 75.6457 204.719 74.9293 205.168 74.3424C205.623 73.7502 206.271 73.3008 207.111 72.9942C207.957 72.6822 208.959 72.5262 210.117 72.5262C211.878 72.5262 213.266 72.8911 214.281 73.6207C215.301 74.3503 215.838 75.3602 215.891 76.6503Z" fill="black"/>
<path d="M222.335 89.4349V72.6849H226.681V74.8103H226.776C226.935 74.3979 227.167 74.0199 227.474 73.6762C227.781 73.3273 228.161 73.0497 228.616 72.8435C229.071 72.632 229.599 72.5262 230.202 72.5262C231.006 72.5262 231.77 72.7404 232.494 73.1686C233.224 73.5969 233.816 74.271 234.271 75.191C234.731 76.111 234.961 77.3059 234.961 78.7758C234.961 80.1822 234.741 81.348 234.302 82.2733C233.869 83.1986 233.287 83.8885 232.558 84.3432C231.833 84.7979 231.037 85.0253 230.17 85.0253C229.599 85.0253 229.089 84.9328 228.64 84.7477C228.196 84.5574 227.815 84.3009 227.498 83.9784C227.186 83.6506 226.945 83.2805 226.776 82.8681H226.713V89.4349H222.335ZM226.617 78.7758C226.617 79.3679 226.694 79.8808 226.847 80.3144C227.006 80.7426 227.228 81.0757 227.514 81.3136C227.804 81.5463 228.151 81.6626 228.552 81.6626C228.954 81.6626 229.295 81.5489 229.576 81.3216C229.861 81.0889 230.078 80.7585 230.226 80.3302C230.379 79.8967 230.456 79.3785 230.456 78.7758C230.456 78.173 230.379 77.6575 230.226 77.2292C230.078 76.7957 229.861 76.4652 229.576 76.2379C229.295 76.0053 228.954 75.8889 228.552 75.8889C228.151 75.8889 227.804 76.0053 227.514 76.2379C227.228 76.4652 227.006 76.7957 226.847 77.2292C226.694 77.6575 226.617 78.173 226.617 78.7758Z" fill="black"/>
<path d="M240.189 85.057C239.412 85.057 238.724 84.9301 238.127 84.6763C237.535 84.4173 237.07 84.026 236.731 83.5026C236.393 82.9791 236.224 82.3129 236.224 81.504C236.224 80.8378 236.337 80.2694 236.565 79.7989C236.792 79.323 237.109 78.9344 237.516 78.633C237.923 78.3316 238.397 78.1016 238.936 77.943C239.481 77.7844 240.067 77.6813 240.697 77.6337C241.379 77.5809 241.926 77.5174 242.338 77.4434C242.756 77.3641 243.057 77.2557 243.242 77.1182C243.427 76.9755 243.52 76.7878 243.52 76.5551V76.5234C243.52 76.2062 243.398 75.963 243.155 75.7938C242.912 75.6246 242.6 75.54 242.219 75.54C241.802 75.54 241.461 75.6325 241.196 75.8176C240.937 75.9973 240.781 76.2749 240.728 76.6503H236.699C236.752 75.9101 236.988 75.228 237.405 74.6041C237.828 73.9749 238.444 73.4727 239.253 73.0973C240.062 72.7166 241.072 72.5262 242.283 72.5262C243.155 72.5262 243.938 72.6293 244.63 72.8355C245.323 73.0365 245.913 73.3193 246.399 73.6841C246.885 74.0437 247.255 74.4667 247.509 74.9531C247.768 75.4342 247.898 75.9577 247.898 76.5234V84.8667H243.806V83.1536H243.71C243.467 83.6083 243.171 83.9758 242.822 84.256C242.478 84.5362 242.085 84.7398 241.64 84.8667C241.202 84.9936 240.718 85.057 240.189 85.057ZM241.617 82.2971C241.95 82.2971 242.262 82.2283 242.552 82.0909C242.849 81.9534 243.089 81.7551 243.274 81.4961C243.459 81.237 243.552 80.9224 243.552 80.5523V79.5371C243.435 79.5847 243.311 79.6297 243.179 79.672C243.052 79.7143 242.915 79.7539 242.767 79.7909C242.624 79.8279 242.471 79.8623 242.307 79.894C242.148 79.9257 241.981 79.9548 241.807 79.9813C241.469 80.0341 241.191 80.1214 240.974 80.243C240.763 80.3593 240.604 80.5047 240.498 80.6792C240.398 80.8484 240.348 81.0387 240.348 81.2502C240.348 81.5886 240.467 81.8477 240.705 82.0274C240.942 82.2072 241.247 82.2971 241.617 82.2971Z" fill="black"/>
<path d="M255.858 89.5618C254.637 89.5618 253.59 89.3899 252.718 89.0462C251.851 88.7079 251.177 88.2426 250.695 87.6504C250.22 87.0635 249.953 86.4 249.894 85.6598H254.114C254.156 85.8765 254.262 86.0537 254.431 86.1911C254.6 86.3339 254.817 86.4396 255.081 86.5084C255.351 86.5771 255.652 86.6115 255.985 86.6115C256.551 86.6115 257.019 86.4793 257.389 86.2149C257.765 85.9506 257.952 85.4906 257.952 84.835V82.7729H257.825C257.667 83.1853 257.424 83.5369 257.096 83.8277C256.768 84.1132 256.374 84.3327 255.914 84.486C255.454 84.634 254.949 84.7081 254.399 84.7081C253.532 84.7081 252.734 84.5071 252.004 84.1053C251.28 83.7035 250.698 83.0664 250.259 82.194C249.826 81.3216 249.609 80.1822 249.609 78.7758C249.609 77.3059 249.836 76.111 250.291 75.191C250.751 74.271 251.343 73.5969 252.068 73.1686C252.797 72.7404 253.564 72.5262 254.367 72.5262C254.97 72.5262 255.499 72.632 255.954 72.8435C256.408 73.0497 256.789 73.3273 257.096 73.6762C257.402 74.0199 257.635 74.3979 257.794 74.8103H257.889V72.6849H262.267V84.835C262.267 85.8237 262 86.6696 261.466 87.3728C260.937 88.0813 260.191 88.6233 259.229 88.9987C258.267 89.3741 257.143 89.5618 255.858 89.5618ZM256.017 81.5992C256.419 81.5992 256.763 81.4881 257.048 81.2661C257.339 81.0387 257.561 80.7162 257.714 80.2985C257.873 79.8755 257.952 79.3679 257.952 78.7758C257.952 78.173 257.873 77.6575 257.714 77.2292C257.561 76.7957 257.339 76.4652 257.048 76.2379C256.763 76.0053 256.419 75.8889 256.017 75.8889C255.615 75.8889 255.272 76.0053 254.986 76.2379C254.706 76.4652 254.489 76.7957 254.336 77.2292C254.188 77.6575 254.114 78.173 254.114 78.7758C254.114 79.3785 254.188 79.8914 254.336 80.3144C254.489 80.732 254.706 81.0519 254.986 81.274C255.272 81.4908 255.615 81.5992 256.017 81.5992Z" fill="black"/>
<path d="M270.33 85.0887C269.03 85.0887 267.909 84.8402 266.968 84.3432C266.032 83.841 265.31 83.1219 264.803 82.186C264.3 81.2449 264.049 80.1187 264.049 78.8075C264.049 77.5491 264.303 76.4494 264.81 75.5083C265.318 74.5671 266.034 73.8348 266.96 73.3114C267.885 72.788 268.977 72.5262 270.235 72.5262C271.155 72.5262 271.988 72.669 272.733 72.9545C273.479 73.24 274.116 73.6551 274.645 74.1997C275.173 74.739 275.581 75.3946 275.866 76.1665C276.152 76.9384 276.294 77.8082 276.294 78.7758V79.7909H265.413V77.3799H272.265C272.26 77.031 272.17 76.7243 271.996 76.46C271.827 76.1903 271.597 75.9815 271.306 75.8334C271.02 75.6801 270.695 75.6034 270.33 75.6034C269.976 75.6034 269.651 75.6801 269.355 75.8334C269.059 75.9815 268.821 76.1877 268.641 76.452C268.467 76.7164 268.374 77.0257 268.363 77.3799V79.9813C268.363 80.3725 268.445 80.7215 268.609 81.0281C268.773 81.3348 269.009 81.5754 269.315 81.7498C269.622 81.9243 269.992 82.0116 270.426 82.0116C270.727 82.0116 271.002 81.9693 271.25 81.8847C271.504 81.8001 271.721 81.6785 271.901 81.5198C272.08 81.3559 272.213 81.1603 272.297 80.933H276.294C276.157 81.7789 275.832 82.5139 275.319 83.1377C274.806 83.7564 274.127 84.2375 273.281 84.5812C272.44 84.9195 271.457 85.0887 270.33 85.0887Z" fill="black"/>
<path d="M282.53 84.8667V72.6849H286.686V75.0007H286.813C287.066 74.2393 287.5 73.6366 288.113 73.1924C288.727 72.7483 289.456 72.5262 290.302 72.5262C291.159 72.5262 291.896 72.7536 292.515 73.2083C293.134 73.6577 293.506 74.2552 293.633 75.0007H293.76C293.966 74.2552 294.405 73.6577 295.077 73.2083C295.748 72.7536 296.536 72.5262 297.44 72.5262C298.609 72.5262 299.555 72.9016 300.279 73.6524C301.009 74.4032 301.374 75.4025 301.374 76.6503V84.8667H296.996V77.7606C296.996 77.2266 296.861 76.8089 296.591 76.5075C296.322 76.2009 295.96 76.0475 295.505 76.0475C295.055 76.0475 294.699 76.2009 294.434 76.5075C294.175 76.8089 294.046 77.2266 294.046 77.7606V84.8667H289.858V77.7606C289.858 77.2266 289.723 76.8089 289.454 76.5075C289.184 76.2009 288.822 76.0475 288.367 76.0475C288.066 76.0475 287.807 76.1163 287.59 76.2538C287.373 76.3912 287.204 76.5895 287.082 76.8486C286.966 77.1024 286.908 77.4064 286.908 77.7606V84.8667H282.53Z" fill="black"/>
<path d="M309.402 85.0887C308.08 85.0887 306.949 84.827 306.007 84.3036C305.066 83.7749 304.345 83.0399 303.842 82.0988C303.34 81.1524 303.089 80.0553 303.089 78.8075C303.089 77.5597 303.34 76.4652 303.842 75.5241C304.345 74.5777 305.066 73.8428 306.007 73.3193C306.949 72.7906 308.08 72.5262 309.402 72.5262C310.724 72.5262 311.855 72.7906 312.796 73.3193C313.737 73.8428 314.459 74.5777 314.961 75.5241C315.464 76.4652 315.715 77.5597 315.715 78.8075C315.715 80.0553 315.464 81.1524 314.961 82.0988C314.459 83.0399 313.737 83.7749 312.796 84.3036C311.855 84.827 310.724 85.0887 309.402 85.0887ZM309.434 81.8529C309.804 81.8529 310.123 81.7287 310.393 81.4802C310.663 81.2317 310.872 80.8774 311.02 80.4175C311.168 79.9575 311.242 79.4102 311.242 78.7758C311.242 78.136 311.168 77.5888 311.02 77.1341C310.872 76.6741 310.663 76.3198 310.393 76.0713C310.123 75.8228 309.804 75.6986 309.434 75.6986C309.042 75.6986 308.706 75.8228 308.426 76.0713C308.146 76.3198 307.932 76.6741 307.784 77.1341C307.636 77.5888 307.562 78.136 307.562 78.7758C307.562 79.4102 307.636 79.9575 307.784 80.4175C307.932 80.8774 308.146 81.2317 308.426 81.4802C308.706 81.7287 309.042 81.8529 309.434 81.8529Z" fill="black"/>
<path d="M328.626 76.6503H324.597C324.576 76.4018 324.489 76.1877 324.336 76.0079C324.182 75.8281 323.984 75.6907 323.741 75.5955C323.503 75.495 323.239 75.4448 322.948 75.4448C322.572 75.4448 322.25 75.5135 321.98 75.651C321.71 75.7885 321.578 75.9841 321.584 76.2379C321.578 76.4177 321.655 76.5842 321.814 76.7375C321.977 76.8909 322.292 77.0098 322.757 77.0944L325.232 77.5386C326.48 77.7659 327.407 78.1492 328.016 78.6885C328.629 79.2225 328.938 79.939 328.943 80.8378C328.938 81.7049 328.679 82.4583 328.166 83.0981C327.659 83.7326 326.963 84.2243 326.08 84.5732C325.203 84.9169 324.201 85.0887 323.075 85.0887C321.213 85.0887 319.757 84.7081 318.705 83.9467C317.658 83.1853 317.074 82.1808 316.952 80.933H321.298C321.356 81.3189 321.547 81.6177 321.869 81.8292C322.197 82.0354 322.609 82.1385 323.106 82.1385C323.508 82.1385 323.839 82.0697 324.098 81.9323C324.362 81.7948 324.497 81.5992 324.502 81.3454C324.497 81.1127 324.381 80.9277 324.153 80.7902C323.931 80.6527 323.582 80.5417 323.106 80.4571L320.949 80.0764C319.707 79.8597 318.776 79.4472 318.157 78.8392C317.539 78.2312 317.232 77.4487 317.237 76.4917C317.232 75.6457 317.454 74.9293 317.904 74.3424C318.358 73.7502 319.006 73.3008 319.847 72.9942C320.693 72.6822 321.695 72.5262 322.853 72.5262C324.613 72.5262 326.001 72.8911 327.016 73.6207C328.037 74.3503 328.573 75.3602 328.626 76.6503Z" fill="black"/>
<path d="M337.885 72.6849V75.8572H329.859V72.6849H337.885ZM331.414 69.7663H335.792V80.9488C335.792 81.118 335.821 81.2608 335.879 81.3771C335.937 81.4881 336.027 81.5727 336.149 81.6309C336.27 81.6838 336.426 81.7102 336.617 81.7102C336.749 81.7102 336.902 81.6943 337.077 81.6626C337.256 81.6309 337.389 81.6044 337.473 81.5833L338.108 84.6605C337.912 84.7186 337.632 84.79 337.267 84.8746C336.907 84.9592 336.479 85.0147 335.982 85.0412C334.978 85.094 334.134 84.9909 333.452 84.7319C332.77 84.4675 332.257 84.0524 331.914 83.4867C331.57 82.921 331.403 82.2125 331.414 81.3612V69.7663Z" fill="black"/>
<path d="M348.499 68.6243V84.8667H344.121V68.6243H348.499Z" fill="black"/>
<path d="M350.73 84.8667V72.6849H355.107V84.8667H350.73ZM352.926 71.4159C352.329 71.4159 351.819 71.2203 351.396 70.829C350.973 70.4378 350.761 69.9672 350.761 69.4173C350.761 68.8675 350.973 68.3969 351.396 68.0056C351.819 67.6144 352.326 67.4188 352.918 67.4188C353.516 67.4188 354.023 67.6144 354.441 68.0056C354.864 68.3969 355.076 68.8675 355.076 69.4173C355.076 69.9672 354.864 70.4378 354.441 70.829C354.023 71.2203 353.519 71.4159 352.926 71.4159Z" fill="black"/>
<path d="M361.272 81.9798L361.303 76.7772H361.874L364.825 72.6849H369.742L364.793 79.0613H363.556L361.272 81.9798ZM357.338 84.8667V68.6243H361.716V84.8667H357.338ZM364.856 84.8667L362.065 80.0447L364.92 76.9358L369.869 84.8667H364.856Z" fill="black"/>
<path d="M376.217 85.0887C374.917 85.0887 373.796 84.8402 372.855 84.3432C371.919 83.841 371.197 83.1219 370.69 82.186C370.187 81.2449 369.936 80.1187 369.936 78.8075C369.936 77.5491 370.19 76.4494 370.697 75.5083C371.205 74.5671 371.921 73.8348 372.847 73.3114C373.772 72.788 374.864 72.5262 376.122 72.5262C377.042 72.5262 377.875 72.669 378.62 72.9545C379.366 73.24 380.003 73.6551 380.532 74.1997C381.061 74.739 381.468 75.3946 381.753 76.1665C382.039 76.9384 382.181 77.8082 382.181 78.7758V79.7909H371.3V77.3799H378.153C378.147 77.031 378.057 76.7243 377.883 76.46C377.714 76.1903 377.484 75.9815 377.193 75.8334C376.907 75.6801 376.582 75.6034 376.217 75.6034C375.863 75.6034 375.538 75.6801 375.242 75.8334C374.946 75.9815 374.708 76.1877 374.528 76.452C374.354 76.7164 374.261 77.0257 374.251 77.3799V79.9813C374.251 80.3725 374.332 80.7215 374.496 81.0281C374.66 81.3348 374.896 81.5754 375.202 81.7498C375.509 81.9243 375.879 82.0116 376.313 82.0116C376.614 82.0116 376.889 81.9693 377.137 81.8847C377.391 81.8001 377.608 81.6785 377.788 81.5198C377.967 81.3559 378.1 81.1603 378.184 80.933H382.181C382.044 81.7789 381.719 82.5139 381.206 83.1377C380.693 83.7564 380.014 84.2375 379.168 84.5812C378.327 84.9195 377.344 85.0887 376.217 85.0887Z" fill="black"/>
<path d="M388.346 68.6243V84.8667H383.968V68.6243H388.346Z" fill="black"/>
<path d="M393.241 89.419C392.739 89.419 392.26 89.3793 391.806 89.3C391.351 89.226 390.952 89.1229 390.608 88.9907L391.56 85.8818C392.099 86.0722 392.559 86.1541 392.94 86.1277C393.32 86.1065 393.601 85.94 393.78 85.628L393.875 85.406L389.593 72.6849H394.161L396.128 81.1233H396.255L398.253 72.6849H402.853L398.412 85.8818C398.19 86.548 397.867 87.1481 397.444 87.6821C397.027 88.2161 396.477 88.6391 395.795 88.9511C395.113 89.263 394.261 89.419 393.241 89.419Z" fill="black"/>
<path d="M172.787 111.825C171.919 111.825 171.121 111.598 170.391 111.143C169.667 110.689 169.085 109.999 168.647 109.073C168.213 108.148 167.996 106.982 167.996 105.576C167.996 104.106 168.224 102.911 168.678 101.991C169.138 101.071 169.731 100.397 170.455 99.9686C171.185 99.5404 171.951 99.3262 172.755 99.3262C173.358 99.3262 173.886 99.432 174.341 99.6435C174.796 99.8497 175.176 100.127 175.483 100.476C175.79 100.82 176.022 101.198 176.181 101.61H176.244V95.4242H180.622V111.667H176.276V109.668H176.181C176.012 110.081 175.769 110.451 175.451 110.778C175.139 111.101 174.759 111.357 174.309 111.548C173.865 111.733 173.358 111.825 172.787 111.825ZM174.404 108.463C174.806 108.463 175.15 108.346 175.435 108.114C175.726 107.876 175.948 107.543 176.102 107.114C176.26 106.681 176.34 106.168 176.34 105.576C176.34 104.973 176.26 104.458 176.102 104.029C175.948 103.596 175.726 103.265 175.435 103.038C175.15 102.805 174.806 102.689 174.404 102.689C174.003 102.689 173.659 102.805 173.373 103.038C173.093 103.265 172.876 103.596 172.723 104.029C172.575 104.458 172.501 104.973 172.501 105.576C172.501 106.179 172.575 106.697 172.723 107.13C172.876 107.558 173.093 107.889 173.373 108.122C173.659 108.349 174.003 108.463 174.404 108.463Z" fill="black"/>
<path d="M188.64 111.889C187.319 111.889 186.187 111.627 185.246 111.104C184.305 110.575 183.583 109.84 183.081 108.899C182.579 107.952 182.327 106.855 182.327 105.607C182.327 104.36 182.579 103.265 183.081 102.324C183.583 101.378 184.305 100.643 185.246 100.119C186.187 99.5906 187.319 99.3262 188.64 99.3262C189.962 99.3262 191.094 99.5906 192.035 100.119C192.976 100.643 193.698 101.378 194.2 102.324C194.702 103.265 194.953 104.36 194.953 105.607C194.953 106.855 194.702 107.952 194.2 108.899C193.698 109.84 192.976 110.575 192.035 111.104C191.094 111.627 189.962 111.889 188.64 111.889ZM188.672 108.653C189.042 108.653 189.362 108.529 189.632 108.28C189.901 108.032 190.11 107.677 190.258 107.217C190.406 106.757 190.48 106.21 190.48 105.576C190.48 104.936 190.406 104.389 190.258 103.934C190.11 103.474 189.901 103.12 189.632 102.871C189.362 102.623 189.042 102.499 188.672 102.499C188.281 102.499 187.945 102.623 187.665 102.871C187.385 103.12 187.171 103.474 187.022 103.934C186.874 104.389 186.8 104.936 186.8 105.576C186.8 106.21 186.874 106.757 187.022 107.217C187.171 107.677 187.385 108.032 187.665 108.28C187.945 108.529 188.281 108.653 188.672 108.653Z" fill="black"/>
<path d="M202.567 111.889C201.266 111.889 200.145 111.64 199.204 111.143C198.268 110.641 197.547 109.922 197.039 108.986C196.537 108.045 196.286 106.919 196.286 105.607C196.286 104.349 196.54 103.249 197.047 102.308C197.555 101.367 198.271 100.635 199.196 100.111C200.122 99.588 201.213 99.3262 202.472 99.3262C203.392 99.3262 204.225 99.469 204.97 99.7545C205.716 100.04 206.353 100.455 206.881 101C207.41 101.539 207.817 102.195 208.103 102.967C208.388 103.738 208.531 104.608 208.531 105.576V106.591H197.65V104.18H204.502C204.497 103.831 204.407 103.524 204.232 103.26C204.063 102.99 203.833 102.781 203.542 102.633C203.257 102.48 202.932 102.403 202.567 102.403C202.213 102.403 201.888 102.48 201.591 102.633C201.295 102.781 201.057 102.988 200.878 103.252C200.703 103.516 200.611 103.826 200.6 104.18V106.781C200.6 107.173 200.682 107.521 200.846 107.828C201.01 108.135 201.245 108.375 201.552 108.55C201.859 108.724 202.229 108.812 202.662 108.812C202.964 108.812 203.238 108.769 203.487 108.685C203.741 108.6 203.958 108.478 204.137 108.32C204.317 108.156 204.449 107.96 204.534 107.733H208.531C208.394 108.579 208.068 109.314 207.556 109.938C207.043 110.556 206.363 111.037 205.517 111.381C204.677 111.72 203.693 111.889 202.567 111.889Z" fill="black"/>
<path d="M221.452 103.45H217.424C217.402 103.202 217.315 102.988 217.162 102.808C217.008 102.628 216.81 102.491 216.567 102.395C216.329 102.295 216.065 102.245 215.774 102.245C215.398 102.245 215.076 102.314 214.806 102.451C214.537 102.588 214.404 102.784 214.41 103.038C214.404 103.218 214.481 103.384 214.64 103.538C214.804 103.691 215.118 103.81 215.584 103.894L218.058 104.339C219.306 104.566 220.234 104.949 220.842 105.489C221.455 106.023 221.764 106.739 221.77 107.638C221.764 108.505 221.505 109.258 220.992 109.898C220.485 110.533 219.79 111.024 218.907 111.373C218.029 111.717 217.027 111.889 215.901 111.889C214.04 111.889 212.583 111.508 211.531 110.747C210.484 109.985 209.9 108.981 209.778 107.733H214.124C214.182 108.119 214.373 108.418 214.695 108.629C215.023 108.835 215.435 108.938 215.932 108.938C216.334 108.938 216.665 108.87 216.924 108.732C217.188 108.595 217.323 108.399 217.328 108.145C217.323 107.913 217.207 107.728 216.979 107.59C216.757 107.453 216.408 107.342 215.932 107.257L213.775 106.876C212.533 106.66 211.602 106.247 210.984 105.639C210.365 105.031 210.058 104.249 210.064 103.292C210.058 102.446 210.28 101.729 210.73 101.142C211.185 100.55 211.832 100.101 212.673 99.7942C213.519 99.4822 214.521 99.3262 215.679 99.3262C217.439 99.3262 218.827 99.6911 219.842 100.421C220.863 101.15 221.4 102.16 221.452 103.45Z" fill="black"/>
<path d="M232.274 104.814V111.667H227.896V99.4849H232.052V101.801H232.179C232.443 101.029 232.909 100.423 233.575 99.9845C234.246 99.5457 235.029 99.3262 235.922 99.3262C236.784 99.3262 237.532 99.5245 238.167 99.9211C238.806 100.312 239.301 100.852 239.65 101.539C240.004 102.226 240.178 103.011 240.173 103.894V111.667H235.795V104.814C235.801 104.212 235.647 103.738 235.335 103.395C235.029 103.051 234.6 102.879 234.051 102.879C233.691 102.879 233.376 102.959 233.107 103.117C232.842 103.271 232.639 103.493 232.496 103.783C232.353 104.069 232.279 104.413 232.274 104.814Z" fill="black"/>
<path d="M248.203 111.889C246.881 111.889 245.75 111.627 244.809 111.104C243.868 110.575 243.146 109.84 242.644 108.899C242.141 107.952 241.89 106.855 241.89 105.607C241.89 104.36 242.141 103.265 242.644 102.324C243.146 101.378 243.868 100.643 244.809 100.119C245.75 99.5906 246.881 99.3262 248.203 99.3262C249.525 99.3262 250.656 99.5906 251.598 100.119C252.539 100.643 253.26 101.378 253.763 102.324C254.265 103.265 254.516 104.36 254.516 105.607C254.516 106.855 254.265 107.952 253.763 108.899C253.26 109.84 252.539 110.575 251.598 111.104C250.656 111.627 249.525 111.889 248.203 111.889ZM248.235 108.653C248.605 108.653 248.925 108.529 249.195 108.28C249.464 108.032 249.673 107.677 249.821 107.217C249.969 106.757 250.043 106.21 250.043 105.576C250.043 104.936 249.969 104.389 249.821 103.934C249.673 103.474 249.464 103.12 249.195 102.871C248.925 102.623 248.605 102.499 248.235 102.499C247.844 102.499 247.508 102.623 247.228 102.871C246.947 103.12 246.733 103.474 246.585 103.934C246.437 104.389 246.363 104.936 246.363 105.576C246.363 106.21 246.437 106.757 246.585 107.217C246.733 107.677 246.947 108.032 247.228 108.28C247.508 108.529 247.844 108.653 248.235 108.653Z" fill="black"/>
<path d="M263.557 99.4849V102.657H255.531V99.4849H263.557ZM257.086 96.5663H261.464V107.749C261.464 107.918 261.493 108.061 261.551 108.177C261.609 108.288 261.699 108.373 261.821 108.431C261.942 108.484 262.098 108.51 262.288 108.51C262.421 108.51 262.574 108.494 262.748 108.463C262.928 108.431 263.06 108.404 263.145 108.383L263.779 111.46C263.584 111.519 263.304 111.59 262.939 111.675C262.579 111.759 262.151 111.815 261.654 111.841C260.649 111.894 259.806 111.791 259.124 111.532C258.442 111.267 257.929 110.852 257.585 110.287C257.242 109.721 257.075 109.012 257.086 108.161V96.5663Z" fill="black"/>
<path d="M275.63 111.889C274.329 111.889 273.209 111.64 272.267 111.143C271.332 110.641 270.61 109.922 270.102 108.986C269.6 108.045 269.349 106.919 269.349 105.607C269.349 104.349 269.603 103.249 270.11 102.308C270.618 101.367 271.334 100.635 272.26 100.111C273.185 99.588 274.277 99.3262 275.535 99.3262C276.455 99.3262 277.288 99.469 278.033 99.7545C278.779 100.04 279.416 100.455 279.945 101C280.473 101.539 280.88 102.195 281.166 102.967C281.451 103.738 281.594 104.608 281.594 105.576V106.591H270.713V104.18H277.565C277.56 103.831 277.47 103.524 277.296 103.26C277.126 102.99 276.896 102.781 276.606 102.633C276.32 102.48 275.995 102.403 275.63 102.403C275.276 102.403 274.951 102.48 274.655 102.633C274.359 102.781 274.121 102.988 273.941 103.252C273.766 103.516 273.674 103.826 273.663 104.18V106.781C273.663 107.173 273.745 107.521 273.909 107.828C274.073 108.135 274.308 108.375 274.615 108.55C274.922 108.724 275.292 108.812 275.725 108.812C276.027 108.812 276.302 108.769 276.55 108.685C276.804 108.6 277.021 108.478 277.2 108.32C277.38 108.156 277.512 107.96 277.597 107.733H281.594C281.457 108.579 281.132 109.314 280.619 109.938C280.106 110.556 279.426 111.037 278.58 111.381C277.74 111.72 276.756 111.889 275.63 111.889Z" fill="black"/>
<path d="M287.025 99.4849L288.801 103.26L290.673 99.4849H295.019L291.752 105.576L295.178 111.667H290.863L288.801 107.796L286.803 111.667H282.425L285.883 105.576L282.647 99.4849H287.025Z" fill="black"/>
<path d="M296.576 111.667V99.4849H300.953V111.667H296.576ZM298.772 98.2159C298.175 98.2159 297.665 98.0203 297.242 97.629C296.819 97.2378 296.607 96.7672 296.607 96.2173C296.607 95.6675 296.819 95.1969 297.242 94.8056C297.665 94.4144 298.172 94.2188 298.764 94.2188C299.362 94.2188 299.87 94.4144 300.287 94.8056C300.71 95.1969 300.922 95.6675 300.922 96.2173C300.922 96.7672 300.71 97.2378 300.287 97.629C299.87 98.0203 299.365 98.2159 298.772 98.2159Z" fill="black"/>
<path d="M314.319 103.45H310.29C310.269 103.202 310.182 102.988 310.028 102.808C309.875 102.628 309.677 102.491 309.434 102.395C309.196 102.295 308.931 102.245 308.64 102.245C308.265 102.245 307.943 102.314 307.673 102.451C307.403 102.588 307.271 102.784 307.276 103.038C307.271 103.218 307.348 103.384 307.506 103.538C307.67 103.691 307.985 103.81 308.45 103.894L310.925 104.339C312.172 104.566 313.1 104.949 313.708 105.489C314.322 106.023 314.631 106.739 314.636 107.638C314.631 108.505 314.372 109.258 313.859 109.898C313.351 110.533 312.656 111.024 311.773 111.373C310.895 111.717 309.893 111.889 308.767 111.889C306.906 111.889 305.45 111.508 304.397 110.747C303.351 109.985 302.766 108.981 302.645 107.733H306.991C307.049 108.119 307.239 108.418 307.562 108.629C307.89 108.835 308.302 108.938 308.799 108.938C309.201 108.938 309.531 108.87 309.79 108.732C310.055 108.595 310.19 108.399 310.195 108.145C310.19 107.913 310.073 107.728 309.846 107.59C309.624 107.453 309.275 107.342 308.799 107.257L306.642 106.876C305.399 106.66 304.469 106.247 303.85 105.639C303.232 105.031 302.925 104.249 302.93 103.292C302.925 102.446 303.147 101.729 303.596 101.142C304.051 100.55 304.699 100.101 305.539 99.7942C306.385 99.4822 307.387 99.3262 308.545 99.3262C310.306 99.3262 311.694 99.6911 312.709 100.421C313.729 101.15 314.266 102.16 314.319 103.45Z" fill="black"/>
<path d="M323.578 99.4849V102.657H315.552V99.4849H323.578ZM317.107 96.5663H321.484V107.749C321.484 107.918 321.514 108.061 321.572 108.177C321.63 108.288 321.72 108.373 321.841 108.431C321.963 108.484 322.119 108.51 322.309 108.51C322.441 108.51 322.595 108.494 322.769 108.463C322.949 108.431 323.081 108.404 323.166 108.383L323.8 111.46C323.605 111.519 323.324 111.59 322.96 111.675C322.6 111.759 322.172 111.815 321.675 111.841C320.67 111.894 319.827 111.791 319.145 111.532C318.463 111.267 317.95 110.852 317.606 110.287C317.263 109.721 317.096 109.012 317.107 108.161V96.5663Z" fill="black"/>
<path d="M327.744 111.92C327.131 111.92 326.604 111.706 326.166 111.278C325.732 110.845 325.518 110.318 325.523 109.7C325.518 109.097 325.732 108.582 326.166 108.153C326.604 107.725 327.131 107.511 327.744 107.511C328.325 107.511 328.838 107.725 329.283 108.153C329.732 108.582 329.959 109.097 329.965 109.7C329.959 110.112 329.851 110.488 329.639 110.826C329.433 111.159 329.164 111.426 328.83 111.627C328.497 111.823 328.135 111.92 327.744 111.92Z" fill="black"/>
<path d="M97.4877 43.8545L96.3329 75.1212H86.2068L85.0521 43.8545H97.4877ZM91.2699 90.0439C89.5526 90.0439 88.0795 89.4443 86.8508 88.2452C85.6368 87.0312 85.0373 85.5582 85.0521 83.8261C85.0373 82.1384 85.6368 80.695 86.8508 79.4959C88.0795 78.2967 89.5526 77.6971 91.2699 77.6971C92.8983 77.6971 94.3344 78.2967 95.5779 79.4959C96.8363 80.695 97.4729 82.1384 97.4877 83.8261C97.4729 84.9809 97.1694 86.032 96.5772 86.9794C95.9998 87.9121 95.2448 88.6597 94.3122 89.2223C93.3795 89.77 92.3654 90.0439 91.2699 90.0439Z" fill="#CF4141"/>
<defs>
<filter id="filter0_d" x="0" y="0" width="454.667" height="142" filterUnits="userSpaceOnUse" color-interpolation-filters="sRGB">
<feFlood flood-opacity="0" result="BackgroundImageFix"/>
<feColorMatrix in="SourceAlpha" type="matrix" values="0 0 0 0 0 0 0 0 0 0 0 0 0 0 0 0 0 0 127 0"/>
<feOffset dx="2" dy="4"/>
<feGaussianBlur stdDeviation="2"/>
<feColorMatrix type="matrix" values="0 0 0 0 0 0 0 0 0 0 0 0 0 0 0 0 0 0 0.25 0"/>
<feBlend mode="normal" in2="BackgroundImageFix" result="effect1_dropShadow"/>
<feBlend mode="normal" in="SourceGraphic" in2="effect1_dropShadow" result="shape"/>
</filter>
</defs>
</svg>
