<svg width="1920" height="1920" viewBox="0 0 1920 1920" fill="none" xmlns="http://www.w3.org/2000/svg">
<path d="M962.23 238H967.07V543.064L608.868 751.282V765.809H347.478V601.171L962.23 238Z" fill="#DC2625"/>
<path d="M967.07 509.168V412.322L1436.84 683.328V765.809H1359.16V733.527L967.07 509.168Z" fill="#DC2625"/>
<path d="M967.07 736.755V596.329L1262.34 765.809H996.114V756.124C996.114 754.833 976.751 742.673 967.07 736.755Z" fill="#DC2625"/>
<path d="M1054.2 320.319L1059.04 286.423L1596.71 591.487V765.809H1556.01V614.084L1054.2 320.319Z" fill="#DC2625"/>
<path d="M342.637 1321.06V1158.03H429.767V1269.41L971.911 1574.47V1681L342.637 1321.06Z" fill="#DC2625"/>
<path d="M507.216 1225.83V1158.03H894.462L971.911 1201.61V1487.31L507.216 1225.83Z" fill="#DC2625"/>
<path d="M971.911 1308.32V1158.03L1242.98 1159.65L971.911 1308.32Z" fill="#DC2625"/>
<path d="M971.911 1487.31V1356.57L1134.07 1259.72L1158.27 1295.23L1359.16 1181.44V1158.03H1437.41V1225.83L981.592 1492.15L971.911 1487.31Z" fill="#DC2625"/>
<path d="M1597.15 1158.03H1557.62V1296.85L971.911 1632.58V1681L1597.15 1317.83V1158.03Z" fill="#DC2625"/>
<path d="M337.793 989.477L396.583 1008.12C387.57 1040.91 372.548 1065.3 351.518 1081.28C330.624 1097.13 304.063 1105.05 271.834 1105.05C231.958 1105.05 199.184 1091.46 173.51 1064.27C147.837 1036.95 135 999.655 135 952.388C135 902.389 147.905 863.592 173.715 835.997C199.525 808.265 233.461 794.399 275.521 794.399C312.256 794.399 342.095 805.259 365.037 826.98C378.693 839.822 388.935 858.264 395.763 882.307L335.745 896.651C332.194 881.078 324.752 868.783 313.417 859.767C302.219 850.75 288.563 846.242 272.449 846.242C250.189 846.242 232.095 854.234 218.166 870.217C204.373 886.201 197.477 912.088 197.477 947.88C197.477 985.857 204.305 1012.91 217.961 1029.03C231.617 1045.15 249.37 1053.21 271.22 1053.21C287.334 1053.21 301.195 1048.08 312.803 1037.84C324.41 1027.59 332.741 1011.47 337.793 989.477Z" fill="#DC2625"/>
<path d="M448.408 799.522H509.041V962.224C509.041 988.043 509.792 1004.78 511.294 1012.43C513.889 1024.72 520.034 1034.63 529.73 1042.14C539.562 1049.52 552.945 1053.21 569.879 1053.21C587.086 1053.21 600.059 1049.72 608.799 1042.76C617.539 1035.65 622.796 1026.98 624.572 1016.73C626.347 1006.49 627.235 989.477 627.235 965.707V799.522H687.868V957.306C687.868 993.371 686.229 1018.85 682.952 1033.74C679.674 1048.63 673.597 1061.2 664.721 1071.44C655.981 1081.69 644.236 1089.89 629.488 1096.03C614.739 1102.04 595.484 1105.05 571.723 1105.05C543.045 1105.05 521.263 1101.77 506.378 1095.21C491.629 1088.52 479.953 1079.91 471.35 1069.39C462.747 1058.74 457.079 1047.6 454.348 1035.99C450.388 1018.78 448.408 993.371 448.408 959.765V799.522Z" fill="#DC2625"/>
<path d="M725.968 1099.93V1045.21L883.696 850.341H743.79V799.522H963.585V846.652L799.097 1049.31H969.935V1099.93H725.968Z" fill="#DC2625"/>
<path d="M1008.45 1099.93V799.522H1231.11V850.341H1069.08V916.938H1219.84V967.551H1069.08V1049.31H1236.84V1099.93H1008.45Z" fill="#DC2625"/>
<path d="M1355.86 1099.93V850.341H1266.75V799.522H1505.39V850.341H1416.49V1099.93H1355.86Z" fill="#DC2625"/>
<path d="M1544.93 1099.93V799.522H1605.56V917.757H1724.37V799.522H1785V1099.93H1724.37V968.576H1605.56V1099.93H1544.93Z" fill="#DC2625"/>
</svg>
