<svg width="761" height="717" viewBox="0 0 761 717" fill="none" xmlns="http://www.w3.org/2000/svg">
<path d="M373.003 263C372.453 263 372 262.095 372 260.985C372 259.909 372.453 259 373.003 259C373.562 259 374 259.909 374 260.985C374 262.095 373.562 263 373.003 263Z" fill="white"/>
<path d="M346.509 263C345.128 263 344 262.107 344 260.989C344 259.89 345.128 259 346.509 259C347.879 259 349 259.89 349 260.989C349 262.107 347.879 263 346.509 263Z" fill="white"/>
<path d="M321.005 264C319.9 264 319 262.889 319 261.497C319 260.126 319.9 259 321.005 259C322.102 259 323 260.126 323 261.497C323 262.889 322.102 264 321.005 264Z" fill="white"/>
<path d="M295.002 264C293.895 264 293 262.876 293 261.492C293 260.121 293.895 259 295.002 259C296.107 259 297 260.121 297 261.492C297 262.876 296.107 264 295.002 264Z" fill="white"/>
<path d="M268.498 264C267.671 264 267 262.887 267 261.497C267 260.121 267.671 259 268.498 259C269.325 259 270 260.121 270 261.497C270 262.887 269.325 264 268.498 264Z" fill="white"/>
<path d="M243.005 263C241.885 263 241 262.108 241 260.996C241 259.902 241.885 259 243.005 259C244.108 259 245 259.902 245 260.996C245 262.108 244.108 263 243.005 263Z" fill="white"/>
<path d="M216.511 263C215.683 263 215 262.105 215 260.987C215 259.899 215.683 259 216.511 259C217.322 259 218 259.899 218 260.987C218 262.105 217.322 263 216.511 263Z" fill="white"/>
<path d="M594.008 94C592.911 94 592 93.3313 592 92.4908C592 91.6748 592.911 91 594.008 91C595.105 91 596 91.6748 596 92.4908C596 93.3313 595.105 94 594.008 94Z" fill="white"/>
<path d="M558.502 95C556.562 95 555 93.8777 555 92.4934C555 91.1276 556.562 90 558.502 90C560.434 90 562 91.1276 562 92.4934C562 93.8777 560.434 95 558.502 95Z" fill="white"/>
<path d="M524.502 96C522.022 96 520 93.9825 520 91.4918C520 89.0241 522.022 87 524.502 87C526.988 87 529 89.0241 529 91.4918C529 93.9825 526.988 96 524.502 96Z" fill="white"/>
<path d="M490.007 97C486.682 97 484 94.7534 484 91.9924C484 89.2313 486.682 87 490.007 87C493.314 87 496 89.2313 496 91.9924C496 94.7534 493.314 97 490.007 97Z" fill="white"/>
<path d="M454.505 97C450.924 97 448 94.5415 448 91.4894C448 88.4525 450.924 86 454.505 86C458.084 86 461 88.4525 461 91.4894C461 94.5415 458.084 97 454.505 97Z" fill="white"/>
<path d="M420.503 98C416.912 98 414 95.3121 414 91.989C414 88.6847 416.912 86 420.503 86C424.094 86 427 88.6847 427 91.989C427 95.3121 424.094 98 420.503 98Z" fill="white"/>
<path d="M385.505 97C381.913 97 379 94.5331 379 91.4881C379 88.455 381.913 86 385.505 86C389.097 86 392 88.455 392 91.4881C392 94.5331 389.097 97 385.505 97Z" fill="white"/>
<path d="M351.004 97C348.244 97 346 94.5481 346 91.5C346 88.4708 348.244 86 351.004 86C353.756 86 356 88.4708 356 91.5C356 94.5481 353.756 97 351.004 97Z" fill="white"/>
<path d="M316.996 96C314.778 96 313 93.9842 313 91.4938C313 89.025 314.778 87 316.996 87C319.212 87 321 89.025 321 91.4938C321 93.9842 319.212 96 316.996 96Z" fill="white"/>
<path d="M281.993 95C280.331 95 279 93.431 279 91.4856C279 89.5658 280.331 88 281.993 88C283.647 88 285 89.5658 285 91.4856C285 93.431 283.647 95 281.993 95Z" fill="white"/>
<path d="M248.002 94C246.886 94 246 93.1045 246 91.991C246 90.8955 246.886 90 248.002 90C249.103 90 250 90.8955 250 91.991C250 93.1045 249.103 94 248.002 94Z" fill="white"/>
<path d="M626.999 128C625.911 128 625 127.326 625 126.491C625 125.667 625.911 125 626.999 125C628.11 125 629 125.667 629 126.491C629 127.326 628.11 128 626.999 128Z" fill="white"/>
<path d="M593.49 132C591.57 132 590 130.204 590 127.986C590 125.786 591.57 124 593.49 124C595.436 124 597 125.786 597 127.986C597 130.204 595.436 132 593.49 132Z" fill="white"/>
<path d="M558.505 132C555.479 132 553 129.538 553 126.485C553 123.459 555.479 121 558.505 121C561.546 121 564 123.459 564 126.485C564 129.538 561.546 132 558.505 132Z" fill="white"/>
<path d="M523.998 133C520.137 133 517 129.865 517 125.983C517 122.129 520.137 119 523.998 119C527.857 119 531 122.129 531 125.983C531 129.865 527.857 133 523.998 133Z" fill="white"/>
<path d="M489.505 134C484.805 134 481 130.434 481 125.995C481 121.578 484.805 118 489.505 118C494.188 118 498 121.578 498 125.995C498 130.434 494.188 134 489.505 134Z" fill="white"/>
<path d="M455.007 136C450.579 136 447 131.974 447 126.989C447 122.03 450.579 118 455.007 118C459.424 118 463 122.03 463 126.989C463 131.974 459.424 136 455.007 136Z" fill="white"/>
<path d="M419.498 136C414.251 136 410 131.975 410 126.991C410 122.025 414.251 118 419.498 118C424.742 118 429 122.025 429 126.991C429 131.975 424.742 136 419.498 136Z" fill="white"/>
<path d="M385.498 136C380.795 136 377 131.957 377 126.986C377 122.04 380.795 118 385.498 118C390.205 118 394 122.04 394 126.986C394 131.957 390.205 136 385.498 136Z" fill="white"/>
<path d="M350.502 136C345.784 136 342 131.968 342 126.986C342 122.026 345.784 118 350.502 118C355.181 118 359 122.026 359 126.986C359 131.968 355.181 136 350.502 136Z" fill="white"/>
<path d="M315.999 134C312.14 134 309 130.656 309 126.492C309 122.364 312.14 119 315.999 119C319.857 119 323 122.364 323 126.492C323 130.656 319.857 134 315.999 134Z" fill="white"/>
<path d="M281.493 133C277.911 133 275 130.311 275 126.988C275 123.695 277.911 121 281.493 121C285.092 121 288 123.695 288 126.988C288 130.311 285.092 133 281.493 133Z" fill="white"/>
<path d="M247.497 132C245.011 132 243 129.753 243 126.981C243 124.237 245.011 122 247.497 122C249.967 122 252 124.237 252 126.981C252 129.753 249.967 132 247.497 132Z" fill="white"/>
<path d="M212.009 131C210.334 131 209 129.666 209 127.991C209 126.355 210.334 125 212.009 125C213.663 125 215 126.355 215 127.991C215 129.666 213.663 131 212.009 131Z" fill="white"/>
<path d="M177.497 127C177.231 127 177 126.544 177 125.982C177 125.448 177.231 125 177.497 125C177.773 125 178 125.448 178 125.982C178 126.544 177.773 127 177.497 127Z" fill="white"/>
<path d="M662.502 164C661.134 164 660 162.662 660 161C660 159.338 661.134 158 662.502 158C663.885 158 665 159.338 665 161C665 162.662 663.885 164 662.502 164Z" fill="white"/>
<path d="M628 165C625.252 165 623 163.21 623 160.999C623 158.796 625.252 157 628 157C630.756 157 633 158.796 633 160.999C633 163.21 630.756 165 628 165Z" fill="white"/>
<path d="M592.998 168C589.132 168 586 165.079 586 161.494C586 157.899 589.132 155 592.998 155C596.868 155 600 157.899 600 161.494C600 165.079 596.868 168 592.998 168Z" fill="white"/>
<path d="M559 169C554.597 169 551 165.417 551 160.997C551 156.577 554.597 153 559 153C563.407 153 567 156.577 567 160.997C567 165.417 563.407 169 559 169Z" fill="white"/>
<path d="M524.502 171C519.253 171 515 166.748 515 161.5C515 156.252 519.253 152 524.502 152C529.75 152 534 156.252 534 161.5C534 166.748 529.75 171 524.502 171Z" fill="white"/>
<path d="M489.509 171C483.716 171 479 166.299 479 160.506C479 154.707 483.716 150 489.509 150C495.3 150 500 154.707 500 160.506C500 166.299 495.3 171 489.509 171Z" fill="white"/>
<path d="M454.509 174C447.599 174 442 168.611 442 161.994C442 155.36 447.599 150 454.509 150C461.411 150 467 155.36 467 161.994C467 168.611 461.411 174 454.509 174Z" fill="white"/>
<path d="M420 174C413.366 174 408 168.383 408 161.495C408 154.594 413.366 149 420 149C426.634 149 432 154.594 432 161.495C432 168.383 426.634 174 420 174Z" fill="white"/>
<path d="M385.498 174C379.151 174 374 168.627 374 162C374 155.373 379.151 150 385.498 150C391.849 150 397 155.373 397 162C397 168.627 391.849 174 385.498 174Z" fill="white"/>
<path d="M351.508 171C345.163 171 340 166.305 340 160.501C340 154.701 345.163 150 351.508 150C357.853 150 363 154.701 363 160.501C363 166.305 357.853 171 351.508 171Z" fill="white"/>
<path d="M316 171C310.472 171 306 166.749 306 161.501C306 156.251 310.472 152 316 152C321.51 152 326 156.251 326 161.501C326 166.749 321.51 171 316 171Z" fill="white"/>
<path d="M281.998 170C277.038 170 273 165.974 273 161.002C273 156.033 277.038 152 281.998 152C286.978 152 291 156.033 291 161.002C291 165.974 286.978 170 281.998 170Z" fill="white"/>
<path d="M246.509 168C242.911 168 240 165.095 240 161.499C240 157.9 242.911 155 246.509 155C250.092 155 253 157.9 253 161.499C253 165.095 250.092 168 246.509 168Z" fill="white"/>
<path d="M212.006 167C209.241 167 207 164.765 207 162C207 159.241 209.241 157 212.006 157C214.762 157 217 159.241 217 162C217 164.765 214.762 167 212.006 167Z" fill="white"/>
<path d="M177.495 165C176.113 165 175 163.435 175 161.502C175 159.569 176.113 158 177.495 158C178.887 158 180 159.569 180 161.502C180 163.435 178.887 165 177.495 165Z" fill="white"/>
<path d="M142.989 163C142.429 163 142 162.56 142 162C142 161.44 142.429 161 142.989 161C143.533 161 144 161.44 144 162C144 162.56 143.533 163 142.989 163Z" fill="white"/>
<path d="M697.498 197C697.224 197 697 196.554 697 195.997C697 195.452 697.224 195 697.498 195C697.775 195 698 195.452 698 195.997C698 196.554 697.775 197 697.498 197Z" fill="white"/>
<path d="M662.488 200C660.011 200 658 197.983 658 195.498C658 193.017 660.011 191 662.488 191C664.982 191 667 193.017 667 195.498C667 197.983 664.982 200 662.488 200Z" fill="white"/>
<path d="M628.499 202C624.908 202 622 199.094 622 195.492C622 191.906 624.908 189 628.499 189C632.082 189 635 191.906 635 195.492C635 199.094 632.082 202 628.499 202Z" fill="white"/>
<path d="M593.491 206C588.246 206 584 201.753 584 196.5C584 191.254 588.246 187 593.491 187C598.747 187 603 191.254 603 196.5C603 201.753 598.747 206 593.491 206Z" fill="white"/>
<path d="M559.491 206C553.697 206 549 201.52 549 195.999C549 190.474 553.697 186 559.491 186C565.297 186 570 190.474 570 195.999C570 201.52 565.297 206 559.491 206Z" fill="white"/>
<path d="M522.992 208C516.368 208 511 202.64 511 195.998C511 189.375 516.368 184 522.992 184C529.62 184 535 189.375 535 195.998C535 202.64 529.62 208 522.992 208Z" fill="white"/>
<path d="M489.509 209C482.037 209 476 203.167 476 195.987C476 188.809 482.037 183 489.509 183C496.97 183 503 188.809 503 195.987C503 203.167 496.97 209 489.509 209Z" fill="white"/>
<path d="M455 210C446.7 210 440 203.5 440 195.492C440 187.485 446.7 181 455 181C463.288 181 470 187.485 470 195.492C470 203.5 463.288 210 455 210Z" fill="white"/>
<path d="M420.008 210C411.717 210 405 203.502 405 195.498C405 187.495 411.717 181 420.008 181C428.295 181 435 187.495 435 195.498C435 203.502 428.295 210 420.008 210Z" fill="white"/>
<path d="M385.498 210C377.497 210 371 203.518 371 195.495C371 187.5 377.497 181 385.498 181C393.503 181 400 187.5 400 195.495C400 203.518 393.503 210 385.498 210Z" fill="white"/>
<path d="M350.511 210C342.512 210 336 203.513 336 195.5C336 187.49 342.512 181 350.511 181C358.511 181 365 187.49 365 195.5C365 203.513 358.511 210 350.511 210Z" fill="white"/>
<path d="M315.995 208C308.819 208 303 202.635 303 196.004C303 189.374 308.819 184 315.995 184C323.172 184 329 189.374 329 196.004C329 202.635 323.172 208 315.995 208Z" fill="white"/>
<path d="M282.005 207C275.925 207 271 202.084 271 196C271 189.919 275.925 185 282.005 185C288.082 185 293 189.919 293 196C293 202.084 288.082 207 282.005 207Z" fill="white"/>
<path d="M247.507 206C242.243 206 238 201.751 238 196.495C238 191.252 242.243 187 247.507 187C252.754 187 257 191.252 257 196.495C257 201.751 252.754 206 247.507 206Z" fill="white"/>
<path d="M212.006 202C208.154 202 205 199.096 205 195.497C205 191.909 208.154 189 212.006 189C215.846 189 219 191.909 219 195.497C219 199.096 215.846 202 212.006 202Z" fill="white"/>
<path d="M177.997 200C175.219 200 173 197.985 173 195.494C173 193.015 175.219 191 177.997 191C180.758 191 183 193.015 183 195.494C183 197.985 180.758 200 177.997 200Z" fill="white"/>
<path d="M142.494 199C141.127 199 140 197.874 140 196.498C140 195.119 141.127 194 142.494 194C143.886 194 145 195.119 145 196.498C145 197.874 143.886 199 142.494 199Z" fill="white"/>
<path d="M696.987 233C695.327 233 694 231.666 694 230.003C694 228.35 695.327 227 696.987 227C698.651 227 700 228.35 700 230.003C700 231.666 698.651 233 696.987 233Z" fill="white"/>
<path d="M662.5 237C659.476 237 657 234.527 657 231.497C657 228.461 659.476 226 662.5 226C665.521 226 668 228.461 668 231.497C668 234.527 665.521 237 662.5 237Z" fill="white"/>
<path d="M628.496 239C624.367 239 621 235.184 621 230.495C621 225.806 624.367 222 628.496 222C632.656 222 636 225.806 636 230.495C636 235.184 632.656 239 628.496 239Z" fill="white"/>
<path d="M593.494 240C587.703 240 583 235.521 583 229.997C583 224.473 587.703 220 593.494 220C599.297 220 604 224.473 604 229.997C604 235.521 599.297 240 593.494 240Z" fill="white"/>
<path d="M559.006 243C551.832 243 546 237.419 546 230.503C546 223.594 551.832 218 559.006 218C566.174 218 572 223.594 572 230.503C572 237.419 566.174 243 559.006 243Z" fill="white"/>
<path d="M524.5 246C515.942 246 509 239.288 509 230.992C509 222.722 515.942 216 524.5 216C533.062 216 540 222.722 540 230.992C540 239.288 533.062 246 524.5 246Z" fill="white"/>
<path d="M489.002 247C480.156 247 473 239.386 473 229.995C473 220.611 480.156 213 489.002 213C497.835 213 505 220.611 505 229.995C505 239.386 497.835 247 489.002 247Z" fill="white"/>
<path d="M455 249C445.601 249 438 240.714 438 230.497C438 220.286 445.601 212 455 212C464.386 212 472 220.286 472 230.497C472 240.714 464.386 249 455 249Z" fill="white"/>
<path d="M420.502 249C410.285 249 402 240.73 402 230.506C402 220.293 410.285 212 420.502 212C430.724 212 439 220.293 439 230.506C439 240.73 430.724 249 420.502 249Z" fill="white"/>
<path d="M385.013 249C375.075 249 367 240.727 367 230.503C367 220.302 375.075 212 385.013 212C394.954 212 403 220.302 403 230.503C403 240.727 394.954 249 385.013 249Z" fill="white"/>
<path d="M350.013 247C340.619 247 333 239.383 333 229.998C333 220.617 340.619 213 350.013 213C359.4 213 367 220.617 367 229.998C367 239.383 359.4 247 350.013 247Z" fill="white"/>
<path d="M316.505 246C307.949 246 301 239.057 301 230.495C301 221.93 307.949 215 316.505 215C325.064 215 332 221.93 332 230.495C332 239.057 325.064 246 316.505 246Z" fill="white"/>
<path d="M281.994 244C274.826 244 269 238.177 269 230.994C269 223.82 274.826 218 281.994 218C289.183 218 295 223.82 295 230.994C295 238.177 289.183 244 281.994 244Z" fill="white"/>
<path d="M247.508 241C241.159 241 236 236.09 236 230.003C236 223.938 241.159 219 247.508 219C253.861 219 259 223.938 259 230.003C259 236.09 253.861 241 247.508 241Z" fill="white"/>
<path d="M212.505 239C207.823 239 204 234.97 204 229.994C204 225.03 207.823 221 212.505 221C217.198 221 221 225.03 221 229.994C221 234.97 217.198 239 212.505 239Z" fill="white"/>
<path d="M177.993 238C174.139 238 171 235.091 171 231.497C171 227.912 174.139 225 177.993 225C181.861 225 185 227.912 185 231.497C185 235.091 181.861 238 177.993 238Z" fill="white"/>
<path d="M141.99 233C139.774 233 138 231.433 138 229.499C138 227.572 139.774 226 141.99 226C144.204 226 146 227.572 146 229.499C146 231.433 144.204 233 141.99 233Z" fill="white"/>
<path d="M108.479 232C107.665 232 107 231.55 107 230.996C107 230.447 107.665 230 108.479 230C109.335 230 110 230.447 110 230.996C110 231.55 109.335 232 108.479 232Z" fill="#221F1F"/>
<path d="M731.991 265C731.449 265 731 264.773 731 264.496C731 264.22 731.449 264 731.991 264C732.554 264 733 264.22 733 264.496C733 264.773 732.554 265 731.991 265Z" fill="white"/>
<path d="M697 270C694.237 270 692 267.977 692 265.493C692 263.017 694.237 261 697 261C699.767 261 702 263.017 702 265.493C702 267.977 699.767 270 697 270Z" fill="white"/>
<path d="M662.504 272C658.916 272 656 269.088 656 265.491C656 261.906 658.916 259 662.504 259C666.09 259 669 261.906 669 265.491C669 269.088 666.09 272 662.504 272Z" fill="white"/>
<path d="M626.997 275C621.471 275 617 270.753 617 265.492C617 260.253 621.471 256 626.997 256C632.526 256 637 260.253 637 265.492C637 270.753 632.526 275 626.997 275Z" fill="white"/>
<path d="M592.994 278C586.365 278 581 272.196 581 265.003C581 257.841 586.365 252 592.994 252C599.622 252 605 257.841 605 265.003C605 272.196 599.622 278 592.994 278Z" fill="white"/>
<path d="M558.502 280C549.943 280 543 273.524 543 265.498C543 257.5 549.943 251 558.502 251C567.06 251 574 257.5 574 265.498C574 273.524 567.06 280 558.502 280Z" fill="white"/>
<path d="M524.995 282C515.606 282 508 274.614 508 265.491C508 256.374 515.606 249 524.995 249C534.384 249 542 256.374 542 265.491C542 274.614 534.384 282 524.995 282Z" fill="white"/>
<path d="M489.507 284C478.725 284 470 275.491 470 264.987C470 254.505 478.725 246 489.507 246C500.266 246 509 254.505 509 264.987C509 275.491 500.266 284 489.507 284Z" fill="white"/>
<path d="M455.516 285C444.184 285 435 276.281 435 265.498C435 254.734 444.184 246 455.516 246C466.838 246 476 254.734 476 265.498C476 276.281 466.838 285 455.516 285Z" fill="white"/>
<path d="M419.995 286C408.398 286 399 276.597 399 264.987C399 253.4 408.398 244 419.995 244C431.586 244 441 253.4 441 264.987C441 276.597 431.586 286 419.995 286Z" fill="white"/>
<path d="M385.998 285C374.392 285 365 275.814 365 264.495C365 253.186 374.392 244 385.998 244C397.604 244 407 253.186 407 264.495C407 275.814 397.604 285 385.998 285Z" fill="white"/>
<path d="M351.514 284C340.732 284 332 275.488 332 264.998C332 254.522 340.732 246 351.514 246C362.275 246 371 254.522 371 264.998C371 275.488 362.275 284 351.514 284Z" fill="white"/>
<path d="M316.509 283C306.85 283 299 274.951 299 264.992C299 255.062 306.85 247 316.509 247C326.175 247 334 255.062 334 264.992C334 274.951 326.175 283 316.509 283Z" fill="white"/>
<path d="M281.505 281C272.384 281 265 274.061 265 265.497C265 256.936 272.384 250 281.505 250C290.619 250 298 256.936 298 265.497C298 274.061 290.619 281 281.505 281Z" fill="white"/>
<path d="M246.51 279C239.037 279 233 272.958 233 265.498C233 258.045 239.037 252 246.51 252C253.969 252 260 258.045 260 265.498C260 272.958 253.969 279 246.51 279Z" fill="white"/>
<path d="M211.505 275C205.7 275 201 270.08 201 263.997C201 257.933 205.7 253 211.505 253C217.296 253 222 257.933 222 263.997C222 270.08 217.296 275 211.505 275Z" fill="white"/>
<path d="M177.493 273C173.356 273 170 269.644 170 265.496C170 261.35 173.356 258 177.493 258C181.635 258 185 261.35 185 265.496C185 269.644 181.635 273 177.493 273Z" fill="white"/>
<path d="M143.49 271C140.474 271 138 268.322 138 265.002C138 261.704 140.474 259 143.49 259C146.519 259 149 261.704 149 265.002C149 268.322 146.519 271 143.49 271Z" fill="white"/>
<path d="M731.989 302C730.886 302 730 301.113 730 300.009C730 298.907 730.886 298 731.989 298C733.089 298 734 298.907 734 300.009C734 301.113 733.089 302 731.989 302Z" fill="white"/>
<path d="M696.987 304C693.676 304 691 301.766 691 299.005C691 296.244 693.676 294 696.987 294C700.306 294 703 296.244 703 299.005C703 301.766 700.306 304 696.987 304Z" fill="white"/>
<path d="M662.504 307C658.362 307 655 303.641 655 299.499C655 295.359 658.362 292 662.504 292C666.641 292 670 295.359 670 299.499C670 303.641 666.641 307 662.504 307Z" fill="white"/>
<path d="M627.498 312C621.157 312 616 306.849 616 300.497C616 294.135 621.157 289 627.498 289C633.843 289 639 294.135 639 300.497C639 306.849 633.843 312 627.498 312Z" fill="white"/>
<path d="M592.997 313C585.825 313 580 306.955 580 299.498C580 292.036 585.825 286 592.997 286C600.184 286 606 292.036 606 299.498C606 306.955 600.184 313 592.997 313Z" fill="white"/>
<path d="M558.5 316C549.385 316 542 308.613 542 299.5C542 290.39 549.385 283 558.5 283C567.615 283 575 290.39 575 299.5C575 308.613 567.615 316 558.5 316Z" fill="white"/>
<path d="M523.002 320C512.503 320 504 311.272 504 300.5C504 289.734 512.503 281 523.002 281C533.497 281 542 289.734 542 300.5C542 311.272 533.497 320 523.002 320Z" fill="white"/>
<path d="M489.002 321C477.393 321 468 311.609 468 300.008C468 288.404 477.393 279 489.002 279C500.601 279 510 288.404 510 300.008C510 311.609 500.601 321 489.002 321Z" fill="white"/>
<path d="M455.502 321C443.611 321 434 311.609 434 300.008C434 288.404 443.611 279 455.502 279C467.383 279 477 288.404 477 300.008C477 311.609 467.383 321 455.502 321Z" fill="white"/>
<path d="M419.511 321C407.628 321 398 311.609 398 300.008C398 288.404 407.628 279 419.511 279C431.391 279 441 288.404 441 300.008C441 311.609 431.391 321 419.511 321Z" fill="white"/>
<path d="M385.5 321C373.615 321 364 311.609 364 300.008C364 288.404 373.615 279 385.5 279C397.385 279 407 288.404 407 300.008C407 311.609 397.385 321 385.5 321Z" fill="white"/>
<path d="M351.011 321C338.857 321 329 311.609 329 300.008C329 288.404 338.857 279 351.011 279C363.169 279 373 288.404 373 300.008C373 311.609 363.169 321 351.011 321Z" fill="white"/>
<path d="M315.512 320C304.735 320 296 311.038 296 299.997C296 288.955 304.735 280 315.512 280C326.268 280 335 288.955 335 299.997C335 311.038 326.268 320 315.512 320Z" fill="white"/>
<path d="M281.495 316C271.82 316 264 308.376 264 298.997C264 289.605 271.82 282 281.495 282C291.161 282 299 289.605 299 298.997C299 308.376 291.161 316 281.495 316Z" fill="white"/>
<path d="M246.997 314C238.706 314 232 307.502 232 299.5C232 291.486 238.706 285 246.997 285C255.265 285 262 291.486 262 299.5C262 307.502 255.265 314 246.997 314Z" fill="white"/>
<path d="M211.506 312C205.158 312 200 306.619 200 299.997C200 293.362 205.158 288 211.506 288C217.839 288 223 293.362 223 299.997C223 306.619 217.839 312 211.506 312Z" fill="white"/>
<path d="M177.992 309C173.039 309 169 304.971 169 299.997C169 295.029 173.039 291 177.992 291C182.955 291 187 295.029 187 299.997C187 304.971 182.955 309 177.992 309Z" fill="white"/>
<path d="M142.997 306C139.683 306 137 303.091 137 299.505C137 295.919 139.683 293 142.997 293C146.305 293 149 295.919 149 299.505C149 303.091 146.305 306 142.997 306Z" fill="white"/>
<path d="M731.496 337C730.131 337 729 335.88 729 334.504C729 333.123 730.131 332 731.496 332C732.881 332 734 333.123 734 334.504C734 335.88 732.881 337 731.496 337Z" fill="white"/>
<path d="M696.983 340C693.673 340 691 337.531 691 334.497C691 331.456 693.673 329 696.983 329C700.297 329 703 331.456 703 334.497C703 337.531 700.297 340 696.983 340Z" fill="white"/>
<path d="M662.494 344C657.802 344 654 339.979 654 335.005C654 330.025 657.802 326 662.494 326C667.186 326 671 330.025 671 335.005C671 339.979 667.186 344 662.494 344Z" fill="white"/>
<path d="M627.997 346C621.36 346 616 340.626 616 333.998C616 327.364 621.36 322 627.997 322C634.637 322 640 327.364 640 333.998C640 340.626 634.637 346 627.997 346Z" fill="white"/>
<path d="M593 350C584.727 350 578 343.279 578 335.002C578 326.709 584.727 320 593 320C601.286 320 608 326.709 608 335.002C608 343.279 601.286 350 593 350Z" fill="white"/>
<path d="M558.995 352C549.597 352 542 343.935 542 334.005C542 324.056 549.597 316 558.995 316C568.384 316 576 324.056 576 334.005C576 343.935 568.384 352 558.995 352Z" fill="white"/>
<path d="M523.99 354C512.387 354 503 344.838 503 333.509C503 322.187 512.387 313 523.99 313C535.59 313 545 322.187 545 333.509C545 344.838 535.59 354 523.99 354Z" fill="white"/>
<path d="M489.002 356C477.393 356 468 346.382 468 334.503C468 322.634 477.393 313 489.002 313C500.601 313 510 322.634 510 334.503C510 346.382 500.601 356 489.002 356Z" fill="white"/>
<path d="M455.502 356C443.611 356 434 346.382 434 334.503C434 322.634 443.611 313 455.502 313C467.383 313 477 322.634 477 334.503C477 346.382 467.383 356 455.502 356Z" fill="white"/>
<path d="M419.511 356C407.628 356 398 346.382 398 334.503C398 322.634 407.628 313 419.511 313C431.391 313 441 322.634 441 334.503C441 346.382 431.391 356 419.511 356Z" fill="white"/>
<path d="M385.5 356C373.615 356 364 346.382 364 334.503C364 322.634 373.615 313 385.5 313C397.385 313 407 322.634 407 334.503C407 346.382 397.385 356 385.5 356Z" fill="white"/>
<path d="M351.011 356C338.857 356 329 346.382 329 334.503C329 322.634 338.857 313 351.011 313C363.169 313 373 322.634 373 334.503C373 346.382 363.169 356 351.011 356Z" fill="white"/>
<path d="M316.506 356C304.627 356 295 346.382 295 334.503C295 322.634 304.627 313 316.506 313C328.36 313 338 322.634 338 334.503C338 346.382 328.36 356 316.506 356Z" fill="white"/>
<path d="M281.503 353C271.284 353 263 344.496 263 334.008C263 323.504 271.284 315 281.503 315C291.716 315 300 323.504 300 334.008C300 344.496 291.716 353 281.503 353Z" fill="white"/>
<path d="M247.508 351C238.94 351 232 344.049 232 335.495C232 326.926 238.94 320 247.508 320C256.061 320 263 326.926 263 335.495C263 344.049 256.061 351 247.508 351Z" fill="white"/>
<path d="M213.005 347C205.827 347 200 341.173 200 334C200 326.814 205.827 321 213.005 321C220.164 321 226 326.814 226 334C226 341.173 220.164 347 213.005 347Z" fill="white"/>
<path d="M177.993 344C172.488 344 168 339.749 168 334.5C168 329.251 172.488 325 177.993 325C183.506 325 188 329.251 188 334.5C188 339.749 183.506 344 177.993 344Z" fill="white"/>
<path d="M143.49 341C139.92 341 137 337.86 137 334C137 330.131 139.92 327 143.49 327C147.077 327 150 330.131 150 334C150 337.86 147.077 341 143.49 341Z" fill="white"/>
<path d="M732.483 372C730.552 372 729 370.661 729 368.998C729 367.345 730.552 366 732.483 366C734.433 366 736 367.345 736 368.998C736 370.661 734.433 372 732.483 372Z" fill="white"/>
<path d="M696.987 375C693.686 375 691 372.319 691 369.002C691 365.694 693.686 363 696.987 363C700.317 363 703 365.694 703 369.002C703 372.319 700.317 375 696.987 375Z" fill="white"/>
<path d="M662.503 378C657.809 378 654 374.191 654 369.493C654 364.804 657.809 361 662.503 361C667.197 361 671 364.804 671 369.493C671 374.191 667.197 378 662.503 378Z" fill="white"/>
<path d="M627.998 381C621.376 381 616 375.623 616 368.994C616 362.368 621.376 357 627.998 357C634.63 357 640 362.368 640 368.994C640 375.623 634.63 381 627.998 381Z" fill="white"/>
<path d="M593.485 384C584.936 384 578 377.293 578 369.003C578 360.713 584.936 354 593.485 354C602.054 354 609 360.713 609 369.003C609 377.293 602.054 384 593.485 384Z" fill="white"/>
<path d="M558.503 387C548.838 387 541 379.161 541 369.5C541 359.845 548.838 352 558.503 352C568.165 352 576 359.845 576 369.5C576 379.161 568.165 387 558.503 387Z" fill="white"/>
<path d="M523.498 389C511.624 389 502 379.589 502 367.992C502 356.401 511.624 347 523.498 347C535.37 347 545 356.401 545 367.992C545 379.589 535.37 389 523.498 389Z" fill="white"/>
<path d="M489.002 390C477.393 390 468 380.382 468 368.495C468 356.625 477.393 347 489.002 347C500.601 347 510 356.625 510 368.495C510 380.382 500.601 390 489.002 390Z" fill="white"/>
<path d="M455.502 390C443.611 390 434 380.382 434 368.495C434 356.625 443.611 347 455.502 347C467.383 347 477 356.625 477 368.495C477 380.382 467.383 390 455.502 390Z" fill="white"/>
<path d="M419.511 390C407.628 390 398 380.382 398 368.495C398 356.625 407.628 347 419.511 347C431.391 347 441 356.625 441 368.495C441 380.382 431.391 390 419.511 390Z" fill="white"/>
<path d="M385.5 390C373.615 390 364 380.382 364 368.495C364 356.625 373.615 347 385.5 347C397.385 347 407 356.625 407 368.495C407 380.382 397.385 390 385.5 390Z" fill="white"/>
<path d="M351.011 390C338.857 390 329 380.382 329 368.495C329 356.625 338.857 347 351.011 347C363.169 347 373 356.625 373 368.495C373 380.382 363.169 390 351.011 390Z" fill="white"/>
<path d="M316.506 390C304.627 390 295 380.382 295 368.495C295 356.625 304.627 347 316.506 347C328.36 347 338 356.625 338 368.495C338 380.382 328.36 390 316.506 390Z" fill="white"/>
<path d="M281.992 388C271.514 388 263 379.72 263 369.497C263 359.283 271.514 351 281.992 351C292.473 351 301 359.283 301 369.497C301 379.72 292.473 388 281.992 388Z" fill="white"/>
<path d="M247.003 385C238.156 385 231 377.846 231 369.002C231 360.17 238.156 353 247.003 353C255.834 353 263 360.17 263 369.002C263 377.846 255.834 385 247.003 385Z" fill="white"/>
<path d="M212.507 382C205.054 382 199 376.187 199 369.002C199 361.832 205.054 356 212.507 356C219.95 356 226 361.832 226 369.002C226 376.187 219.95 382 212.507 382Z" fill="white"/>
<path d="M177.995 379C172.477 379 168 374.523 168 368.997C168 363.48 172.477 359 177.995 359C183.526 359 188 363.48 188 368.997C188 374.523 183.526 379 177.995 379Z" fill="white"/>
<path d="M143.49 376C139.906 376 137 372.859 137 368.994C137 365.128 139.906 362 143.49 362C147.085 362 150 365.128 150 368.994C150 372.859 147.085 376 143.49 376Z" fill="white"/>
<path d="M731.501 407C730.122 407 729 405.429 729 403.498C729 401.567 730.122 400 731.501 400C732.878 400 734 401.567 734 403.498C734 405.429 732.878 407 731.501 407Z" fill="white"/>
<path d="M696.985 409C693.674 409 691 406.317 691 403.003C691 399.69 693.674 397 696.985 397C700.306 397 703 399.69 703 403.003C703 406.317 700.306 409 696.985 409Z" fill="white"/>
<path d="M662.503 414C657.814 414 654 409.753 654 404.5C654 399.241 657.814 395 662.503 395C667.207 395 671 399.241 671 404.5C671 409.753 667.207 414 662.503 414Z" fill="white"/>
<path d="M627.998 415C621.387 415 616 409.848 616 403.497C616 397.149 621.387 392 627.998 392C634.642 392 640 397.149 640 403.497C640 409.848 634.642 415 627.998 415Z" fill="white"/>
<path d="M592.998 419C584.714 419 578 412.057 578 403.497C578 394.94 584.714 388 592.998 388C601.28 388 608 394.94 608 403.497C608 412.057 601.28 419 592.998 419Z" fill="white"/>
<path d="M558.495 421C548.832 421 541 413.163 541 403.497C541 393.825 548.832 386 558.495 386C568.158 386 576 393.825 576 403.497C576 413.163 568.158 421 558.495 421Z" fill="white"/>
<path d="M524.002 425C512.392 425 503 415.604 503 403.997C503 392.399 512.392 383 524.002 383C535.599 383 545 392.399 545 403.997C545 415.604 535.599 425 524.002 425Z" fill="white"/>
<path d="M489.002 426C477.393 426 468 416.378 468 404.497C468 392.622 477.393 383 489.002 383C500.601 383 510 392.622 510 404.497C510 416.378 500.601 426 489.002 426Z" fill="white"/>
<path d="M455.502 426C443.611 426 434 416.378 434 404.497C434 392.622 443.611 383 455.502 383C467.383 383 477 392.622 477 404.497C477 416.378 467.383 426 455.502 426Z" fill="white"/>
<path d="M419.511 426C407.628 426 398 416.378 398 404.497C398 392.622 407.628 383 419.511 383C431.391 383 441 392.622 441 404.497C441 416.378 431.391 426 419.511 426Z" fill="white"/>
<path d="M385.5 426C373.615 426 364 416.378 364 404.497C364 392.622 373.615 383 385.5 383C397.385 383 407 392.622 407 404.497C407 416.378 397.385 426 385.5 426Z" fill="white"/>
<path d="M351.011 426C338.857 426 329 416.378 329 404.497C329 392.622 338.857 383 351.011 383C363.169 383 373 392.622 373 404.497C373 416.378 363.169 426 351.011 426Z" fill="white"/>
<path d="M316.506 426C304.627 426 295 416.378 295 404.497C295 392.622 304.627 383 316.506 383C328.36 383 338 392.622 338 404.497C338 416.378 328.36 426 316.506 426Z" fill="white"/>
<path d="M282.006 421C271.519 421 263 412.939 263 402.995C263 393.049 271.519 385 282.006 385C292.484 385 301 393.049 301 402.995C301 412.939 292.484 421 282.006 421Z" fill="white"/>
<path d="M247.508 420C238.94 420 232 412.62 232 403.505C232 394.386 238.94 387 247.508 387C256.072 387 263 394.386 263 403.505C263 412.62 256.072 420 247.508 420Z" fill="white"/>
<path d="M212.505 416C205.029 416 199 410.181 199 403.005C199 395.828 205.029 390 212.505 390C219.968 390 226 395.828 226 403.005C226 410.181 219.968 416 212.505 416Z" fill="white"/>
<path d="M177.994 414C172.482 414 168 409.514 168 404.002C168 398.482 172.482 394 177.994 394C183.521 394 188 398.482 188 404.002C188 409.514 183.521 414 177.994 414Z" fill="white"/>
<path d="M143.494 410C139.912 410 137 406.881 137 403.005C137 399.138 139.912 396 143.494 396C147.088 396 150 399.138 150 403.005C150 406.881 147.088 410 143.494 410Z" fill="white"/>
<path d="M732 441C730.899 441 730 439.651 730 437.998C730 436.341 730.899 435 732 435C733.119 435 734 436.341 734 437.998C734 439.651 733.119 441 732 441Z" fill="white"/>
<path d="M696.998 444C693.684 444 691 441.761 691 438.997C691 436.239 693.684 434 696.998 434C700.316 434 703 436.239 703 438.997C703 441.761 700.316 444 696.998 444Z" fill="white"/>
<path d="M662.493 447C658.344 447 655 442.967 655 438C655 433.036 658.344 429 662.493 429C666.636 429 670 433.036 670 438C670 442.967 666.636 447 662.493 447Z" fill="white"/>
<path d="M627.486 450C621.137 450 616 445.063 616 438.995C616 432.931 621.137 428 627.486 428C633.834 428 639 432.931 639 438.995C639 445.063 633.834 450 627.486 450Z" fill="white"/>
<path d="M593.991 452C586.262 452 580 445.948 580 438.502C580 431.043 586.262 425 593.991 425C601.732 425 608 431.043 608 438.502C608 445.948 601.732 452 593.991 452Z" fill="white"/>
<path d="M558.492 455C549.393 455 542 447.398 542 437.995C542 428.602 549.393 421 558.492 421C567.61 421 575 428.602 575 437.995C575 447.398 567.61 455 558.492 455Z" fill="white"/>
<path d="M523.494 458C512.729 458 504 449.266 504 438.491C504 427.715 512.729 419 523.494 419C534.246 419 543 427.715 543 438.491C543 449.266 534.246 458 523.494 458Z" fill="white"/>
<path d="M489.002 460C477.393 460 468 450.142 468 437.992C468 425.842 477.393 416 489.002 416C500.601 416 510 425.842 510 437.992C510 450.142 500.601 460 489.002 460Z" fill="white"/>
<path d="M455.502 460C443.611 460 434 450.142 434 437.994C434 425.845 443.611 416 455.502 416C467.383 416 477 425.845 477 437.994C477 450.142 467.383 460 455.502 460Z" fill="white"/>
<path d="M419.511 460C407.628 460 398 450.142 398 437.994C398 425.845 407.628 416 419.511 416C431.391 416 441 425.845 441 437.994C441 450.142 431.391 460 419.511 460Z" fill="white"/>
<path d="M385.5 460C373.615 460 364 450.142 364 437.994C364 425.845 373.615 416 385.5 416C397.385 416 407 425.845 407 437.994C407 450.142 397.385 460 385.5 460Z" fill="white"/>
<path d="M351.011 460C338.857 460 329 450.142 329 437.994C329 425.845 338.857 416 351.011 416C363.169 416 373 425.845 373 437.994C373 450.142 363.169 460 351.011 460Z" fill="white"/>
<path d="M315.513 459C304.187 459 295 449.604 295 437.998C295 426.396 304.187 417 315.513 417C326.816 417 336 426.396 336 437.998C336 449.604 326.816 459 315.513 459Z" fill="white"/>
<path d="M282.003 455C272.073 455 264 447.386 264 437.997C264 428.608 272.073 421 282.003 421C291.95 421 300 428.608 300 437.997C300 447.386 291.95 455 282.003 455Z" fill="white"/>
<path d="M247.008 454C238.724 454 232 447.06 232 438.497C232 429.937 238.724 423 247.008 423C255.28 423 262 429.937 262 438.497C262 447.06 255.28 454 247.008 454Z" fill="white"/>
<path d="M213.005 450C205.813 450 200 444.849 200 438.501C200 432.154 205.813 427 213.005 427C220.184 427 226 432.154 226 438.501C226 444.849 220.184 450 213.005 450Z" fill="white"/>
<path d="M177.994 448C173.021 448 169 443.517 169 438.002C169 432.49 173.021 428 177.994 428C182.973 428 187 432.49 187 438.002C187 443.517 182.973 448 177.994 448Z" fill="white"/>
<path d="M143.494 445C139.904 445 137 442.089 137 438.498C137 434.908 139.904 432 143.494 432C147.077 432 150 434.908 150 438.498C150 442.089 147.077 445 143.494 445Z" fill="white"/>
<path d="M731.496 475C730.667 475 730 474.112 730 473C730 471.892 730.667 471 731.496 471C732.33 471 733 471.892 733 473C733 474.112 732.33 475 731.496 475Z" fill="white"/>
<path d="M696.991 478C694.227 478 692 475.763 692 473.002C692 470.237 694.227 468 696.991 468C699.759 468 702 470.237 702 473.002C702 475.763 699.759 478 696.991 478Z" fill="white"/>
<path d="M662.502 480C658.357 480 655 476.862 655 473.001C655 469.135 658.357 466 662.502 466C666.643 466 670 469.135 670 473.001C670 476.862 666.643 480 662.502 480Z" fill="white"/>
<path d="M626.997 483C621.495 483 617 478.304 617 472.502C617 466.706 621.495 462 626.997 462C632.511 462 637 466.706 637 472.502C637 478.304 632.511 483 626.997 483Z" fill="white"/>
<path d="M593.495 486C586.598 486 581 480.175 581 473.002C581 465.828 586.598 460 593.495 460C600.414 460 606 465.828 606 473.002C606 480.175 600.414 486 593.495 486Z" fill="white"/>
<path d="M557.998 488C549.162 488 542 481.279 542 473.003C542 464.724 549.162 458 557.998 458C566.825 458 574 464.724 574 473.003C574 481.279 566.825 488 557.998 488Z" fill="white"/>
<path d="M523.497 490C513.284 490 505 482.158 505 472.497C505 462.833 513.284 455 523.497 455C533.713 455 542 462.833 542 472.497C542 482.158 533.713 490 523.497 490Z" fill="white"/>
<path d="M489.509 492C478.725 492 470 483.494 470 473.003C470 462.521 478.725 454 489.509 454C500.284 454 509 462.521 509 473.003C509 483.494 500.284 492 489.509 492Z" fill="white"/>
<path d="M455.5 496C443.611 496 434 485.918 434 473.495C434 461.066 443.611 451 455.5 451C467.38 451 477 461.066 477 473.495C477 485.918 467.38 496 455.5 496Z" fill="white"/>
<path d="M419.511 496C407.628 496 398 485.918 398 473.495C398 461.066 407.628 451 419.511 451C431.391 451 441 461.066 441 473.495C441 485.918 431.391 496 419.511 496Z" fill="white"/>
<path d="M385.5 496C373.615 496 364 485.918 364 473.495C364 461.066 373.615 451 385.5 451C397.385 451 407 461.066 407 473.495C407 485.918 397.385 496 385.5 496Z" fill="white"/>
<path d="M351.015 494C339.408 494 330 484.604 330 473.002C330 461.396 339.408 452 351.015 452C362.618 452 372 461.396 372 473.002C372 484.604 362.618 494 351.015 494Z" fill="white"/>
<path d="M316.011 491C306.063 491 298 482.947 298 473.006C298 463.072 306.063 455 316.011 455C325.94 455 334 463.072 334 473.006C334 482.947 325.94 491 316.011 491Z" fill="white"/>
<path d="M281.487 489C272.382 489 265 481.846 265 473.002C265 464.154 272.382 457 281.487 457C290.592 457 298 464.154 298 473.002C298 481.846 290.592 489 281.487 489Z" fill="white"/>
<path d="M246.508 487C239.045 487 233 480.738 233 473C233 465.268 239.045 459 246.508 459C253.959 459 260 465.268 260 473C260 480.738 253.959 487 246.508 487Z" fill="white"/>
<path d="M212.006 483C205.924 483 201 478.3 201 472.498C201 466.694 205.924 462 212.006 462C218.082 462 223 466.694 223 472.498C223 478.3 218.082 483 212.006 483Z" fill="white"/>
<path d="M176.998 481C172.579 481 169 477.413 169 473.002C169 468.587 172.579 465 176.998 465C181.433 465 185 468.587 185 473.002C185 477.413 181.433 481 176.998 481Z" fill="white"/>
<path d="M143.488 478C140.466 478 138 475.762 138 473.003C138 470.252 140.466 468 143.488 468C146.534 468 149 470.252 149 473.003C149 475.762 146.534 478 143.488 478Z" fill="white"/>
<path d="M731.986 509C731.425 509 731 508.769 731 508.497C731 508.216 731.425 508 731.986 508C732.542 508 733 508.216 733 508.497C733 508.769 732.542 509 731.986 509Z" fill="white"/>
<path d="M697.001 511C695.35 511 694 509.219 694 507.009C694 504.795 695.35 503 697.001 503C698.675 503 700 504.795 700 507.009C700 509.219 698.675 511 697.001 511Z" fill="white"/>
<path d="M663 514C659.681 514 657 511.32 657 508.006C657 504.688 659.681 502 663 502C666.319 502 669 504.688 669 508.006C669 511.32 666.319 514 663 514Z" fill="white"/>
<path d="M626.998 515C622.024 515 618 511.413 618 506.997C618 502.576 622.024 499 626.998 499C631.979 499 636 502.576 636 506.997C636 511.413 631.979 515 626.998 515Z" fill="white"/>
<path d="M593.488 518C587.693 518 583 513.083 583 507.003C583 500.93 587.693 496 593.488 496C599.284 496 604 500.93 604 507.003C604 513.083 599.284 518 593.488 518Z" fill="white"/>
<path d="M558.505 522C551.049 522 545 515.728 545 508.007C545 500.269 551.049 494 558.505 494C565.957 494 572 500.269 572 508.007C572 515.728 565.957 522 558.505 522Z" fill="white"/>
<path d="M524.505 522C515.935 522 509 515.071 509 506.508C509 497.957 515.935 491 524.505 491C533.068 491 540 497.957 540 506.508C540 515.071 533.068 522 524.505 522Z" fill="white"/>
<path d="M490.005 525C480.068 525 472 517.162 472 507.503C472 497.831 480.068 490 490.005 490C499.935 490 508 497.831 508 507.503C508 517.162 499.935 525 490.005 525Z" fill="white"/>
<path d="M454.495 527C444.258 527 436 518.496 436 508.001C436 497.491 444.258 489 454.495 489C464.713 489 473 497.491 473 508.001C473 518.496 464.713 527 454.495 527Z" fill="white"/>
<path d="M420.002 528C408.956 528 400 519.051 400 508.006C400 496.958 408.956 488 420.002 488C431.044 488 440 496.958 440 508.006C440 519.051 431.044 528 420.002 528Z" fill="white"/>
<path d="M385.5 527C375.274 527 367 518.488 367 507.995C367 497.502 375.274 489 385.5 489C395.726 489 404 497.502 404 507.995C404 518.488 395.726 527 385.5 527Z" fill="white"/>
<path d="M350.018 525C340.623 525 333 517.157 333 507.5C333 497.83 340.623 490 350.018 490C359.398 490 367 497.83 367 507.5C367 517.157 359.398 525 350.018 525Z" fill="white"/>
<path d="M316.497 523C307.385 523 300 515.833 300 506.999C300 498.149 307.385 491 316.497 491C325.611 491 333 498.149 333 506.999C333 515.833 325.611 523 316.497 523Z" fill="white"/>
<path d="M280.995 522C273.25 522 267 515.721 267 508C267 500.261 273.25 494 280.995 494C288.744 494 295 500.261 295 508C295 515.721 288.744 522 280.995 522Z" fill="white"/>
<path d="M246.502 520C239.597 520 234 514.623 234 508C234 501.365 239.597 496 246.502 496C253.403 496 259 501.365 259 508C259 514.623 253.403 520 246.502 520Z" fill="white"/>
<path d="M211.506 517C206.254 517 202 512.736 202 507.502C202 502.246 206.254 498 211.506 498C216.749 498 221 502.246 221 507.502C221 512.736 216.749 517 211.506 517Z" fill="white"/>
<path d="M177.994 515C174.128 515 171 511.864 171 508.001C171 504.137 174.128 501 177.994 501C181.865 501 185 504.137 185 508.001C185 511.864 181.865 515 177.994 515Z" fill="white"/>
<path d="M142.494 511C140.022 511 138 508.992 138 506.505C138 504.018 140.022 502 142.494 502C144.981 502 147 504.018 147 506.505C147 508.992 144.981 511 142.494 511Z" fill="white"/>
<path d="M108.979 509C107.889 509 107 508.549 107 508.002C107 507.447 107.889 507 108.979 507C110.084 507 111 507.447 111 508.002C111 508.549 110.084 509 108.979 509Z" fill="#221F1F"/>
<path d="M696.998 544C695.907 544 695 543.112 695 541.998C695 540.89 695.907 540 696.998 540C698.111 540 699 540.89 699 541.998C699 543.112 698.111 544 696.998 544Z" fill="white"/>
<path d="M662.503 546C660.018 546 658 544.217 658 542C658 539.803 660.018 538 662.503 538C664.988 538 667 539.803 667 542C667 544.217 664.988 546 662.503 546Z" fill="white"/>
<path d="M628.5 549C624.916 549 622 545.86 622 541.997C622 538.138 624.916 535 628.5 535C632.09 535 635 538.138 635 541.997C635 545.86 632.09 549 628.5 549Z" fill="white"/>
<path d="M593.498 552C588.255 552 584 547.745 584 542.495C584 537.258 588.255 533 593.498 533C598.738 533 603 537.258 603 542.495C603 547.745 598.738 552 593.498 552Z" fill="white"/>
<path d="M558.994 553C552.92 553 548 547.841 548 541.49C548 535.133 552.92 530 558.994 530C565.068 530 570 535.133 570 541.49C570 547.841 565.068 553 558.994 553Z" fill="white"/>
<path d="M523.494 555C516.59 555 511 549.188 511 542.005C511 534.836 516.59 529 523.494 529C530.392 529 536 534.836 536 542.005C536 549.188 530.392 555 523.494 555Z" fill="white"/>
<path d="M489.006 557C481.286 557 475 550.511 475 542.492C475 534.489 481.286 528 489.006 528C496.738 528 503 534.489 503 542.492C503 550.511 496.738 557 489.006 557Z" fill="white"/>
<path d="M454.503 557C445.929 557 439 550.296 439 542.002C439 533.728 445.929 527 454.503 527C463.065 527 470 533.728 470 542.002C470 550.296 463.065 557 454.503 557Z" fill="white"/>
<path d="M419.998 559C411.163 559 404 551.835 404 542.991C404 534.161 411.163 527 419.998 527C428.824 527 436 534.161 436 542.991C436 551.835 428.824 559 419.998 559Z" fill="white"/>
<path d="M385.508 559C376.4 559 369 551.829 369 542.992C369 534.158 376.4 527 385.508 527C394.62 527 402 534.158 402 542.992C402 551.829 394.62 559 385.508 559Z" fill="white"/>
<path d="M350.513 557C341.942 557 335 550.506 335 542.493C335 534.495 341.942 528 350.513 528C359.058 528 366 534.495 366 542.493C366 550.506 359.058 557 350.513 557Z" fill="white"/>
<path d="M316.006 556C308.263 556 302 549.969 302 542.5C302 535.051 308.263 529 316.006 529C323.724 529 330 535.051 330 542.5C330 549.969 323.724 556 316.006 556Z" fill="white"/>
<path d="M281.492 554C275.148 554 270 548.628 270 541.998C270 535.371 275.148 530 281.492 530C287.834 530 293 535.371 293 541.998C293 548.628 287.834 554 281.492 554Z" fill="white"/>
<path d="M247.992 552C242.449 552 238 547.522 238 541.997C238 536.475 242.449 532 247.992 532C253.519 532 258 536.475 258 541.997C258 547.522 253.519 552 247.992 552Z" fill="white"/>
<path d="M212.508 549C208.371 549 205 545.65 205 541.503C205 537.355 208.371 534 212.508 534C216.633 534 220 537.355 220 541.503C220 545.65 216.633 549 212.508 549Z" fill="white"/>
<path d="M177.491 548C173.894 548 171 545.082 171 541.501C171 537.904 173.894 535 177.491 535C181.087 535 184 537.904 184 541.501C184 545.082 181.087 548 177.491 548Z" fill="white"/>
<path d="M142.489 545C140.545 545 139 543.877 139 542.497C139 541.12 140.545 540 142.489 540C144.421 540 146 541.12 146 542.497C146 543.877 144.421 545 142.489 545Z" fill="white"/>
<path d="M663 580C661.354 580 660 578.652 660 576.995C660 575.345 661.354 574 663 574C664.666 574 666 575.345 666 576.995C666 578.652 664.666 580 663 580Z" fill="white"/>
<path d="M628.483 583C625.46 583 623 580.534 623 577.484C623 574.451 625.46 572 628.483 572C631.516 572 634 574.451 634 577.484C634 580.534 631.516 583 628.483 583Z" fill="white"/>
<path d="M593.988 584C589.57 584 586 580.852 586 576.992C586 573.134 589.57 570 593.988 570C598.402 570 602 573.134 602 576.992C602 580.852 598.402 584 593.988 584Z" fill="white"/>
<path d="M558.002 585C553.026 585 549 580.976 549 575.997C549 571.035 553.026 567 558.002 567C562.971 567 567 571.035 567 575.997C567 580.976 562.971 585 558.002 585Z" fill="white"/>
<path d="M524.494 588C518.703 588 514 583.072 514 576.99C514 570.922 518.703 566 524.494 566C530.278 566 535 570.922 535 576.99C535 583.072 530.278 588 524.494 588Z" fill="white"/>
<path d="M490.005 590C483.384 590 478 584.414 478 577.499C478 570.604 483.384 565 490.005 565C496.633 565 502 570.604 502 577.499C502 584.414 496.633 590 490.005 590Z" fill="white"/>
<path d="M454.509 590C447.047 590 441 584.187 441 576.999C441 569.828 447.047 564 454.509 564C461.967 564 468 569.828 468 576.999C468 584.187 461.967 590 454.509 590Z" fill="white"/>
<path d="M420.498 590C413.04 590 407 584.178 407 576.987C407 569.822 413.04 564 420.498 564C427.957 564 434 569.822 434 576.987C434 584.178 427.957 590 420.498 590Z" fill="white"/>
<path d="M385.498 590C378.595 590 373 584.191 373 576.998C373 569.822 378.595 564 385.498 564C392.399 564 398 569.822 398 576.998C398 584.191 392.399 590 385.498 590Z" fill="white"/>
<path d="M351.515 590C345.14 590 340 584.177 340 576.986C340 569.813 345.14 564 351.515 564C357.857 564 363 569.813 363 576.986C363 584.177 357.857 590 351.515 590Z" fill="white"/>
<path d="M316.508 588C310.697 588 306 582.849 306 576.493C306 570.143 310.697 565 316.508 565C322.315 565 327 570.143 327 576.493C327 582.849 322.315 588 316.508 588Z" fill="white"/>
<path d="M281.505 586C276.255 586 272 581.743 272 576.49C272 571.251 276.255 567 281.505 567C286.749 567 291 571.251 291 576.49C291 581.743 286.749 586 281.505 586Z" fill="white"/>
<path d="M246.503 584C242.362 584 239 580.642 239 576.494C239 572.363 242.362 569 246.503 569C250.653 569 254 572.363 254 576.494C254 580.642 250.653 584 246.503 584Z" fill="white"/>
<path d="M213.007 583C209.676 583 207 580.304 207 576.992C207 573.683 209.676 571 213.007 571C216.321 571 219 573.683 219 576.992C219 580.304 216.321 583 213.007 583Z" fill="white"/>
<path d="M178.001 580C176.341 580 175 578.426 175 576.488C175 574.556 176.341 573 178.001 573C179.659 573 181 574.556 181 576.488C181 578.426 179.659 580 178.001 580Z" fill="white"/>
<path d="M143.49 577C142.666 577 142 576.78 142 576.499C142 576.226 142.666 576 143.49 576C144.346 576 145 576.226 145 576.499C145 576.78 144.346 577 143.49 577Z" fill="white"/>
<path d="M662.506 612C661.663 612 661 611.774 661 611.494C661 611.226 661.663 611 662.506 611C663.361 611 664 611.226 664 611.494C664 611.774 663.361 612 662.506 612Z" fill="white"/>
<path d="M627.499 615C626.121 615 625 613.662 625 611.996C625 610.34 626.121 609 627.499 609C628.879 609 630 610.34 630 611.996C630 613.662 628.879 615 627.499 615Z" fill="white"/>
<path d="M593.992 616C591.777 616 590 613.979 590 611.491C590 609.015 591.777 607 593.992 607C596.205 607 598 609.015 598 611.491C598 613.979 596.205 616 593.992 616Z" fill="white"/>
<path d="M558.5 617C554.911 617 552 614.089 552 610.49C552 606.904 554.911 604 558.5 604C562.089 604 565 606.904 565 610.49C565 614.089 562.089 617 558.5 617Z" fill="white"/>
<path d="M523.003 619C518.593 619 515 615.42 515 610.992C515 606.577 518.593 603 523.003 603C527.413 603 531 606.577 531 610.992C531 615.42 527.413 619 523.003 619Z" fill="white"/>
<path d="M489.005 621C484.029 621 480 616.973 480 611.989C480 607.025 484.029 603 489.005 603C493.965 603 498 607.025 498 611.989C498 616.973 493.965 621 489.005 621Z" fill="white"/>
<path d="M455.503 622C450.244 622 446 617.735 446 612.487C446 607.253 450.244 603 455.503 603C460.75 603 465 607.253 465 612.487C465 617.735 460.75 622 455.503 622Z" fill="white"/>
<path d="M419.5 622C414.252 622 410 617.529 410 611.993C410 606.467 414.252 602 419.5 602C424.745 602 429 606.467 429 611.993C429 617.529 424.745 622 419.5 622Z" fill="white"/>
<path d="M385.501 622C380.244 622 376 617.513 376 611.986C376 606.468 380.244 602 385.501 602C390.743 602 395 606.468 395 611.986C395 617.513 390.743 622 385.501 622Z" fill="white"/>
<path d="M351.005 622C345.491 622 341 617.746 341 612.492C341 607.257 345.491 603 351.005 603C356.512 603 361 607.257 361 612.492C361 617.746 356.512 622 351.005 622Z" fill="white"/>
<path d="M316.01 621C311.048 621 307 616.962 307 611.989C307 607.028 311.048 603 316.01 603C320.983 603 325 607.028 325 611.989C325 616.962 320.983 621 316.01 621Z" fill="white"/>
<path d="M281.503 619C277.362 619 274 615.648 274 611.499C274 607.367 277.362 604 281.503 604C285.652 604 289 607.367 289 611.499C289 615.648 285.652 619 281.503 619Z" fill="white"/>
<path d="M246.497 616C243.463 616 241 613.546 241 610.495C241 607.46 243.463 605 246.497 605C249.515 605 252 607.46 252 610.495C252 613.546 249.515 616 246.497 616Z" fill="white"/>
<path d="M212.495 615C210.569 615 209 613.427 209 611.493C209 609.567 210.569 608 212.495 608C214.409 608 216 609.567 216 611.493C216 613.427 214.409 615 212.495 615Z" fill="white"/>
<path d="M177.499 614C177.226 614 177 612.862 177 611.481C177 610.116 177.226 609 177.499 609C177.777 609 178 610.116 178 611.481C178 612.862 177.777 614 177.499 614Z" fill="white"/>
<path d="M628.488 647C628.223 647 628 646.77 628 646.497C628 646.223 628.223 646 628.488 646C628.782 646 629 646.223 629 646.497C629 646.77 628.782 647 628.488 647Z" fill="white"/>
<path d="M593.49 648C592.118 648 591 646.889 591 645.501C591 644.125 592.118 643 593.49 643C594.878 643 596 644.125 596 645.501C596 646.889 594.878 648 593.49 648Z" fill="white"/>
<path d="M558.494 650C556.561 650 555 648.431 555 646.499C555 644.567 556.561 643 558.494 643C560.428 643 562 644.567 562 646.499C562 648.431 560.428 650 558.494 650Z" fill="white"/>
<path d="M524.503 651C522.009 651 520 648.967 520 646.491C520 644.016 522.009 642 524.503 642C526.986 642 529 644.016 529 646.491C529 648.967 526.986 651 524.503 651Z" fill="white"/>
<path d="M489.508 653C485.912 653 483 650.088 483 646.498C483 642.903 485.912 640 489.508 640C493.088 640 496 642.903 496 646.498C496 650.088 493.088 653 489.508 653Z" fill="white"/>
<path d="M454.514 653C450.914 653 448 649.861 448 645.995C448 642.13 450.914 639 454.514 639C458.098 639 461 642.13 461 645.995C461 649.861 458.098 653 454.514 653Z" fill="white"/>
<path d="M421 653C417.132 653 414 649.857 414 645.994C414 642.128 417.132 639 421 639C424.861 639 428 642.128 428 645.994C428 649.857 424.861 653 421 653Z" fill="white"/>
<path d="M385.505 653C381.357 653 378 649.858 378 645.993C378 642.13 381.357 639 385.505 639C389.632 639 393 642.13 393 645.993C393 649.858 389.632 653 385.505 653Z" fill="white"/>
<path d="M351.004 653C347.692 653 345 649.867 345 645.999C345 642.129 347.692 639 351.004 639C354.311 639 357 642.129 357 645.999C357 649.867 354.311 653 351.004 653Z" fill="white"/>
<path d="M316.513 651C313.466 651 311 648.544 311 645.501C311 642.472 313.466 640 316.513 640C319.531 640 322 642.472 322 645.501C322 648.544 319.531 651 316.513 651Z" fill="white"/>
<path d="M281.99 650C279.775 650 278 648.218 278 646.001C278 643.794 279.775 642 281.99 642C284.205 642 286 643.794 286 646.001C286 648.218 284.205 650 281.99 650Z" fill="white"/>
<path d="M247.007 649C245.344 649 244 647.666 244 646.001C244 644.34 245.344 643 247.007 643C248.666 643 250 644.34 250 646.001C250 647.666 248.666 649 247.007 649Z" fill="white"/>
<path d="M212.504 647C212.221 647 212 646.552 212 645.998C212 645.446 212.221 645 212.504 645C212.779 645 213 645.446 213 645.998C213 646.552 212.779 647 212.504 647Z" fill="white"/>
<path d="M558.504 681C557.687 681 557 680.562 557 679.99C557 679.444 557.687 679 558.504 679C559.342 679 560 679.444 560 679.99C560 680.562 559.342 681 558.504 681Z" fill="white"/>
<path d="M524.493 684C523.106 684 522 682.658 522 680.98C522 679.347 523.106 678 524.493 678C525.875 678 527 679.347 527 680.98C527 682.658 525.875 684 524.493 684Z" fill="white"/>
<path d="M489.003 684C487.334 684 486 682.429 486 680.488C486 678.575 487.334 677 489.003 677C490.663 677 492 678.575 492 680.488C492 682.429 490.663 684 489.003 684Z" fill="white"/>
<path d="M455.003 685C452.798 685 451 683.22 451 680.987C451 678.794 452.798 677 455.003 677C457.202 677 459 678.794 459 680.987C459 683.22 457.202 685 455.003 685Z" fill="white"/>
<path d="M420.003 685C417.788 685 416 683.207 416 680.984C416 678.791 417.788 677 420.003 677C422.197 677 424 678.791 424 680.984C424 683.207 422.197 685 420.003 685Z" fill="white"/>
<path d="M385.499 685C383.563 685 382 683.2 382 680.984C382 678.789 383.563 677 385.499 677C387.434 677 389 678.789 389 680.984C389 683.2 387.434 685 385.499 685Z" fill="white"/>
<path d="M350.506 684C348.557 684 347 682.429 347 680.484C347 678.565 348.557 677 350.506 677C352.434 677 354 678.565 354 680.484C354 682.429 352.434 684 350.506 684Z" fill="white"/>
<path d="M316.498 684C314.554 684 313 682.655 313 680.982C313 679.348 314.554 678 316.498 678C318.409 678 320 679.348 320 680.982C320 682.655 318.409 684 316.498 684Z" fill="white"/>
<path d="M281.503 684C280.68 684 280 682.864 280 681.483C280 680.126 280.68 679 281.503 679C282.337 679 283 680.126 283 681.483C283 682.864 282.337 684 281.503 684Z" fill="white"/>
<path d="M420.499 717C420.221 717 420 716.555 420 715.994C420 715.458 420.221 715 420.499 715C420.776 715 421 715.458 421 715.994C421 716.555 420.776 717 420.499 717Z" fill="white"/>
<path d="M385.499 717C385.214 717 385 716.546 385 715.987C385 715.446 385.214 715 385.499 715C385.777 715 386 715.446 386 715.987C386 716.546 385.777 717 385.499 717Z" fill="white"/>
<path d="M601.586 379C597.51 379 593.626 378.603 590 377.822L646 366C641.839 368.796 636.754 371.376 630.69 373.774L630.202 373.974L629.641 374.146C619.268 377.37 609.821 379 601.586 379Z" fill="white"/>
<path d="M626.997 275C621.471 275 617 270.741 617 265.464C617 264.479 617.156 263.53 617.449 262.634L628.08 256C633.098 256.515 637 260.56 637 265.464C637 270.741 632.526 275 626.997 275Z" fill="white"/>
<path d="M600.642 275L600 274.439L603 272C602.334 273.137 601.541 274.147 600.642 275Z" fill="white"/>
<path d="M638.856 301L623 290.297C624.55 289.468 626.332 289 628.23 289C634.171 289 639 293.607 639 299.316C639 299.889 638.95 300.451 638.856 301Z" fill="white"/>
<path d="M662.736 164C661.24 164 660 162.662 660 161C660 159.338 661.24 158 662.736 158C663.679 158 664.512 158.521 665 159.316C664.915 160.56 664.825 161.808 664.74 163.039C664.244 163.632 663.528 164 662.736 164Z" fill="white"/>
<path d="M628 165C625.252 165 623 163.21 623 160.999C623 158.796 625.252 157 628 157C630.756 157 633 158.796 633 160.999C633 163.21 630.756 165 628 165Z" fill="white"/>
<path d="M592.998 168C589.132 168 586 165.079 586 161.494C586 157.899 589.132 155 592.998 155C596.868 155 600 157.899 600 161.494C600 165.079 596.868 168 592.998 168Z" fill="white"/>
<path d="M660.44 199C659.019 198.432 658 196.892 658 195.083C658 193.05 659.295 191.351 661 191C660.811 193.706 660.624 196.366 660.44 199Z" fill="white"/>
<path d="M634.569 199L622 195.763C622.265 191.977 625.07 189 628.487 189C632.077 189 635 192.291 635 196.352C635 197.288 634.847 198.18 634.569 199Z" fill="white"/>
<path d="M600 190L590 187.788C591.079 187.283 592.287 187 593.567 187C596.172 187 598.492 188.17 600 190Z" fill="white"/>
<path d="M761 393.483L640.814 308.926L735.94 246.685L612.338 218.596L700.118 51.1892L525.208 146.47L524.706 10.0934L428.447 144.436L354.614 0L316.453 122.997L213.286 4.05505L216.638 159.502L124.584 115.199L167.645 211.7L0 203.568L146.531 299.999L26.4681 382.27L170.868 381.655L82.334 564.897L245.613 465.325L214.795 613.242L328.522 470.263L369.361 619L428.301 482.277L492.082 550.648L530.736 441.72L651.342 519.582L616.388 424.226L761 393.483Z" fill="#221F1F"/>
<path d="M322.369 145.255L228.291 36.5449L231.295 176.088L153.256 138.442L189.957 220.867L51 214.113L171.915 293.865L72.4145 362.196L193.466 361.688L115.994 522.387L266.045 430.678L240.708 552.538L334.711 434.09L372.216 571L422.308 454.552L491.126 523.123L524.287 415.246L623.258 479.291L597.213 408.063L726 380.62L615.368 302.619L700.018 247.104L591.021 222.277L665.665 79.5878L510.952 164.058L510.52 47.4957L426.268 165.358L357.74 31L322.369 145.255Z" fill="#E12038"/>
<g opacity="0.9">
<mask id="path-313-outside-1" maskUnits="userSpaceOnUse" x="102" y="68" width="570" height="390" fill="black">
<rect fill="white" x="102" y="68" width="570" height="390"/>
<path d="M231.726 319.153C231.726 313.146 227.721 308.679 219.709 305.751C217.388 304.85 213.606 304.4 208.365 304.4H205.445C200.803 304.625 194.513 305.826 186.576 308.004L194.663 312.17C191.967 316.9 189.159 322.794 186.239 329.851C186.015 330.377 184.517 334.431 181.747 342.014L191.406 341.676C201.439 341.451 209.9 339.987 216.789 337.284C226.747 333.38 231.726 327.336 231.726 319.153ZM208.365 384.245C208.365 378.164 204.397 373.697 196.46 370.844C194.064 369.943 190.245 369.492 185.004 369.492H182.084C181.634 369.492 180.998 369.417 180.174 369.267C179.351 369.117 178.789 369.042 178.49 369.042C177.516 369.042 175.794 369.455 173.323 370.281L171.077 377.263C168.831 381.768 166.098 387.661 162.878 394.944C162.354 396.295 160.894 400.312 158.498 406.994L168.157 406.881C178.04 406.581 186.427 405.079 193.315 402.377C203.348 398.473 208.365 392.429 208.365 384.245ZM237.23 361.834C241.573 370.093 243.744 375.874 243.744 379.177C243.744 381.58 243.407 384.508 242.733 387.962C237.791 413.413 221.768 429.179 194.663 435.261C193.54 435.411 183.993 436.462 166.023 438.414L139.405 441.342C129.671 442.468 120.536 443.594 112 444.721C117.241 424.449 123.493 403.54 130.756 381.993C135.249 368.404 142.325 351.023 151.984 329.851C153.93 325.647 156.738 319.941 160.407 312.733C157.262 313.709 154.529 314.498 152.208 315.098L144.009 276.583C163.252 273.655 179.875 272.191 193.877 272.191C197.096 272.191 200.728 272.379 204.771 272.754C215.853 273.58 222.217 274.143 223.864 274.444C229.705 275.345 236.219 277.372 243.407 280.525C259.131 287.057 266.993 298.281 266.993 314.197C266.993 316.525 266.656 319.415 265.982 322.869C262.987 338.56 253.403 351.549 237.23 361.834Z"/>
<path d="M424.12 307.215L414.461 313.634C417.605 322.719 419.178 330.489 419.178 336.946C419.178 341.601 418.467 348.095 417.044 356.429C412.551 382.706 402.818 403.615 387.842 419.156C371.445 436.199 350.517 444.721 325.059 444.721C304.244 444.721 287.996 437.513 276.315 423.098C265.533 409.734 260.142 392.391 260.142 371.069C260.142 366.489 260.404 361.609 260.928 356.429C263.623 333.605 273.582 313.935 290.803 297.418C308.474 280.6 328.653 272.191 351.34 272.191C385.634 272.191 409.893 283.866 424.12 307.215ZM379.307 360.596C379.906 357.367 380.205 354.777 380.205 352.825C380.205 344.116 377.584 337.434 372.343 332.779L379.307 328.838C373.242 316.375 362.946 310.143 348.42 310.143C333.67 310.143 321.353 314.911 311.469 324.446C302.184 333.53 296.419 345.58 294.173 360.596C293.649 364.049 293.387 366.977 293.387 369.38C293.387 380.641 296.681 390.289 303.27 398.322C310.234 406.806 319.219 411.048 330.225 411.048C343.478 411.048 354.598 405.83 363.583 395.394C371.594 386.085 376.836 374.485 379.307 360.596Z"/>
<path d="M433.217 413.075L437.036 400.237C437.934 397.309 439.844 391.34 442.764 382.331C447.256 368.817 454.332 351.436 463.991 330.189C466.387 324.633 470.168 316.788 475.335 306.652C467.173 308.004 454.781 309.843 438.159 312.17L448.042 278.385C459.798 277.334 474.586 276.095 492.406 274.669C511.05 273.242 527.411 272.417 541.487 272.191L531.155 304.963C516.778 304.963 505.397 305.113 497.011 305.413L506.783 310.706C504.536 315.061 501.691 321.555 498.247 330.189C493.979 340.775 488.064 358.156 480.501 382.331C477.806 391.265 475.222 400.537 472.751 410.147C475.148 409.997 479.303 409.772 485.218 409.471L502.627 408.796L492.294 441.68C474.773 441.68 463.355 441.83 458.038 442.13C449.428 442.731 429.848 445.021 399.298 449L409.182 415.102L420.413 413.976C423.633 413.751 427.901 413.451 433.217 413.075Z"/>
<path d="M571.475 342.577C575.518 338.748 580.311 334.243 585.851 329.063C597.158 318.552 605.506 310.293 610.897 304.287C607.453 304.587 598.58 305.451 584.279 306.877L555.976 309.58C551.184 310.106 543.771 310.969 533.738 312.17L543.621 278.385C559.196 277.184 577.802 275.945 599.441 274.669C612.32 273.918 633.173 273.092 662 272.191L651.667 304.963C645.228 314.423 635.157 326.323 621.455 340.662L629.541 340.325L620.669 365.1L596.409 366.001L579.113 383.457C569.828 392.691 561.966 400.875 555.527 408.007C568.555 407.257 592.141 405.53 626.284 402.827L615.614 435.373C604.383 436.049 589.97 436.762 572.374 437.513C560.394 437.513 538.418 440.141 506.446 445.396C508.392 439.165 510.339 432.708 512.286 426.026L517.452 408.796C519.399 402.039 525.09 393.104 534.524 381.993C537.819 378.014 542.049 373.321 547.215 367.916L533.176 368.479L543.172 343.703L571.475 342.577Z"/>
<path d="M235.408 146.611L213.394 206.636C232.038 202.281 249.222 192.033 264.946 175.891C277.6 162.678 283.927 148.976 283.927 134.786C283.927 120.446 281.194 112.3 275.728 110.348C269.589 108.171 264.572 107.082 260.678 107.082H260.229C249.896 107.533 241.735 108.621 235.745 110.348L248.324 116.767C247.201 118.719 244.393 124.613 239.9 134.448C239.077 136.851 237.579 140.905 235.408 146.611ZM211.822 241.097L203.398 243.687C190.07 245.489 177.491 246.69 165.661 247.29C167.458 241.96 172.4 227.432 180.486 203.708C184.455 191.92 190.557 174.352 198.794 151.003C202.313 141.468 208.041 129.155 215.977 114.065C213.507 115.641 210.137 117.518 205.869 119.695L197.67 81.1804C216.913 78.2523 233.536 76.7883 247.538 76.7883C250.757 76.7883 254.389 76.976 258.432 77.3514C269.514 78.1773 275.878 78.7403 277.525 79.0407C283.366 79.9416 289.88 81.9687 297.068 85.122C312.792 91.6538 320.654 102.878 320.654 118.794C320.654 121.798 320.317 124.688 319.643 127.466C313.279 182.273 277.338 220.15 211.822 241.097Z"/>
<path d="M406.012 112.938C402.119 118.344 394.07 131.408 381.865 152.129L371.757 169.247L394.556 168.796L399.723 172.851C404.065 163.391 406.237 146.01 406.237 120.709C406.237 116.88 406.162 114.29 406.012 112.938ZM394.444 194.135L360.301 195.824C353.337 207.011 346.935 221.576 341.095 239.52L298.528 249.993C299.726 245.338 305.267 233.026 315.15 213.055L325.371 192.221C335.03 172.55 350.192 148.338 370.858 119.583C382.164 103.666 393.358 89.5891 404.44 77.3514C410.954 77.1262 420.613 76.6757 433.417 76L434.428 90.415C435.101 101.301 435.438 111.775 435.438 121.835C435.438 141.581 433.978 159.975 431.058 177.017C430.085 179.945 427.839 192.183 424.319 213.731C422.897 222.665 421.474 229.947 420.051 235.578L377.485 245.939C380.48 236.254 386.133 218.986 394.444 194.135Z"/>
</mask>
<path d="M231.726 319.153C231.726 313.146 227.721 308.679 219.709 305.751C217.388 304.85 213.606 304.4 208.365 304.4H205.445C200.803 304.625 194.513 305.826 186.576 308.004L194.663 312.17C191.967 316.9 189.159 322.794 186.239 329.851C186.015 330.377 184.517 334.431 181.747 342.014L191.406 341.676C201.439 341.451 209.9 339.987 216.789 337.284C226.747 333.38 231.726 327.336 231.726 319.153ZM208.365 384.245C208.365 378.164 204.397 373.697 196.46 370.844C194.064 369.943 190.245 369.492 185.004 369.492H182.084C181.634 369.492 180.998 369.417 180.174 369.267C179.351 369.117 178.789 369.042 178.49 369.042C177.516 369.042 175.794 369.455 173.323 370.281L171.077 377.263C168.831 381.768 166.098 387.661 162.878 394.944C162.354 396.295 160.894 400.312 158.498 406.994L168.157 406.881C178.04 406.581 186.427 405.079 193.315 402.377C203.348 398.473 208.365 392.429 208.365 384.245ZM237.23 361.834C241.573 370.093 243.744 375.874 243.744 379.177C243.744 381.58 243.407 384.508 242.733 387.962C237.791 413.413 221.768 429.179 194.663 435.261C193.54 435.411 183.993 436.462 166.023 438.414L139.405 441.342C129.671 442.468 120.536 443.594 112 444.721C117.241 424.449 123.493 403.54 130.756 381.993C135.249 368.404 142.325 351.023 151.984 329.851C153.93 325.647 156.738 319.941 160.407 312.733C157.262 313.709 154.529 314.498 152.208 315.098L144.009 276.583C163.252 273.655 179.875 272.191 193.877 272.191C197.096 272.191 200.728 272.379 204.771 272.754C215.853 273.58 222.217 274.143 223.864 274.444C229.705 275.345 236.219 277.372 243.407 280.525C259.131 287.057 266.993 298.281 266.993 314.197C266.993 316.525 266.656 319.415 265.982 322.869C262.987 338.56 253.403 351.549 237.23 361.834Z" fill="white"/>
<path d="M424.12 307.215L414.461 313.634C417.605 322.719 419.178 330.489 419.178 336.946C419.178 341.601 418.467 348.095 417.044 356.429C412.551 382.706 402.818 403.615 387.842 419.156C371.445 436.199 350.517 444.721 325.059 444.721C304.244 444.721 287.996 437.513 276.315 423.098C265.533 409.734 260.142 392.391 260.142 371.069C260.142 366.489 260.404 361.609 260.928 356.429C263.623 333.605 273.582 313.935 290.803 297.418C308.474 280.6 328.653 272.191 351.34 272.191C385.634 272.191 409.893 283.866 424.12 307.215ZM379.307 360.596C379.906 357.367 380.205 354.777 380.205 352.825C380.205 344.116 377.584 337.434 372.343 332.779L379.307 328.838C373.242 316.375 362.946 310.143 348.42 310.143C333.67 310.143 321.353 314.911 311.469 324.446C302.184 333.53 296.419 345.58 294.173 360.596C293.649 364.049 293.387 366.977 293.387 369.38C293.387 380.641 296.681 390.289 303.27 398.322C310.234 406.806 319.219 411.048 330.225 411.048C343.478 411.048 354.598 405.83 363.583 395.394C371.594 386.085 376.836 374.485 379.307 360.596Z" fill="white"/>
<path d="M433.217 413.075L437.036 400.237C437.934 397.309 439.844 391.34 442.764 382.331C447.256 368.817 454.332 351.436 463.991 330.189C466.387 324.633 470.168 316.788 475.335 306.652C467.173 308.004 454.781 309.843 438.159 312.17L448.042 278.385C459.798 277.334 474.586 276.095 492.406 274.669C511.05 273.242 527.411 272.417 541.487 272.191L531.155 304.963C516.778 304.963 505.397 305.113 497.011 305.413L506.783 310.706C504.536 315.061 501.691 321.555 498.247 330.189C493.979 340.775 488.064 358.156 480.501 382.331C477.806 391.265 475.222 400.537 472.751 410.147C475.148 409.997 479.303 409.772 485.218 409.471L502.627 408.796L492.294 441.68C474.773 441.68 463.355 441.83 458.038 442.13C449.428 442.731 429.848 445.021 399.298 449L409.182 415.102L420.413 413.976C423.633 413.751 427.901 413.451 433.217 413.075Z" fill="white"/>
<path d="M571.475 342.577C575.518 338.748 580.311 334.243 585.851 329.063C597.158 318.552 605.506 310.293 610.897 304.287C607.453 304.587 598.58 305.451 584.279 306.877L555.976 309.58C551.184 310.106 543.771 310.969 533.738 312.17L543.621 278.385C559.196 277.184 577.802 275.945 599.441 274.669C612.32 273.918 633.173 273.092 662 272.191L651.667 304.963C645.228 314.423 635.157 326.323 621.455 340.662L629.541 340.325L620.669 365.1L596.409 366.001L579.113 383.457C569.828 392.691 561.966 400.875 555.527 408.007C568.555 407.257 592.141 405.53 626.284 402.827L615.614 435.373C604.383 436.049 589.97 436.762 572.374 437.513C560.394 437.513 538.418 440.141 506.446 445.396C508.392 439.165 510.339 432.708 512.286 426.026L517.452 408.796C519.399 402.039 525.09 393.104 534.524 381.993C537.819 378.014 542.049 373.321 547.215 367.916L533.176 368.479L543.172 343.703L571.475 342.577Z" fill="white"/>
<path d="M235.408 146.611L213.394 206.636C232.038 202.281 249.222 192.033 264.946 175.891C277.6 162.678 283.927 148.976 283.927 134.786C283.927 120.446 281.194 112.3 275.728 110.348C269.589 108.171 264.572 107.082 260.678 107.082H260.229C249.896 107.533 241.735 108.621 235.745 110.348L248.324 116.767C247.201 118.719 244.393 124.613 239.9 134.448C239.077 136.851 237.579 140.905 235.408 146.611ZM211.822 241.097L203.398 243.687C190.07 245.489 177.491 246.69 165.661 247.29C167.458 241.96 172.4 227.432 180.486 203.708C184.455 191.92 190.557 174.352 198.794 151.003C202.313 141.468 208.041 129.155 215.977 114.065C213.507 115.641 210.137 117.518 205.869 119.695L197.67 81.1804C216.913 78.2523 233.536 76.7883 247.538 76.7883C250.757 76.7883 254.389 76.976 258.432 77.3514C269.514 78.1773 275.878 78.7403 277.525 79.0407C283.366 79.9416 289.88 81.9687 297.068 85.122C312.792 91.6538 320.654 102.878 320.654 118.794C320.654 121.798 320.317 124.688 319.643 127.466C313.279 182.273 277.338 220.15 211.822 241.097Z" fill="white"/>
<path d="M406.012 112.938C402.119 118.344 394.07 131.408 381.865 152.129L371.757 169.247L394.556 168.796L399.723 172.851C404.065 163.391 406.237 146.01 406.237 120.709C406.237 116.88 406.162 114.29 406.012 112.938ZM394.444 194.135L360.301 195.824C353.337 207.011 346.935 221.576 341.095 239.52L298.528 249.993C299.726 245.338 305.267 233.026 315.15 213.055L325.371 192.221C335.03 172.55 350.192 148.338 370.858 119.583C382.164 103.666 393.358 89.5891 404.44 77.3514C410.954 77.1262 420.613 76.6757 433.417 76L434.428 90.415C435.101 101.301 435.438 111.775 435.438 121.835C435.438 141.581 433.978 159.975 431.058 177.017C430.085 179.945 427.839 192.183 424.319 213.731C422.897 222.665 421.474 229.947 420.051 235.578L377.485 245.939C380.48 236.254 386.133 218.986 394.444 194.135Z" fill="white"/>
<path d="M231.726 319.153C231.726 313.146 227.721 308.679 219.709 305.751C217.388 304.85 213.606 304.4 208.365 304.4H205.445C200.803 304.625 194.513 305.826 186.576 308.004L194.663 312.17C191.967 316.9 189.159 322.794 186.239 329.851C186.015 330.377 184.517 334.431 181.747 342.014L191.406 341.676C201.439 341.451 209.9 339.987 216.789 337.284C226.747 333.38 231.726 327.336 231.726 319.153ZM208.365 384.245C208.365 378.164 204.397 373.697 196.46 370.844C194.064 369.943 190.245 369.492 185.004 369.492H182.084C181.634 369.492 180.998 369.417 180.174 369.267C179.351 369.117 178.789 369.042 178.49 369.042C177.516 369.042 175.794 369.455 173.323 370.281L171.077 377.263C168.831 381.768 166.098 387.661 162.878 394.944C162.354 396.295 160.894 400.312 158.498 406.994L168.157 406.881C178.04 406.581 186.427 405.079 193.315 402.377C203.348 398.473 208.365 392.429 208.365 384.245ZM237.23 361.834C241.573 370.093 243.744 375.874 243.744 379.177C243.744 381.58 243.407 384.508 242.733 387.962C237.791 413.413 221.768 429.179 194.663 435.261C193.54 435.411 183.993 436.462 166.023 438.414L139.405 441.342C129.671 442.468 120.536 443.594 112 444.721C117.241 424.449 123.493 403.54 130.756 381.993C135.249 368.404 142.325 351.023 151.984 329.851C153.93 325.647 156.738 319.941 160.407 312.733C157.262 313.709 154.529 314.498 152.208 315.098L144.009 276.583C163.252 273.655 179.875 272.191 193.877 272.191C197.096 272.191 200.728 272.379 204.771 272.754C215.853 273.58 222.217 274.143 223.864 274.444C229.705 275.345 236.219 277.372 243.407 280.525C259.131 287.057 266.993 298.281 266.993 314.197C266.993 316.525 266.656 319.415 265.982 322.869C262.987 338.56 253.403 351.549 237.23 361.834Z" stroke="black" stroke-width="14" mask="url(#path-313-outside-1)"/>
<path d="M424.12 307.215L414.461 313.634C417.605 322.719 419.178 330.489 419.178 336.946C419.178 341.601 418.467 348.095 417.044 356.429C412.551 382.706 402.818 403.615 387.842 419.156C371.445 436.199 350.517 444.721 325.059 444.721C304.244 444.721 287.996 437.513 276.315 423.098C265.533 409.734 260.142 392.391 260.142 371.069C260.142 366.489 260.404 361.609 260.928 356.429C263.623 333.605 273.582 313.935 290.803 297.418C308.474 280.6 328.653 272.191 351.34 272.191C385.634 272.191 409.893 283.866 424.12 307.215ZM379.307 360.596C379.906 357.367 380.205 354.777 380.205 352.825C380.205 344.116 377.584 337.434 372.343 332.779L379.307 328.838C373.242 316.375 362.946 310.143 348.42 310.143C333.67 310.143 321.353 314.911 311.469 324.446C302.184 333.53 296.419 345.58 294.173 360.596C293.649 364.049 293.387 366.977 293.387 369.38C293.387 380.641 296.681 390.289 303.27 398.322C310.234 406.806 319.219 411.048 330.225 411.048C343.478 411.048 354.598 405.83 363.583 395.394C371.594 386.085 376.836 374.485 379.307 360.596Z" stroke="black" stroke-width="14" mask="url(#path-313-outside-1)"/>
<path d="M433.217 413.075L437.036 400.237C437.934 397.309 439.844 391.34 442.764 382.331C447.256 368.817 454.332 351.436 463.991 330.189C466.387 324.633 470.168 316.788 475.335 306.652C467.173 308.004 454.781 309.843 438.159 312.17L448.042 278.385C459.798 277.334 474.586 276.095 492.406 274.669C511.05 273.242 527.411 272.417 541.487 272.191L531.155 304.963C516.778 304.963 505.397 305.113 497.011 305.413L506.783 310.706C504.536 315.061 501.691 321.555 498.247 330.189C493.979 340.775 488.064 358.156 480.501 382.331C477.806 391.265 475.222 400.537 472.751 410.147C475.148 409.997 479.303 409.772 485.218 409.471L502.627 408.796L492.294 441.68C474.773 441.68 463.355 441.83 458.038 442.13C449.428 442.731 429.848 445.021 399.298 449L409.182 415.102L420.413 413.976C423.633 413.751 427.901 413.451 433.217 413.075Z" stroke="black" stroke-width="14" mask="url(#path-313-outside-1)"/>
<path d="M571.475 342.577C575.518 338.748 580.311 334.243 585.851 329.063C597.158 318.552 605.506 310.293 610.897 304.287C607.453 304.587 598.58 305.451 584.279 306.877L555.976 309.58C551.184 310.106 543.771 310.969 533.738 312.17L543.621 278.385C559.196 277.184 577.802 275.945 599.441 274.669C612.32 273.918 633.173 273.092 662 272.191L651.667 304.963C645.228 314.423 635.157 326.323 621.455 340.662L629.541 340.325L620.669 365.1L596.409 366.001L579.113 383.457C569.828 392.691 561.966 400.875 555.527 408.007C568.555 407.257 592.141 405.53 626.284 402.827L615.614 435.373C604.383 436.049 589.97 436.762 572.374 437.513C560.394 437.513 538.418 440.141 506.446 445.396C508.392 439.165 510.339 432.708 512.286 426.026L517.452 408.796C519.399 402.039 525.09 393.104 534.524 381.993C537.819 378.014 542.049 373.321 547.215 367.916L533.176 368.479L543.172 343.703L571.475 342.577Z" stroke="black" stroke-width="14" mask="url(#path-313-outside-1)"/>
<path d="M235.408 146.611L213.394 206.636C232.038 202.281 249.222 192.033 264.946 175.891C277.6 162.678 283.927 148.976 283.927 134.786C283.927 120.446 281.194 112.3 275.728 110.348C269.589 108.171 264.572 107.082 260.678 107.082H260.229C249.896 107.533 241.735 108.621 235.745 110.348L248.324 116.767C247.201 118.719 244.393 124.613 239.9 134.448C239.077 136.851 237.579 140.905 235.408 146.611ZM211.822 241.097L203.398 243.687C190.07 245.489 177.491 246.69 165.661 247.29C167.458 241.96 172.4 227.432 180.486 203.708C184.455 191.92 190.557 174.352 198.794 151.003C202.313 141.468 208.041 129.155 215.977 114.065C213.507 115.641 210.137 117.518 205.869 119.695L197.67 81.1804C216.913 78.2523 233.536 76.7883 247.538 76.7883C250.757 76.7883 254.389 76.976 258.432 77.3514C269.514 78.1773 275.878 78.7403 277.525 79.0407C283.366 79.9416 289.88 81.9687 297.068 85.122C312.792 91.6538 320.654 102.878 320.654 118.794C320.654 121.798 320.317 124.688 319.643 127.466C313.279 182.273 277.338 220.15 211.822 241.097Z" stroke="black" stroke-width="14" mask="url(#path-313-outside-1)"/>
<path d="M406.012 112.938C402.119 118.344 394.07 131.408 381.865 152.129L371.757 169.247L394.556 168.796L399.723 172.851C404.065 163.391 406.237 146.01 406.237 120.709C406.237 116.88 406.162 114.29 406.012 112.938ZM394.444 194.135L360.301 195.824C353.337 207.011 346.935 221.576 341.095 239.52L298.528 249.993C299.726 245.338 305.267 233.026 315.15 213.055L325.371 192.221C335.03 172.55 350.192 148.338 370.858 119.583C382.164 103.666 393.358 89.5891 404.44 77.3514C410.954 77.1262 420.613 76.6757 433.417 76L434.428 90.415C435.101 101.301 435.438 111.775 435.438 121.835C435.438 141.581 433.978 159.975 431.058 177.017C430.085 179.945 427.839 192.183 424.319 213.731C422.897 222.665 421.474 229.947 420.051 235.578L377.485 245.939C380.48 236.254 386.133 218.986 394.444 194.135Z" stroke="black" stroke-width="14" mask="url(#path-313-outside-1)"/>
</g>
<g opacity="0.9">
<mask id="path-314-outside-2" maskUnits="userSpaceOnUse" x="91" y="55" width="571" height="389" fill="black">
<rect fill="white" x="91" y="55" width="571" height="389"/>
<path d="M220.944 305.501C220.944 299.511 216.931 295.055 208.905 292.135C206.579 291.237 202.791 290.787 197.54 290.787H194.615C189.964 291.012 183.663 292.21 175.712 294.382L183.813 298.537C181.113 303.254 178.3 309.132 175.374 316.171C175.149 316.695 173.649 320.738 170.874 328.301L180.55 327.964C190.602 327.739 199.078 326.279 205.979 323.583C215.956 319.69 220.944 313.662 220.944 305.501ZM197.54 370.419C197.54 364.354 193.565 359.899 185.613 357.053C183.213 356.155 179.387 355.706 174.137 355.706H171.211C170.761 355.706 170.123 355.631 169.298 355.481C168.473 355.331 167.911 355.256 167.611 355.256C166.635 355.256 164.91 355.668 162.435 356.492L160.184 363.455C157.934 367.948 155.196 373.826 151.971 381.089C151.446 382.437 149.983 386.442 147.582 393.106L157.259 392.994C167.161 392.695 175.562 391.197 182.463 388.502C192.515 384.608 197.54 378.58 197.54 370.419ZM226.457 348.068C230.808 356.305 232.983 362.07 232.983 365.365C232.983 367.761 232.646 370.681 231.971 374.125C227.02 399.508 210.967 415.233 183.813 421.298C182.688 421.447 173.124 422.496 155.121 424.442L128.454 427.363C118.703 428.486 109.551 429.609 101 430.732C106.251 410.515 112.514 389.662 119.79 368.173C124.291 354.62 131.38 337.286 141.056 316.171C143.007 311.978 145.82 306.287 149.495 299.099C146.345 300.072 143.607 300.858 141.281 301.457L133.068 263.046C152.346 260.125 168.998 258.665 183.026 258.665C186.251 258.665 189.889 258.853 193.94 259.227C205.042 260.051 211.418 260.612 213.068 260.912C218.919 261.81 225.445 263.832 232.646 266.977C248.398 273.491 256.275 284.685 256.275 300.559C256.275 302.88 255.937 305.763 255.262 309.207C252.262 324.856 242.66 337.81 226.457 348.068Z"/>
<path d="M413.687 293.595L404.011 299.997C407.161 309.057 408.736 316.807 408.736 323.247C408.736 327.889 408.024 334.366 406.599 342.677C402.098 368.884 392.346 389.737 377.344 405.237C360.916 422.234 339.95 430.732 314.446 430.732C293.593 430.732 277.316 423.544 265.614 409.168C254.812 395.839 249.411 378.543 249.411 357.278C249.411 352.711 249.674 347.844 250.199 342.677C252.899 319.914 262.876 300.297 280.128 283.824C297.831 267.052 318.047 258.665 340.776 258.665C375.131 258.665 399.435 270.309 413.687 293.595ZM368.793 346.833C369.393 343.613 369.693 341.03 369.693 339.083C369.693 330.397 367.067 323.733 361.816 319.091L368.793 315.16C362.717 302.73 352.402 296.516 337.85 296.516C323.073 296.516 310.733 301.27 300.832 310.78C291.53 319.84 285.754 331.857 283.504 346.833C282.979 350.277 282.716 353.197 282.716 355.593C282.716 366.825 286.017 376.446 292.618 384.458C299.594 392.919 308.595 397.15 319.622 397.15C332.899 397.15 344.039 391.946 353.04 381.538C361.066 372.253 366.317 360.685 368.793 346.833Z"/>
<path d="M422.801 399.171L426.627 386.368C427.527 383.447 429.44 377.495 432.365 368.509C436.866 355.032 443.954 337.698 453.631 316.508C456.031 310.967 459.819 303.142 464.995 293.034C456.819 294.382 444.405 296.216 427.752 298.537L437.653 264.843C449.43 263.794 464.245 262.559 482.098 261.136C500.776 259.714 517.166 258.89 531.268 258.665L520.917 291.349C506.514 291.349 495.113 291.499 486.711 291.798L496.5 297.077C494.25 301.42 491.4 307.897 487.949 316.508C483.673 327.065 477.747 344.399 470.171 368.509C467.471 377.42 464.883 386.667 462.407 396.251C464.808 396.102 468.971 395.877 474.897 395.577L492.337 394.904L481.986 427.7C464.433 427.7 452.993 427.849 447.668 428.149C439.041 428.748 419.426 431.032 388.821 435L398.722 401.193L409.974 400.07C413.2 399.845 417.475 399.546 422.801 399.171Z"/>
<path d="M561.311 328.862C565.361 325.044 570.162 320.551 575.713 315.384C587.04 304.902 595.404 296.665 600.804 290.675C597.354 290.975 588.465 291.836 574.138 293.258L545.783 295.954C540.982 296.478 533.556 297.339 523.505 298.537L533.406 264.843C549.009 263.645 567.649 262.409 589.328 261.136C602.23 260.387 623.12 259.564 652 258.665L641.648 291.349C635.197 300.783 625.108 312.651 611.381 326.953L619.482 326.616L610.593 351.325L586.29 352.224L568.962 369.633C559.66 378.842 551.784 387.004 545.333 394.117C558.385 393.369 582.014 391.646 616.219 388.951L605.53 421.41C594.278 422.084 579.839 422.795 562.211 423.544C550.209 423.544 528.193 426.165 496.163 431.406C498.113 425.191 500.063 418.752 502.014 412.088L507.19 394.904C509.14 388.165 514.841 379.254 524.292 368.173C527.593 364.204 531.831 359.524 537.007 354.133L522.942 354.695L532.956 329.985L561.311 328.862Z"/>
<path d="M224.632 133.422L202.579 193.285C221.257 188.943 238.472 178.722 254.224 162.623C266.901 149.445 273.24 135.78 273.24 121.628C273.24 107.327 270.502 99.2029 265.026 97.2561C258.875 95.0847 253.849 93.999 249.949 93.999H249.499C239.147 94.4482 230.971 95.5339 224.97 97.2561L237.572 103.658C236.447 105.605 233.634 111.483 229.133 121.292C228.308 123.688 226.807 127.731 224.632 133.422ZM201.003 227.654L192.565 230.237C179.212 232.034 166.61 233.232 154.759 233.831C156.559 228.515 161.51 214.026 169.611 190.365C173.587 178.61 179.7 161.089 187.951 137.802C191.477 128.292 197.215 116.013 205.167 100.962C202.691 102.535 199.316 104.407 195.04 106.578L186.826 68.1665C206.104 65.2463 222.757 63.7862 236.784 63.7862C240.01 63.7862 243.648 63.9734 247.698 64.3478C258.8 65.1714 265.176 65.733 266.826 66.0325C272.677 66.931 279.203 68.9527 286.404 72.0975C302.157 78.6118 310.033 89.8059 310.033 105.68C310.033 108.675 309.696 111.558 309.021 114.328C302.645 168.988 266.639 206.763 201.003 227.654Z"/>
<path d="M395.547 99.8393C391.646 105.23 383.582 118.259 371.355 138.925L361.229 155.997L384.07 155.548L389.246 159.591C393.596 150.157 395.772 132.823 395.772 107.589C395.772 103.77 395.697 101.187 395.547 99.8393ZM383.957 180.819L349.752 182.503C342.776 193.66 336.362 208.186 330.511 226.081L287.867 236.527C289.067 231.884 294.618 219.605 304.52 199.687L314.759 178.909C324.435 159.291 339.625 135.144 360.329 106.466C371.655 90.5921 382.87 76.5527 393.972 64.3478C400.498 64.1232 410.174 63.6739 423.001 63L424.014 77.3763C424.689 88.2335 425.026 98.6788 425.026 108.712C425.026 128.405 423.564 146.75 420.638 163.747C419.663 166.667 417.413 178.872 413.887 200.361C412.462 209.272 411.037 216.535 409.612 222.15L366.967 232.483C369.968 222.824 375.631 205.603 383.957 180.819Z"/>
</mask>
<path d="M220.944 305.501C220.944 299.511 216.931 295.055 208.905 292.135C206.579 291.237 202.791 290.787 197.54 290.787H194.615C189.964 291.012 183.663 292.21 175.712 294.382L183.813 298.537C181.113 303.254 178.3 309.132 175.374 316.171C175.149 316.695 173.649 320.738 170.874 328.301L180.55 327.964C190.602 327.739 199.078 326.279 205.979 323.583C215.956 319.69 220.944 313.662 220.944 305.501ZM197.54 370.419C197.54 364.354 193.565 359.899 185.613 357.053C183.213 356.155 179.387 355.706 174.137 355.706H171.211C170.761 355.706 170.123 355.631 169.298 355.481C168.473 355.331 167.911 355.256 167.611 355.256C166.635 355.256 164.91 355.668 162.435 356.492L160.184 363.455C157.934 367.948 155.196 373.826 151.971 381.089C151.446 382.437 149.983 386.442 147.582 393.106L157.259 392.994C167.161 392.695 175.562 391.197 182.463 388.502C192.515 384.608 197.54 378.58 197.54 370.419ZM226.457 348.068C230.808 356.305 232.983 362.07 232.983 365.365C232.983 367.761 232.646 370.681 231.971 374.125C227.02 399.508 210.967 415.233 183.813 421.298C182.688 421.447 173.124 422.496 155.121 424.442L128.454 427.363C118.703 428.486 109.551 429.609 101 430.732C106.251 410.515 112.514 389.662 119.79 368.173C124.291 354.62 131.38 337.286 141.056 316.171C143.007 311.978 145.82 306.287 149.495 299.099C146.345 300.072 143.607 300.858 141.281 301.457L133.068 263.046C152.346 260.125 168.998 258.665 183.026 258.665C186.251 258.665 189.889 258.853 193.94 259.227C205.042 260.051 211.418 260.612 213.068 260.912C218.919 261.81 225.445 263.832 232.646 266.977C248.398 273.491 256.275 284.685 256.275 300.559C256.275 302.88 255.937 305.763 255.262 309.207C252.262 324.856 242.66 337.81 226.457 348.068Z" fill="#FFD231"/>
<path d="M413.687 293.595L404.011 299.997C407.161 309.057 408.736 316.807 408.736 323.247C408.736 327.889 408.024 334.366 406.599 342.677C402.098 368.884 392.346 389.737 377.344 405.237C360.916 422.234 339.95 430.732 314.446 430.732C293.593 430.732 277.316 423.544 265.614 409.168C254.812 395.839 249.411 378.543 249.411 357.278C249.411 352.711 249.674 347.844 250.199 342.677C252.899 319.914 262.876 300.297 280.128 283.824C297.831 267.052 318.047 258.665 340.776 258.665C375.131 258.665 399.435 270.309 413.687 293.595ZM368.793 346.833C369.393 343.613 369.693 341.03 369.693 339.083C369.693 330.397 367.067 323.733 361.816 319.091L368.793 315.16C362.717 302.73 352.402 296.516 337.85 296.516C323.073 296.516 310.733 301.27 300.832 310.78C291.53 319.84 285.754 331.857 283.504 346.833C282.979 350.277 282.716 353.197 282.716 355.593C282.716 366.825 286.017 376.446 292.618 384.458C299.594 392.919 308.595 397.15 319.622 397.15C332.899 397.15 344.039 391.946 353.04 381.538C361.066 372.253 366.317 360.685 368.793 346.833Z" fill="#FFD231"/>
<path d="M422.801 399.171L426.627 386.368C427.527 383.447 429.44 377.495 432.365 368.509C436.866 355.032 443.954 337.698 453.631 316.508C456.031 310.967 459.819 303.142 464.995 293.034C456.819 294.382 444.405 296.216 427.752 298.537L437.653 264.843C449.43 263.794 464.245 262.559 482.098 261.136C500.776 259.714 517.166 258.89 531.268 258.665L520.917 291.349C506.514 291.349 495.113 291.499 486.711 291.798L496.5 297.077C494.25 301.42 491.4 307.897 487.949 316.508C483.673 327.065 477.747 344.399 470.171 368.509C467.471 377.42 464.883 386.667 462.407 396.251C464.808 396.102 468.971 395.877 474.897 395.577L492.337 394.904L481.986 427.7C464.433 427.7 452.993 427.849 447.668 428.149C439.041 428.748 419.426 431.032 388.821 435L398.722 401.193L409.974 400.07C413.2 399.845 417.475 399.546 422.801 399.171Z" fill="#FFD231"/>
<path d="M561.311 328.862C565.361 325.044 570.162 320.551 575.713 315.384C587.04 304.902 595.404 296.665 600.804 290.675C597.354 290.975 588.465 291.836 574.138 293.258L545.783 295.954C540.982 296.478 533.556 297.339 523.505 298.537L533.406 264.843C549.009 263.645 567.649 262.409 589.328 261.136C602.23 260.387 623.12 259.564 652 258.665L641.648 291.349C635.197 300.783 625.108 312.651 611.381 326.953L619.482 326.616L610.593 351.325L586.29 352.224L568.962 369.633C559.66 378.842 551.784 387.004 545.333 394.117C558.385 393.369 582.014 391.646 616.219 388.951L605.53 421.41C594.278 422.084 579.839 422.795 562.211 423.544C550.209 423.544 528.193 426.165 496.163 431.406C498.113 425.191 500.063 418.752 502.014 412.088L507.19 394.904C509.14 388.165 514.841 379.254 524.292 368.173C527.593 364.204 531.831 359.524 537.007 354.133L522.942 354.695L532.956 329.985L561.311 328.862Z" fill="#FFD231"/>
<path d="M224.632 133.422L202.579 193.285C221.257 188.943 238.472 178.722 254.224 162.623C266.901 149.445 273.24 135.78 273.24 121.628C273.24 107.327 270.502 99.2029 265.026 97.2561C258.875 95.0847 253.849 93.999 249.949 93.999H249.499C239.147 94.4482 230.971 95.5339 224.97 97.2561L237.572 103.658C236.447 105.605 233.634 111.483 229.133 121.292C228.308 123.688 226.807 127.731 224.632 133.422ZM201.003 227.654L192.565 230.237C179.212 232.034 166.61 233.232 154.759 233.831C156.559 228.515 161.51 214.026 169.611 190.365C173.587 178.61 179.7 161.089 187.951 137.802C191.477 128.292 197.215 116.013 205.167 100.962C202.691 102.535 199.316 104.407 195.04 106.578L186.826 68.1665C206.104 65.2463 222.757 63.7862 236.784 63.7862C240.01 63.7862 243.648 63.9734 247.698 64.3478C258.8 65.1714 265.176 65.733 266.826 66.0325C272.677 66.931 279.203 68.9527 286.404 72.0975C302.157 78.6118 310.033 89.8059 310.033 105.68C310.033 108.675 309.696 111.558 309.021 114.328C302.645 168.988 266.639 206.763 201.003 227.654Z" fill="#FFD231"/>
<path d="M395.547 99.8393C391.646 105.23 383.582 118.259 371.355 138.925L361.229 155.997L384.07 155.548L389.246 159.591C393.596 150.157 395.772 132.823 395.772 107.589C395.772 103.77 395.697 101.187 395.547 99.8393ZM383.957 180.819L349.752 182.503C342.776 193.66 336.362 208.186 330.511 226.081L287.867 236.527C289.067 231.884 294.618 219.605 304.52 199.687L314.759 178.909C324.435 159.291 339.625 135.144 360.329 106.466C371.655 90.5921 382.87 76.5527 393.972 64.3478C400.498 64.1232 410.174 63.6739 423.001 63L424.014 77.3763C424.689 88.2335 425.026 98.6788 425.026 108.712C425.026 128.405 423.564 146.75 420.638 163.747C419.663 166.667 417.413 178.872 413.887 200.361C412.462 209.272 411.037 216.535 409.612 222.15L366.967 232.483C369.968 222.824 375.631 205.603 383.957 180.819Z" fill="#FFD231"/>
<path d="M220.944 305.501C220.944 299.511 216.931 295.055 208.905 292.135C206.579 291.237 202.791 290.787 197.54 290.787H194.615C189.964 291.012 183.663 292.21 175.712 294.382L183.813 298.537C181.113 303.254 178.3 309.132 175.374 316.171C175.149 316.695 173.649 320.738 170.874 328.301L180.55 327.964C190.602 327.739 199.078 326.279 205.979 323.583C215.956 319.69 220.944 313.662 220.944 305.501ZM197.54 370.419C197.54 364.354 193.565 359.899 185.613 357.053C183.213 356.155 179.387 355.706 174.137 355.706H171.211C170.761 355.706 170.123 355.631 169.298 355.481C168.473 355.331 167.911 355.256 167.611 355.256C166.635 355.256 164.91 355.668 162.435 356.492L160.184 363.455C157.934 367.948 155.196 373.826 151.971 381.089C151.446 382.437 149.983 386.442 147.582 393.106L157.259 392.994C167.161 392.695 175.562 391.197 182.463 388.502C192.515 384.608 197.54 378.58 197.54 370.419ZM226.457 348.068C230.808 356.305 232.983 362.07 232.983 365.365C232.983 367.761 232.646 370.681 231.971 374.125C227.02 399.508 210.967 415.233 183.813 421.298C182.688 421.447 173.124 422.496 155.121 424.442L128.454 427.363C118.703 428.486 109.551 429.609 101 430.732C106.251 410.515 112.514 389.662 119.79 368.173C124.291 354.62 131.38 337.286 141.056 316.171C143.007 311.978 145.82 306.287 149.495 299.099C146.345 300.072 143.607 300.858 141.281 301.457L133.068 263.046C152.346 260.125 168.998 258.665 183.026 258.665C186.251 258.665 189.889 258.853 193.94 259.227C205.042 260.051 211.418 260.612 213.068 260.912C218.919 261.81 225.445 263.832 232.646 266.977C248.398 273.491 256.275 284.685 256.275 300.559C256.275 302.88 255.937 305.763 255.262 309.207C252.262 324.856 242.66 337.81 226.457 348.068Z" stroke="black" stroke-width="14" mask="url(#path-314-outside-2)"/>
<path d="M413.687 293.595L404.011 299.997C407.161 309.057 408.736 316.807 408.736 323.247C408.736 327.889 408.024 334.366 406.599 342.677C402.098 368.884 392.346 389.737 377.344 405.237C360.916 422.234 339.95 430.732 314.446 430.732C293.593 430.732 277.316 423.544 265.614 409.168C254.812 395.839 249.411 378.543 249.411 357.278C249.411 352.711 249.674 347.844 250.199 342.677C252.899 319.914 262.876 300.297 280.128 283.824C297.831 267.052 318.047 258.665 340.776 258.665C375.131 258.665 399.435 270.309 413.687 293.595ZM368.793 346.833C369.393 343.613 369.693 341.03 369.693 339.083C369.693 330.397 367.067 323.733 361.816 319.091L368.793 315.16C362.717 302.73 352.402 296.516 337.85 296.516C323.073 296.516 310.733 301.27 300.832 310.78C291.53 319.84 285.754 331.857 283.504 346.833C282.979 350.277 282.716 353.197 282.716 355.593C282.716 366.825 286.017 376.446 292.618 384.458C299.594 392.919 308.595 397.15 319.622 397.15C332.899 397.15 344.039 391.946 353.04 381.538C361.066 372.253 366.317 360.685 368.793 346.833Z" stroke="black" stroke-width="14" mask="url(#path-314-outside-2)"/>
<path d="M422.801 399.171L426.627 386.368C427.527 383.447 429.44 377.495 432.365 368.509C436.866 355.032 443.954 337.698 453.631 316.508C456.031 310.967 459.819 303.142 464.995 293.034C456.819 294.382 444.405 296.216 427.752 298.537L437.653 264.843C449.43 263.794 464.245 262.559 482.098 261.136C500.776 259.714 517.166 258.89 531.268 258.665L520.917 291.349C506.514 291.349 495.113 291.499 486.711 291.798L496.5 297.077C494.25 301.42 491.4 307.897 487.949 316.508C483.673 327.065 477.747 344.399 470.171 368.509C467.471 377.42 464.883 386.667 462.407 396.251C464.808 396.102 468.971 395.877 474.897 395.577L492.337 394.904L481.986 427.7C464.433 427.7 452.993 427.849 447.668 428.149C439.041 428.748 419.426 431.032 388.821 435L398.722 401.193L409.974 400.07C413.2 399.845 417.475 399.546 422.801 399.171Z" stroke="black" stroke-width="14" mask="url(#path-314-outside-2)"/>
<path d="M561.311 328.862C565.361 325.044 570.162 320.551 575.713 315.384C587.04 304.902 595.404 296.665 600.804 290.675C597.354 290.975 588.465 291.836 574.138 293.258L545.783 295.954C540.982 296.478 533.556 297.339 523.505 298.537L533.406 264.843C549.009 263.645 567.649 262.409 589.328 261.136C602.23 260.387 623.12 259.564 652 258.665L641.648 291.349C635.197 300.783 625.108 312.651 611.381 326.953L619.482 326.616L610.593 351.325L586.29 352.224L568.962 369.633C559.66 378.842 551.784 387.004 545.333 394.117C558.385 393.369 582.014 391.646 616.219 388.951L605.53 421.41C594.278 422.084 579.839 422.795 562.211 423.544C550.209 423.544 528.193 426.165 496.163 431.406C498.113 425.191 500.063 418.752 502.014 412.088L507.19 394.904C509.14 388.165 514.841 379.254 524.292 368.173C527.593 364.204 531.831 359.524 537.007 354.133L522.942 354.695L532.956 329.985L561.311 328.862Z" stroke="black" stroke-width="14" mask="url(#path-314-outside-2)"/>
<path d="M224.632 133.422L202.579 193.285C221.257 188.943 238.472 178.722 254.224 162.623C266.901 149.445 273.24 135.78 273.24 121.628C273.24 107.327 270.502 99.2029 265.026 97.2561C258.875 95.0847 253.849 93.999 249.949 93.999H249.499C239.147 94.4482 230.971 95.5339 224.97 97.2561L237.572 103.658C236.447 105.605 233.634 111.483 229.133 121.292C228.308 123.688 226.807 127.731 224.632 133.422ZM201.003 227.654L192.565 230.237C179.212 232.034 166.61 233.232 154.759 233.831C156.559 228.515 161.51 214.026 169.611 190.365C173.587 178.61 179.7 161.089 187.951 137.802C191.477 128.292 197.215 116.013 205.167 100.962C202.691 102.535 199.316 104.407 195.04 106.578L186.826 68.1665C206.104 65.2463 222.757 63.7862 236.784 63.7862C240.01 63.7862 243.648 63.9734 247.698 64.3478C258.8 65.1714 265.176 65.733 266.826 66.0325C272.677 66.931 279.203 68.9527 286.404 72.0975C302.157 78.6118 310.033 89.8059 310.033 105.68C310.033 108.675 309.696 111.558 309.021 114.328C302.645 168.988 266.639 206.763 201.003 227.654Z" stroke="black" stroke-width="14" mask="url(#path-314-outside-2)"/>
<path d="M395.547 99.8393C391.646 105.23 383.582 118.259 371.355 138.925L361.229 155.997L384.07 155.548L389.246 159.591C393.596 150.157 395.772 132.823 395.772 107.589C395.772 103.77 395.697 101.187 395.547 99.8393ZM383.957 180.819L349.752 182.503C342.776 193.66 336.362 208.186 330.511 226.081L287.867 236.527C289.067 231.884 294.618 219.605 304.52 199.687L314.759 178.909C324.435 159.291 339.625 135.144 360.329 106.466C371.655 90.5921 382.87 76.5527 393.972 64.3478C400.498 64.1232 410.174 63.6739 423.001 63L424.014 77.3763C424.689 88.2335 425.026 98.6788 425.026 108.712C425.026 128.405 423.564 146.75 420.638 163.747C419.663 166.667 417.413 178.872 413.887 200.361C412.462 209.272 411.037 216.535 409.612 222.15L366.967 232.483C369.968 222.824 375.631 205.603 383.957 180.819Z" stroke="black" stroke-width="14" mask="url(#path-314-outside-2)"/>
</g>
</svg>
