<svg width="1428" height="1264" viewBox="0 0 1428 1264" fill="none" xmlns="http://www.w3.org/2000/svg">
<g filter="url(#filter0_f_312_13)">
<path d="M714.846 30H718.853V282.634L422.305 455.067V467.097H205.906V330.755L714.846 30Z" fill="#E31313"/>
<path d="M718.853 254.564V174.362L1107.77 398.792V467.097H1043.45V440.363L718.853 254.564Z" fill="#E31313"/>
<path d="M718.853 443.037V326.745L963.305 467.097H742.898V459.077C742.898 458.008 726.868 447.938 718.853 443.037Z" fill="#E31313"/>
<path d="M790.987 98.1711L794.994 70.1007L1240.12 322.735V467.097H1206.42V341.449L790.987 98.1711Z" fill="#E31313"/>
<path d="M201.898 926.918V791.913H274.032V884.144L722.861 1136.78V1225L201.898 926.918Z" fill="#E31313"/>
<path d="M338.15 848.054V791.913H658.742L722.861 828.003V1064.6L338.15 848.054Z" fill="#E31313"/>
<path d="M722.861 916.374V791.913L947.275 793.249L722.861 916.374Z" fill="#E31313"/>
<path d="M722.861 1064.6V956.325L857.109 876.124L877.146 905.531L1043.45 811.295V791.913H1108.24V848.054L730.875 1068.61L722.861 1064.6Z" fill="#E31313"/>
<path d="M1240.48 791.913H1207.76V906.868L722.861 1184.9V1225L1240.48 924.245V791.913Z" fill="#E31313"/>
<path d="M197.888 652.325L246.559 667.768C239.097 694.919 226.661 715.113 209.25 728.349C191.953 741.473 169.963 748.034 143.282 748.034C110.27 748.034 83.1364 736.778 61.8818 714.265C40.6273 691.638 30 660.754 30 621.61C30 580.204 40.6838 548.075 62.0514 525.222C83.419 502.257 111.513 490.774 146.335 490.774C176.747 490.774 201.45 499.768 220.443 517.756C231.749 528.39 240.228 543.663 245.881 563.574L196.192 575.453C193.253 562.556 187.091 552.374 177.708 544.907C168.437 537.441 157.132 533.707 143.791 533.707C125.363 533.707 110.383 540.325 98.8511 553.562C87.4325 566.798 81.7232 588.236 81.7232 617.877C81.7232 649.327 87.376 671.727 98.6816 685.077C109.987 698.426 124.684 705.101 142.773 705.101C156.114 705.101 167.589 700.859 177.199 692.374C186.809 683.889 193.705 670.539 197.888 652.325Z" fill="#E31313"/>
<path d="M289.464 495.016H339.661V629.756C339.661 651.137 340.282 664.996 341.526 671.331C343.674 681.513 348.762 689.715 356.789 695.937C364.929 702.046 376.008 705.101 390.027 705.101C404.272 705.101 415.012 702.216 422.248 696.446C429.484 690.564 433.836 683.38 435.306 674.895C436.776 666.41 437.511 652.325 437.511 632.64V495.016H487.708V625.683C487.708 655.55 486.351 676.648 483.637 688.98C480.924 701.311 475.893 711.719 468.545 720.204C461.309 728.689 451.586 735.477 439.376 740.568C427.166 745.545 411.225 748.034 391.553 748.034C367.812 748.034 349.779 745.319 337.456 739.889C325.246 734.345 315.58 727.218 308.457 718.507C301.335 709.683 296.643 700.463 294.382 690.846C291.103 676.592 289.464 655.55 289.464 627.719V495.016Z" fill="#E31313"/>
<path d="M519.25 743.792V698.483L649.83 537.101H534.004V495.016H715.968V534.047L579.792 701.877H721.225V743.792H519.25Z" fill="#E31313"/>
<path d="M753.107 743.792V495.016H937.445V537.101H803.304V592.253H928.117V634.168H803.304V701.877H942.193V743.792H753.107Z" fill="#E31313"/>
<path d="M1040.72 743.792V537.101H966.952V495.016H1164.52V537.101H1090.92V743.792H1040.72Z" fill="#E31313"/>
<path d="M1197.25 743.792V495.016H1247.44V592.931H1345.8V495.016H1396V743.792H1345.8V635.016H1247.44V743.792H1197.25Z" fill="#E31313"/>
</g>
<g filter="url(#filter1_d_312_13)">
<path d="M714.846 30H718.853V282.634L422.305 455.067V467.097H205.906V330.755L714.846 30Z" fill="#E31313"/>
<path d="M718.853 254.564V174.362L1107.77 398.792V467.097H1043.45V440.363L718.853 254.564Z" fill="#E31313"/>
<path d="M718.853 443.037V326.745L963.305 467.097H742.898V459.077C742.898 458.008 726.868 447.938 718.853 443.037Z" fill="#E31313"/>
<path d="M790.987 98.1711L794.994 70.1007L1240.12 322.735V467.097H1206.42V341.449L790.987 98.1711Z" fill="#E31313"/>
<path d="M201.898 926.918V791.913H274.032V884.144L722.861 1136.78V1225L201.898 926.918Z" fill="#E31313"/>
<path d="M338.15 848.054V791.913H658.742L722.861 828.003V1064.6L338.15 848.054Z" fill="#E31313"/>
<path d="M722.861 916.374V791.913L947.275 793.249L722.861 916.374Z" fill="#E31313"/>
<path d="M722.861 1064.6V956.325L857.109 876.124L877.146 905.531L1043.45 811.295V791.913H1108.24V848.054L730.875 1068.61L722.861 1064.6Z" fill="#E31313"/>
<path d="M1240.48 791.913H1207.76V906.868L722.861 1184.9V1225L1240.48 924.245V791.913Z" fill="#E31313"/>
<path d="M197.888 652.325L246.559 667.768C239.097 694.919 226.661 715.113 209.25 728.349C191.953 741.473 169.963 748.034 143.282 748.034C110.27 748.034 83.1364 736.778 61.8818 714.265C40.6273 691.638 30 660.754 30 621.61C30 580.204 40.6838 548.075 62.0514 525.222C83.419 502.257 111.513 490.774 146.335 490.774C176.747 490.774 201.45 499.768 220.443 517.756C231.749 528.39 240.228 543.663 245.881 563.574L196.192 575.453C193.253 562.556 187.091 552.374 177.708 544.907C168.437 537.441 157.132 533.707 143.791 533.707C125.363 533.707 110.383 540.325 98.8511 553.562C87.4325 566.798 81.7232 588.236 81.7232 617.877C81.7232 649.327 87.376 671.727 98.6816 685.077C109.987 698.426 124.684 705.101 142.773 705.101C156.114 705.101 167.589 700.859 177.199 692.374C186.809 683.889 193.705 670.539 197.888 652.325Z" fill="#E31313"/>
<path d="M289.464 495.016H339.661V629.756C339.661 651.137 340.282 664.996 341.526 671.331C343.674 681.513 348.762 689.715 356.789 695.937C364.929 702.046 376.008 705.101 390.027 705.101C404.272 705.101 415.012 702.216 422.248 696.446C429.484 690.564 433.836 683.38 435.306 674.895C436.776 666.41 437.511 652.325 437.511 632.64V495.016H487.708V625.683C487.708 655.55 486.351 676.648 483.637 688.98C480.924 701.311 475.893 711.719 468.545 720.204C461.309 728.689 451.586 735.477 439.376 740.568C427.166 745.545 411.225 748.034 391.553 748.034C367.812 748.034 349.779 745.319 337.456 739.889C325.246 734.345 315.58 727.218 308.457 718.507C301.335 709.683 296.643 700.463 294.382 690.846C291.103 676.592 289.464 655.55 289.464 627.719V495.016Z" fill="#E31313"/>
<path d="M519.25 743.792V698.483L649.83 537.101H534.004V495.016H715.968V534.047L579.792 701.877H721.225V743.792H519.25Z" fill="#E31313"/>
<path d="M753.107 743.792V495.016H937.445V537.101H803.304V592.253H928.117V634.168H803.304V701.877H942.193V743.792H753.107Z" fill="#E31313"/>
<path d="M1040.72 743.792V537.101H966.952V495.016H1164.52V537.101H1090.92V743.792H1040.72Z" fill="#E31313"/>
<path d="M1197.25 743.792V495.016H1247.44V592.931H1345.8V495.016H1396V743.792H1345.8V635.016H1247.44V743.792H1197.25Z" fill="#E31313"/>
</g>
<mask id="mask0_312_13" style="mask-type:alpha" maskUnits="userSpaceOnUse" x="201" y="30" width="1040" height="1195">
<path d="M714.846 30H718.853V282.634L422.306 455.067V467.097H205.906V330.755L714.846 30Z" fill="#E51C1C"/>
<path d="M718.853 254.564V174.362L1107.77 398.792V467.097H1043.45V440.364L718.853 254.564Z" fill="#E51C1C"/>
<path d="M718.853 443.037V326.745L963.305 467.097H742.898V459.077C742.898 458.008 726.868 447.938 718.853 443.037Z" fill="#E51C1C"/>
<path d="M790.987 98.1711L794.994 70.1007L1240.12 322.735V467.097H1206.42V341.449L790.987 98.1711Z" fill="#E51C1C"/>
<path d="M201.898 926.918V791.913H274.032V884.144L722.861 1136.78V1225L201.898 926.918Z" fill="#E51C1C"/>
<path d="M338.15 848.054V791.913H658.742L722.861 828.003V1064.6L338.15 848.054Z" fill="#E51C1C"/>
<path d="M722.861 916.374V791.913L947.275 793.249L722.861 916.374Z" fill="#E51C1C"/>
<path d="M722.861 1064.6V956.325L857.109 876.124L877.146 905.531L1043.45 811.295V791.913H1108.24V848.054L730.876 1068.61L722.861 1064.6Z" fill="#E51C1C"/>
<path d="M1240.48 791.913H1207.76V906.868L722.861 1184.9V1225L1240.48 924.245V791.913Z" fill="#E51C1C"/>
</mask>
<g mask="url(#mask0_312_13)">
<path opacity="0.25" d="M1004.78 1151.7L794.123 775.403L970.761 483.524L953.751 442.295L752.253 340.203L735.898 464.545L704.496 472.399L718.888 291.774V26.0734L1282.82 213.897L1375.07 874.877L1004.78 1151.7Z" fill="black"/>
<path d="M713 776.057L719.543 39.8165L1363.29 124.893L1441.8 939.011L722.814 1245.94L161.498 975.66L172.619 774.094L289.724 776.057L317.855 873.568L722.814 1098.04V950.137L756.833 902.363L818.329 873.568L945.901 820.559V774.094L713 776.057Z" fill="black" fill-opacity="0.15"/>
</g>
<defs>
<filter id="filter0_f_312_13" x="0" y="0" width="1426" height="1255" filterUnits="userSpaceOnUse" color-interpolation-filters="sRGB">
<feFlood flood-opacity="0" result="BackgroundImageFix"/>
<feBlend mode="normal" in="SourceGraphic" in2="BackgroundImageFix" result="shape"/>
<feGaussianBlur stdDeviation="15" result="effect1_foregroundBlur_312_13"/>
</filter>
<filter id="filter1_d_312_13" x="2" y="9" width="1426" height="1255" filterUnits="userSpaceOnUse" color-interpolation-filters="sRGB">
<feFlood flood-opacity="0" result="BackgroundImageFix"/>
<feColorMatrix in="SourceAlpha" type="matrix" values="0 0 0 0 0 0 0 0 0 0 0 0 0 0 0 0 0 0 127 0" result="hardAlpha"/>
<feOffset dx="2" dy="9"/>
<feGaussianBlur stdDeviation="15"/>
<feComposite in2="hardAlpha" operator="out"/>
<feColorMatrix type="matrix" values="0 0 0 0 0 0 0 0 0 0 0 0 0 0 0 0 0 0 0.75 0"/>
<feBlend mode="normal" in2="BackgroundImageFix" result="effect1_dropShadow_312_13"/>
<feBlend mode="normal" in="SourceGraphic" in2="effect1_dropShadow_312_13" result="shape"/>
</filter>
</defs>
</svg>
