<?xml version="1.0" encoding="UTF-8"?>
<svg xmlns="http://www.w3.org/2000/svg" xmlns:xlink="http://www.w3.org/1999/xlink" width="800px" height="764px" viewBox="0 0 800 764" version="1.1">
<g id="surface1">
<path style=" stroke:none;fill-rule:nonzero;fill:rgb(68.235294%,69.803922%,72.941176%);fill-opacity:1;" d="M 780.910156 83.535156 L 780.910156 481.453125 L 19.089844 481.453125 L 19.089844 83.535156 C 18.84375 49.792969 43.933594 21.257812 77.386719 17.214844 C 83.515625 17.214844 41.78125 17.214844 714.664062 17.214844 C 751.242188 17.214844 780.910156 46.914062 780.910156 83.535156 Z M 780.910156 83.535156 "/>
<path style=" stroke:none;fill-rule:nonzero;fill:rgb(76.078431%,78.823529%,83.921569%);fill-opacity:1;" d="M 780.910156 83.535156 L 780.910156 448.292969 L 466.242188 448.292969 C 246.726562 448.292969 68.773438 270.144531 68.773438 50.375 C 68.816406 41.007812 70.785156 31.742188 74.570312 23.183594 L 85.335938 17.214844 L 714.664062 17.214844 C 751.242188 17.214844 780.910156 46.914062 780.910156 83.535156 Z M 780.910156 83.535156 "/>
<path style=" stroke:none;fill-rule:nonzero;fill:rgb(72.941176%,14.901961%,28.235294%);fill-opacity:1;" d="M 118.460938 100.117188 L 284.070312 100.117188 L 284.070312 265.914062 L 118.460938 265.914062 Z M 118.460938 100.117188 "/>
<path style=" stroke:none;fill-rule:nonzero;fill:rgb(90.980392%,28.627451%,42.745098%);fill-opacity:1;" d="M 284.070312 100.117188 C 284.070312 241.875 282.414062 232.753906 284.070312 232.753906 C 210.890625 232.753906 151.582031 173.378906 151.582031 100.117188 Z M 284.070312 100.117188 "/>
<path style=" stroke:none;fill-rule:nonzero;fill:rgb(85.490196%,84.313725%,89.803922%);fill-opacity:1;" d="M 780.910156 481.453125 C 780.910156 512.953125 783.058594 528.375 772.296875 547.773438 C 760.414062 568.371094 738.429688 581.035156 714.664062 580.929688 L 85.335938 580.929688 C 48.757812 580.929688 19.089844 551.230469 19.089844 514.613281 L 19.089844 481.453125 Z M 780.910156 481.453125 "/>
<path style=" stroke:none;fill-rule:nonzero;fill:rgb(92.941176%,92.156863%,94.901961%);fill-opacity:1;" d="M 780.910156 481.453125 C 780.910156 512.953125 783.058594 528.375 772.296875 547.773438 C 766.167969 547.773438 807.902344 547.773438 135.023438 547.773438 C 98.441406 547.773438 68.773438 518.070312 68.773438 481.453125 Z M 780.910156 481.453125 "/>
<path style=" stroke:none;fill-rule:nonzero;fill:rgb(77.647059%,76.470588%,84.705882%);fill-opacity:1;" d="M 300.632812 580.929688 L 499.367188 580.929688 L 499.367188 746.730469 L 300.632812 746.730469 Z M 300.632812 580.929688 "/>
<path style=" stroke:none;fill-rule:nonzero;fill:rgb(85.490196%,84.313725%,89.803922%);fill-opacity:1;" d="M 499.367188 614.089844 L 499.367188 746.730469 L 333.757812 746.730469 C 333.757812 673.46875 393.066406 614.089844 466.242188 614.089844 Z M 499.367188 614.089844 "/>
<path style=" stroke:none;fill-rule:nonzero;fill:rgb(0%,0%,0%);fill-opacity:1;" d="M 284.070312 66.957031 L 118.460938 66.957031 C 109.308594 66.957031 101.898438 74.375 101.898438 83.535156 L 101.898438 249.335938 C 101.898438 258.492188 109.308594 265.914062 118.460938 265.914062 L 284.070312 265.914062 C 293.222656 265.914062 300.632812 258.492188 300.632812 249.335938 L 300.632812 83.535156 C 300.632812 74.375 293.222656 66.957031 284.070312 66.957031 Z M 267.507812 232.753906 L 135.023438 232.753906 L 135.023438 100.117188 L 184.707031 100.117188 L 184.707031 116.695312 C 184.707031 125.855469 192.117188 133.273438 201.265625 133.273438 C 210.414062 133.273438 217.824219 125.855469 217.824219 116.695312 L 217.824219 100.117188 L 267.507812 100.117188 Z M 267.507812 232.753906 "/>
<path style=" stroke:none;fill-rule:nonzero;fill:rgb(0%,0%,0%);fill-opacity:1;" d="M 284.070312 299.074219 L 118.460938 299.074219 C 109.308594 299.074219 101.898438 306.492188 101.898438 315.652344 C 101.898438 324.8125 109.308594 332.234375 118.460938 332.234375 L 284.070312 332.234375 C 293.222656 332.234375 300.632812 324.8125 300.632812 315.652344 C 300.632812 306.492188 293.222656 299.074219 284.070312 299.074219 Z M 284.070312 299.074219 "/>
<path style=" stroke:none;fill-rule:nonzero;fill:rgb(0%,0%,0%);fill-opacity:1;" d="M 250.949219 365.394531 L 118.460938 365.394531 C 109.308594 365.394531 101.898438 372.8125 101.898438 381.972656 C 101.898438 391.132812 109.308594 398.554688 118.460938 398.554688 L 250.949219 398.554688 C 260.097656 398.554688 267.507812 391.132812 267.507812 381.972656 C 267.507812 372.8125 260.097656 365.394531 250.949219 365.394531 Z M 250.949219 365.394531 "/>
<path style=" stroke:none;fill-rule:nonzero;fill:rgb(0%,0%,0%);fill-opacity:1;" d="M 383.441406 216.175781 C 390.558594 216.175781 385.757812 218 482.804688 153.171875 C 579.359375 217.667969 579.027344 221.648438 591.28125 213.355469 L 690.648438 147.039062 C 697.316406 141.667969 698.785156 132.09375 694.0625 124.964844 C 689.347656 117.835938 679.96875 115.472656 672.429688 119.515625 L 582.175781 179.699219 C 485.621094 115.203125 485.953125 111.226562 473.695312 119.515625 L 374.332031 185.835938 C 368.304688 189.898438 365.617188 197.398438 367.707031 204.363281 C 369.796875 211.324219 376.171875 216.113281 383.441406 216.175781 Z M 383.441406 216.175781 "/>
<path style=" stroke:none;fill-rule:nonzero;fill:rgb(0%,0%,0%);fill-opacity:1;" d="M 366.878906 265.914062 L 366.878906 365.394531 C 366.878906 374.554688 374.289062 381.972656 383.441406 381.972656 C 392.585938 381.972656 400 374.554688 400 365.394531 L 400 265.914062 C 400 256.753906 392.585938 249.335938 383.441406 249.335938 C 374.289062 249.335938 366.878906 256.753906 366.878906 265.914062 Z M 366.878906 265.914062 "/>
<path style=" stroke:none;fill-rule:nonzero;fill:rgb(0%,0%,0%);fill-opacity:1;" d="M 466.242188 216.175781 L 466.242188 365.394531 C 466.242188 374.554688 473.65625 381.972656 482.804688 381.972656 C 491.957031 381.972656 499.367188 374.554688 499.367188 365.394531 L 499.367188 216.175781 C 499.367188 207.015625 491.957031 199.59375 482.804688 199.59375 C 473.65625 199.59375 466.242188 207.015625 466.242188 216.175781 Z M 466.242188 216.175781 "/>
<path style=" stroke:none;fill-rule:nonzero;fill:rgb(0%,0%,0%);fill-opacity:1;" d="M 565.613281 265.914062 L 565.613281 365.394531 C 565.613281 374.554688 573.023438 381.972656 582.175781 381.972656 C 591.320312 381.972656 598.734375 374.554688 598.734375 365.394531 L 598.734375 265.914062 C 598.734375 256.753906 591.320312 249.335938 582.175781 249.335938 C 573.023438 249.335938 565.613281 256.753906 565.613281 265.914062 Z M 565.613281 265.914062 "/>
<path style=" stroke:none;fill-rule:nonzero;fill:rgb(0%,0%,0%);fill-opacity:1;" d="M 664.976562 216.175781 L 664.976562 365.394531 C 664.976562 374.554688 672.390625 381.972656 681.539062 381.972656 C 690.691406 381.972656 698.101562 374.554688 698.101562 365.394531 L 698.101562 216.175781 C 698.101562 207.015625 690.691406 199.59375 681.539062 199.59375 C 672.390625 199.59375 664.976562 207.015625 664.976562 216.175781 Z M 664.976562 216.175781 "/>
<path style=" stroke:none;fill-rule:nonzero;fill:rgb(0%,0%,0%);fill-opacity:1;" d="M 714.664062 0.636719 L 85.335938 0.636719 C 39.605469 0.636719 2.53125 37.757812 2.53125 83.535156 L 2.53125 514.613281 C 2.53125 560.394531 39.605469 597.511719 85.335938 597.511719 L 284.070312 597.511719 L 284.070312 730.148438 L 250.949219 730.148438 C 241.800781 730.148438 234.386719 737.570312 234.386719 746.730469 C 234.386719 755.890625 241.800781 763.308594 250.949219 763.308594 L 549.050781 763.308594 C 558.199219 763.308594 565.613281 755.890625 565.613281 746.730469 C 565.613281 737.570312 558.199219 730.148438 549.050781 730.148438 L 515.929688 730.148438 L 515.929688 597.511719 L 714.664062 597.511719 C 760.394531 597.511719 797.46875 560.394531 797.46875 514.613281 L 797.46875 83.535156 C 797.46875 37.757812 760.394531 0.636719 714.664062 0.636719 Z M 35.652344 83.535156 C 35.652344 56.074219 57.90625 33.796875 85.335938 33.796875 L 714.664062 33.796875 C 742.09375 33.796875 764.347656 56.074219 764.347656 83.535156 L 764.347656 464.871094 L 35.652344 464.871094 Z M 482.804688 730.148438 L 317.195312 730.148438 L 317.195312 597.511719 L 482.804688 597.511719 Z M 764.347656 514.613281 C 764.347656 542.070312 742.09375 564.351562 714.664062 564.351562 L 85.335938 564.351562 C 57.90625 564.351562 35.652344 542.070312 35.652344 514.613281 L 35.652344 498.03125 L 764.347656 498.03125 Z M 764.347656 514.613281 "/>
<path style=" stroke:none;fill-rule:nonzero;fill:rgb(0%,0%,0%);fill-opacity:1;" d="M 135.023438 547.773438 C 144.171875 547.773438 151.582031 540.351562 151.582031 531.191406 C 151.582031 522.03125 144.171875 514.613281 135.023438 514.613281 C 125.867188 514.613281 118.460938 522.03125 118.460938 531.191406 C 118.460938 540.351562 125.867188 547.773438 135.023438 547.773438 Z M 135.023438 547.773438 "/>
</g>
</svg>
