<?xml version="1.0" encoding="UTF-8"?>
<svg xmlns="http://www.w3.org/2000/svg" xmlns:xlink="http://www.w3.org/1999/xlink" width="500px" height="500px" viewBox="0 0 500 500" version="1.1">
<defs>
<linearGradient id="linear0" gradientUnits="userSpaceOnUse" x1="24" y1="30.25" x2="24" y2="-4.26" gradientTransform="matrix(10.416667,0,0,10.416667,0,0)">
<stop offset="0" style="stop-color:rgb(100%,100%,100%);stop-opacity:1;"/>
<stop offset="0.52" style="stop-color:rgb(80%,88.627451%,90.196078%);stop-opacity:1;"/>
<stop offset="1" style="stop-color:rgb(56.078431%,63.137255%,73.333333%);stop-opacity:1;"/>
</linearGradient>
<linearGradient id="linear1" gradientUnits="userSpaceOnUse" x1="24" y1="11.44" x2="24" y2="24.03" gradientTransform="matrix(10.416667,0,0,10.416667,0,0)">
<stop offset="0" style="stop-color:rgb(100%,100%,100%);stop-opacity:1;"/>
<stop offset="0.52" style="stop-color:rgb(80%,88.627451%,90.196078%);stop-opacity:1;"/>
<stop offset="1" style="stop-color:rgb(56.078431%,63.137255%,73.333333%);stop-opacity:1;"/>
</linearGradient>
<linearGradient id="linear2" gradientUnits="userSpaceOnUse" x1="24" y1="78.83" x2="24" y2="14.26" gradientTransform="matrix(10.416667,0,0,10.416667,0,0)">
<stop offset="0" style="stop-color:rgb(15.294118%,91.372549%,87.058824%);stop-opacity:1;"/>
<stop offset="0.52" style="stop-color:rgb(1.176471%,64.313725%,92.54902%);stop-opacity:1;"/>
<stop offset="1" style="stop-color:rgb(14.509804%,27.843137%,65.882353%);stop-opacity:1;"/>
</linearGradient>
<linearGradient id="linear3" gradientUnits="userSpaceOnUse" x1="24" y1="51.31" x2="24" y2="37.23" gradientTransform="matrix(10.416667,0,0,10.416667,0,0)">
<stop offset="0" style="stop-color:rgb(15.294118%,91.372549%,87.058824%);stop-opacity:1;"/>
<stop offset="0.52" style="stop-color:rgb(1.176471%,64.313725%,92.54902%);stop-opacity:1;"/>
<stop offset="1" style="stop-color:rgb(14.509804%,27.843137%,65.882353%);stop-opacity:1;"/>
</linearGradient>
<linearGradient id="linear4" gradientUnits="userSpaceOnUse" x1="24" y1="11.75" x2="24" y2="28.7" gradientTransform="matrix(10.416667,0,0,10.416667,0,0)">
<stop offset="0" style="stop-color:rgb(15.294118%,91.372549%,87.058824%);stop-opacity:1;"/>
<stop offset="0.52" style="stop-color:rgb(1.176471%,64.313725%,92.54902%);stop-opacity:1;"/>
<stop offset="1" style="stop-color:rgb(14.509804%,27.843137%,65.882353%);stop-opacity:1;"/>
</linearGradient>
<linearGradient id="linear5" gradientUnits="userSpaceOnUse" x1="24" y1="46.55" x2="24" y2="24.04" gradientTransform="matrix(10.416667,0,0,10.416667,0,0)">
<stop offset="0" style="stop-color:rgb(15.294118%,91.372549%,87.058824%);stop-opacity:1;"/>
<stop offset="0.52" style="stop-color:rgb(1.176471%,64.313725%,92.54902%);stop-opacity:1;"/>
<stop offset="1" style="stop-color:rgb(14.509804%,27.843137%,65.882353%);stop-opacity:1;"/>
</linearGradient>
<linearGradient id="linear6" gradientUnits="userSpaceOnUse" x1="24" y1="36.75" x2="24" y2="26.33" gradientTransform="matrix(10.416667,0,0,10.416667,0,0)">
<stop offset="0" style="stop-color:rgb(15.294118%,91.372549%,87.058824%);stop-opacity:1;"/>
<stop offset="0.52" style="stop-color:rgb(1.176471%,64.313725%,92.54902%);stop-opacity:1;"/>
<stop offset="1" style="stop-color:rgb(14.509804%,27.843137%,65.882353%);stop-opacity:1;"/>
</linearGradient>
<linearGradient id="linear7" gradientUnits="userSpaceOnUse" x1="24" y1="44.33" x2="24" y2="13.99" gradientTransform="matrix(10.416667,0,0,10.416667,0,0)">
<stop offset="0" style="stop-color:rgb(15.294118%,22.745098%,60.784314%);stop-opacity:1;"/>
<stop offset="0.56" style="stop-color:rgb(12.54902%,18.431373%,39.607843%);stop-opacity:1;"/>
<stop offset="1" style="stop-color:rgb(0.784314%,11.764706%,18.431373%);stop-opacity:1;"/>
</linearGradient>
<linearGradient id="linear8" gradientUnits="userSpaceOnUse" x1="9" y1="37.75" x2="9" y2="20.85" gradientTransform="matrix(10.416667,0,0,10.416667,0,0)">
<stop offset="0" style="stop-color:rgb(95.294118%,77.254902%,47.843137%);stop-opacity:1;"/>
<stop offset="0.49" style="stop-color:rgb(95.294118%,57.647059%,41.176471%);stop-opacity:1;"/>
<stop offset="1" style="stop-color:rgb(91.372549%,28.235294%,40.392157%);stop-opacity:1;"/>
</linearGradient>
<linearGradient id="linear9" gradientUnits="userSpaceOnUse" x1="16.5" y1="36.83" x2="16.5" y2="25.29" gradientTransform="matrix(10.416667,0,0,10.416667,0,0)">
<stop offset="0" style="stop-color:rgb(100%,100%,100%);stop-opacity:1;"/>
<stop offset="0.52" style="stop-color:rgb(80%,88.627451%,90.196078%);stop-opacity:1;"/>
<stop offset="1" style="stop-color:rgb(56.078431%,63.137255%,73.333333%);stop-opacity:1;"/>
</linearGradient>
<linearGradient id="linear10" gradientUnits="userSpaceOnUse" x1="24" y1="36.83" x2="24" y2="25.29" gradientTransform="matrix(10.416667,0,0,10.416667,0,0)">
<stop offset="0" style="stop-color:rgb(100%,100%,100%);stop-opacity:1;"/>
<stop offset="0.52" style="stop-color:rgb(80%,88.627451%,90.196078%);stop-opacity:1;"/>
<stop offset="1" style="stop-color:rgb(56.078431%,63.137255%,73.333333%);stop-opacity:1;"/>
</linearGradient>
<linearGradient id="linear11" gradientUnits="userSpaceOnUse" x1="31.5" y1="36.83" x2="31.5" y2="25.29" gradientTransform="matrix(10.416667,0,0,10.416667,0,0)">
<stop offset="0" style="stop-color:rgb(100%,100%,100%);stop-opacity:1;"/>
<stop offset="0.52" style="stop-color:rgb(80%,88.627451%,90.196078%);stop-opacity:1;"/>
<stop offset="1" style="stop-color:rgb(56.078431%,63.137255%,73.333333%);stop-opacity:1;"/>
</linearGradient>
<linearGradient id="linear12" gradientUnits="userSpaceOnUse" x1="39" y1="36.83" x2="39" y2="25.29" gradientTransform="matrix(10.416667,0,0,10.416667,0,0)">
<stop offset="0" style="stop-color:rgb(100%,100%,100%);stop-opacity:1;"/>
<stop offset="0.52" style="stop-color:rgb(80%,88.627451%,90.196078%);stop-opacity:1;"/>
<stop offset="1" style="stop-color:rgb(56.078431%,63.137255%,73.333333%);stop-opacity:1;"/>
</linearGradient>
</defs>
<g id="surface1">
<path style=" stroke:none;fill-rule:nonzero;fill:url(#linear0);" d="M 375 330.3125 L 125 330.3125 L 125 156.25 C 125 87.214844 180.964844 31.25 250 31.25 C 319.035156 31.25 375 87.214844 375 156.25 Z M 175.207031 280.417969 L 324.792969 280.417969 L 324.792969 156.25 C 325.8125 128.882812 311.796875 103.144531 288.25 89.15625 C 264.707031 75.171875 235.398438 75.171875 211.851562 89.15625 C 188.308594 103.144531 174.289062 128.882812 175.3125 156.25 Z M 175.207031 280.417969 "/>
<path style=" stroke:none;fill-rule:nonzero;fill:url(#linear1);" d="M 375 189.480469 C 371.3125 188.203125 367.441406 187.535156 363.542969 187.5 L 324.792969 187.5 L 324.792969 287.1875 L 175.207031 287.1875 L 175.207031 187.5 L 136.875 187.5 C 132.972656 187.535156 129.105469 188.203125 125.417969 189.480469 L 125.417969 336.980469 L 375 336.980469 Z M 375 189.480469 "/>
<path style=" stroke:none;fill-rule:nonzero;fill:url(#linear2);" d="M 134.269531 218.75 L 365.730469 218.75 C 388.109375 218.75 406.25 236.890625 406.25 259.269531 L 406.25 428.230469 C 406.25 450.609375 388.109375 468.75 365.730469 468.75 L 134.269531 468.75 C 111.890625 468.75 93.75 450.609375 93.75 428.230469 L 93.75 259.269531 C 93.75 236.890625 111.890625 218.75 134.269531 218.75 Z M 134.269531 218.75 "/>
<path style=" stroke:none;fill-rule:nonzero;fill:url(#linear3);" d="M 93.75 296.875 L 406.25 296.875 L 406.25 421.875 L 93.75 421.875 Z M 93.75 296.875 "/>
<path style=" stroke:none;fill-rule:nonzero;fill:url(#linear4);" d="M 134.269531 218.75 C 116.832031 218.777344 101.375 229.992188 95.9375 246.5625 L 403.957031 246.5625 C 398.53125 230.027344 383.132812 218.824219 365.730469 218.75 Z M 134.269531 218.75 "/>
<path style=" stroke:none;fill-rule:nonzero;fill:url(#linear5);" d="M 283.75 330.625 C 283.65625 313.558594 270.835938 299.25 253.882812 297.289062 C 236.929688 295.324219 221.179688 306.324219 217.1875 322.917969 C 214.628906 333.164062 217.0625 344.015625 223.75 352.1875 C 226.261719 355.429688 227.585938 359.4375 227.5 363.542969 L 227.5 368.542969 C 227.726562 380.804688 237.734375 390.628906 250 390.625 C 262.425781 390.625 272.5 380.550781 272.5 368.125 L 272.5 363.125 C 272.445312 358.945312 273.804688 354.871094 276.355469 351.5625 C 281.148438 345.636719 283.757812 338.246094 283.75 330.625 Z M 283.75 330.625 "/>
<path style=" stroke:none;fill-rule:nonzero;fill:url(#linear6);" d="M 281.25 342.5 C 275.21875 326.125 257.667969 317.078125 240.832031 321.667969 C 230.394531 324.542969 222.003906 332.3125 218.332031 342.5 C 219.558594 345.882812 221.316406 349.046875 223.542969 351.875 C 226.054688 355.117188 227.378906 359.125 227.292969 363.230469 L 227.292969 368.230469 C 227.292969 380.65625 237.367188 390.730469 249.792969 390.730469 C 262.21875 390.730469 272.292969 380.65625 272.292969 368.230469 L 272.292969 363.230469 C 272.238281 359.050781 273.59375 354.976562 276.144531 351.667969 C 278.316406 348.894531 280.035156 345.804688 281.25 342.5 Z M 281.25 342.5 "/>
<path style=" stroke:none;fill-rule:nonzero;fill:url(#linear7);" d="M 58.332031 281.25 L 441.667969 281.25 C 456.625 281.25 468.75 293.375 468.75 308.332031 L 468.75 379.167969 C 468.75 394.125 456.625 406.25 441.667969 406.25 L 58.332031 406.25 C 43.375 406.25 31.25 394.125 31.25 379.167969 L 31.25 308.332031 C 31.25 293.375 43.375 281.25 58.332031 281.25 Z M 58.332031 281.25 "/>
<path style=" stroke:none;fill-rule:nonzero;fill:url(#linear8);" d="M 111.144531 344.792969 L 109.375 343.75 L 111.144531 342.707031 C 114.886719 340.550781 116.167969 335.769531 114.011719 332.03125 C 111.851562 328.292969 107.074219 327.007812 103.332031 329.167969 L 101.5625 330.207031 L 101.5625 328.125 C 101.5625 323.808594 98.066406 320.3125 93.75 320.3125 C 89.433594 320.3125 85.9375 323.808594 85.9375 328.125 L 85.9375 330.207031 L 84.167969 329.167969 C 80.425781 327.007812 75.648438 328.292969 73.488281 332.03125 C 71.332031 335.769531 72.613281 340.550781 76.355469 342.707031 L 78.125 343.75 L 76.355469 344.792969 C 72.613281 346.949219 71.332031 351.730469 73.488281 355.46875 C 75.648438 359.207031 80.425781 360.492188 84.167969 358.332031 L 85.9375 357.292969 L 85.9375 359.375 C 85.9375 363.691406 89.433594 367.1875 93.75 367.1875 C 98.066406 367.1875 101.5625 363.691406 101.5625 359.375 L 101.5625 357.292969 L 103.332031 358.332031 C 107.074219 360.492188 111.851562 359.207031 114.011719 355.46875 C 116.167969 351.730469 114.886719 346.949219 111.144531 344.792969 Z M 111.144531 344.792969 "/>
<path style=" stroke:none;fill-rule:nonzero;fill:url(#linear9);" d="M 189.269531 344.792969 L 187.5 343.75 L 189.269531 342.707031 C 193.011719 340.550781 194.292969 335.769531 192.136719 332.03125 C 189.976562 328.292969 185.199219 327.007812 181.457031 329.167969 L 179.6875 330.207031 L 179.6875 328.125 C 179.6875 323.808594 176.191406 320.3125 171.875 320.3125 C 167.558594 320.3125 164.0625 323.808594 164.0625 328.125 L 164.0625 330.207031 L 162.292969 329.167969 C 158.550781 327.007812 153.773438 328.292969 151.613281 332.03125 C 149.457031 335.769531 150.738281 340.550781 154.480469 342.707031 L 156.25 343.75 L 154.480469 344.792969 C 150.738281 346.949219 149.457031 351.730469 151.613281 355.46875 C 153.773438 359.207031 158.550781 360.492188 162.292969 358.332031 L 164.0625 357.292969 L 164.0625 359.375 C 164.0625 363.691406 167.558594 367.1875 171.875 367.1875 C 176.191406 367.1875 179.6875 363.691406 179.6875 359.375 L 179.6875 357.292969 L 181.457031 358.332031 C 185.199219 360.492188 189.976562 359.207031 192.136719 355.46875 C 194.292969 351.730469 193.011719 346.949219 189.269531 344.792969 Z M 189.269531 344.792969 "/>
<path style=" stroke:none;fill-rule:nonzero;fill:url(#linear10);" d="M 267.394531 344.792969 L 265.625 343.75 L 267.394531 342.707031 C 271.136719 340.550781 272.417969 335.769531 270.261719 332.03125 C 268.101562 328.292969 263.324219 327.007812 259.582031 329.167969 L 257.8125 330.207031 L 257.8125 328.125 C 257.8125 323.808594 254.316406 320.3125 250 320.3125 C 245.683594 320.3125 242.1875 323.808594 242.1875 328.125 L 242.1875 330.207031 L 240.417969 329.167969 C 236.675781 327.007812 231.898438 328.292969 229.738281 332.03125 C 227.582031 335.769531 228.863281 340.550781 232.605469 342.707031 L 234.375 343.75 L 232.605469 344.792969 C 228.863281 346.949219 227.582031 351.730469 229.738281 355.46875 C 231.898438 359.207031 236.675781 360.492188 240.417969 358.332031 L 242.1875 357.292969 L 242.1875 359.375 C 242.1875 363.691406 245.683594 367.1875 250 367.1875 C 254.316406 367.1875 257.8125 363.691406 257.8125 359.375 L 257.8125 357.292969 L 259.582031 358.332031 C 263.324219 360.492188 268.101562 359.207031 270.261719 355.46875 C 272.417969 351.730469 271.136719 346.949219 267.394531 344.792969 Z M 267.394531 344.792969 "/>
<path style=" stroke:none;fill-rule:nonzero;fill:url(#linear11);" d="M 345.519531 344.792969 L 343.75 343.75 L 345.519531 342.707031 C 349.261719 340.550781 350.542969 335.769531 348.386719 332.03125 C 346.226562 328.292969 341.449219 327.007812 337.707031 329.167969 L 335.9375 330.207031 L 335.9375 328.125 C 335.9375 323.808594 332.441406 320.3125 328.125 320.3125 C 323.808594 320.3125 320.3125 323.808594 320.3125 328.125 L 320.3125 330.207031 L 318.542969 329.167969 C 314.800781 327.007812 310.023438 328.292969 307.863281 332.03125 C 305.707031 335.769531 306.988281 340.550781 310.730469 342.707031 L 312.5 343.75 L 310.730469 344.792969 C 306.988281 346.949219 305.707031 351.730469 307.863281 355.46875 C 310.023438 359.207031 314.800781 360.492188 318.542969 358.332031 L 320.3125 357.292969 L 320.3125 359.375 C 320.3125 363.691406 323.808594 367.1875 328.125 367.1875 C 332.441406 367.1875 335.9375 363.691406 335.9375 359.375 L 335.9375 357.292969 L 337.707031 358.332031 C 341.449219 360.492188 346.226562 359.207031 348.386719 355.46875 C 350.542969 351.730469 349.261719 346.949219 345.519531 344.792969 Z M 345.519531 344.792969 "/>
<path style=" stroke:none;fill-rule:nonzero;fill:url(#linear12);" d="M 423.644531 344.792969 L 421.875 343.75 L 423.644531 342.707031 C 427.386719 340.550781 428.667969 335.769531 426.511719 332.03125 C 424.351562 328.292969 419.574219 327.007812 415.832031 329.167969 L 414.0625 330.207031 L 414.0625 328.125 C 414.0625 323.808594 410.566406 320.3125 406.25 320.3125 C 401.933594 320.3125 398.4375 323.808594 398.4375 328.125 L 398.4375 330.207031 L 396.667969 329.167969 C 392.925781 327.007812 388.148438 328.292969 385.988281 332.03125 C 383.832031 335.769531 385.113281 340.550781 388.855469 342.707031 L 390.625 343.75 L 388.855469 344.792969 C 385.113281 346.949219 383.832031 351.730469 385.988281 355.46875 C 388.148438 359.207031 392.925781 360.492188 396.667969 358.332031 L 398.4375 357.292969 L 398.4375 359.375 C 398.4375 363.691406 401.933594 367.1875 406.25 367.1875 C 410.566406 367.1875 414.0625 363.691406 414.0625 359.375 L 414.0625 357.292969 L 415.832031 358.332031 C 419.574219 360.492188 424.351562 359.207031 426.511719 355.46875 C 428.667969 351.730469 427.386719 346.949219 423.644531 344.792969 Z M 423.644531 344.792969 "/>
</g>
</svg>
