<svg version="1.1" xmlns="http://www.w3.org/2000/svg" xmlns:xlink="http://www.w3.org/1999/xlink" width="796px" height="796px" viewBox="0,0,256,256"><g transform="translate(25.6,25.6) scale(0.8,0.8)"><g fill="none" fill-rule="nonzero" stroke="none" stroke-width="1" stroke-linecap="butt" stroke-linejoin="miter" stroke-miterlimit="10" stroke-dasharray="" stroke-dashoffset="0" font-family="none" font-weight="none" font-size="none" text-anchor="none" style="mix-blend-mode: normal"><g transform="translate(-32.80402,-32.80402) scale(0.32161,0.32161)"><g><g><circle cx="500" cy="500" r="398" fill="#292929"></circle><circle cx="500" cy="500" r="344.3" fill="#575757"></circle><path d="M709,371.3c-47.8,-47.8 -125.6,-47.8 -173.4,0l-25.8,25.8c-47.7,-32.3 -113.2,-27.4 -155.4,14.8l-77.5,77.5c-47.8,47.8 -47.8,125.6 0,173.4c47.8,47.8 125.6,47.8 173.4,0l6.5,-6.5l19.4,-19.4c47.7,32.3 113.2,27.4 155.4,-14.8l77.5,-77.5c47.7,-47.7 47.7,-125.5 -0.1,-173.3zM582.2,601c-1.3,0.7 -2.6,1.4 -4,2.1c-1.2,0.6 -2.4,1.1 -3.6,1.7c-5.3,2.3 -10.9,3.9 -16.5,4.9c-2.6,0.5 -5.2,0.8 -7.8,1c-1.9,0.1 -3.7,0.2 -5.6,0.2c-0.1,0 -0.1,0 -0.2,0c-1.7,0 -3.4,-0.1 -5.1,-0.2c-10,-0.7 -19.9,-3.4 -29.1,-8.1l17.3,-17.3c1.1,-1.1 2.1,-2.2 3.1,-3.3c0.2,-0.2 0.4,-0.5 0.7,-0.7c1,-1.1 2,-2.2 2.9,-3.3c0.2,-0.2 0.3,-0.4 0.5,-0.6c0.9,-1 1.7,-2.1 2.5,-3.1c0.1,-0.2 0.3,-0.4 0.4,-0.5c0.9,-1.1 1.7,-2.3 2.6,-3.5c0.2,-0.3 0.4,-0.5 0.5,-0.8c0.8,-1.2 1.7,-2.4 2.5,-3.6c0,0 0,0 0,-0.1c0.8,-1.2 1.6,-2.4 2.3,-3.7c0.2,-0.2 0.3,-0.5 0.5,-0.7c0.7,-1.2 1.4,-2.5 2.1,-3.7c0.1,-0.2 0.2,-0.4 0.3,-0.6c0.6,-1.2 1.3,-2.4 1.9,-3.5c0.1,-0.2 0.2,-0.3 0.2,-0.5c0.6,-1.3 1.2,-2.6 1.8,-3.9c0.1,-0.2 0.2,-0.5 0.3,-0.7c1.2,-2.7 2.3,-5.4 3.3,-8.1c0.1,-0.2 0.2,-0.4 0.2,-0.7c0.5,-1.4 0.9,-2.7 1.4,-4.1c0.1,-0.2 0.1,-0.3 0.2,-0.5c0.4,-1.3 0.8,-2.7 1.2,-4c0,-0.1 0.1,-0.2 0.1,-0.3c0.4,-1.4 0.7,-2.8 1.1,-4.2c0,-0.2 0.1,-0.4 0.1,-0.6c0.7,-2.9 1.2,-5.8 1.7,-8.7c0,-0.2 0.1,-0.3 0.1,-0.5c0.2,-1.5 0.4,-2.9 0.6,-4.4c0,-0.1 0,-0.2 0,-0.3c0.3,-3 0.6,-6 0.7,-9c0,-0.1 0,-0.3 0,-0.4c0.1,-3 0.1,-6.1 0,-9.1c0,-0.1 0,-0.2 0,-0.2c-0.1,-1.5 -0.2,-3.1 -0.3,-4.6v-0.1c-0.2,-3.1 -0.6,-6.1 -1.1,-9.2c0,-0.1 0,-0.1 0,-0.2c-0.5,-3.1 -1.1,-6.1 -1.8,-9.2c-1.1,-4.6 -2.4,-9.1 -4.1,-13.6v-0.1c-1.6,-4.5 -3.5,-8.9 -5.7,-13.2c-2.2,-4.4 -4.7,-8.7 -7.5,-12.8l26,-26c1.8,-1.8 3.7,-3.6 5.7,-5.2c12.8,-10.5 28.3,-16.1 44,-16.8c1.2,-0.1 2.4,-0.1 3.6,-0.1c2.4,0 4.8,0.1 7.2,0.3c1.2,0.1 2.4,0.3 3.6,0.4c2.4,0.3 4.8,0.8 7.1,1.4c3.5,0.9 7,2 10.4,3.4c2.5,1 5,2.2 7.4,3.5c6.3,3.4 12.2,7.7 17.5,13c5.5,5.5 10,11.7 13.4,18.2c1.1,2.2 2.2,4.4 3.1,6.7c1.4,3.4 2.5,6.9 3.4,10.4c0.3,1.2 0.5,2.4 0.8,3.6c1.3,6.6 1.6,13.3 1.2,20c-0.2,2.6 -0.5,5.2 -1,7.8c-1,5.8 -2.8,11.6 -5.2,17.1c-0.4,0.8 -0.7,1.6 -1.1,2.5c-0.7,1.5 -1.5,3 -2.4,4.5c-0.3,0.5 -0.6,1 -0.9,1.5c-3.1,5.1 -6.8,10 -11.3,14.4l-77.5,77.5c-4.4,4.4 -9.2,8.1 -14.3,11.2c-0.3,0.7 -0.8,1 -1.4,1.3zM305,623.8c-1.5,-1.8 -2.9,-3.7 -4.2,-5.6c-2.9,-4.3 -5.3,-8.9 -7.2,-13.6c-0.7,-1.7 -1.3,-3.4 -1.8,-5.1c-1.3,-4.1 -2.3,-8.2 -2.9,-12.4c-0.5,-3.6 -0.8,-7.2 -0.8,-10.8c0,-1.2 0,-2.4 0.1,-3.6c0.2,-3.3 0.5,-6.5 1.1,-9.8c0.1,-0.8 0.3,-1.5 0.5,-2.3c0.5,-2.6 1.2,-5.1 2,-7.6c0.3,-1 0.7,-2 1,-3c3.7,-9.9 9.4,-19.2 17.4,-27.1l77.5,-77.5c16.5,-16.5 38.9,-23.8 60.6,-21.7c1.2,0.1 2.4,0.3 3.6,0.4c2.4,0.3 4.8,0.8 7.1,1.4c3.5,0.9 7,2 10.4,3.4c2,0.8 4,1.7 6,2.8l-17.3,17.3c-42,42 -47.1,107.1 -15.3,154.7l-26,26c-18.4,18.4 -44,25.3 -67.8,20.7c-2.4,-0.5 -4.7,-1 -7.1,-1.7c-2.3,-0.7 -4.6,-1.5 -6.9,-2.4c-3.4,-1.4 -6.7,-3 -9.9,-4.9c-3.2,-1.9 -6.3,-4.1 -9.3,-6.5c-2,-1.6 -3.9,-3.3 -5.7,-5.2c-1.8,-2 -3.5,-3.9 -5.1,-5.9zM514.1,479.9c0.2,0.7 0.3,1.4 0.5,2c0.1,0.3 0.1,0.5 0.2,0.8c0.3,1.4 0.6,2.7 0.8,4.1v0.2c0.1,0.7 0.2,1.4 0.3,2c0,0.3 0.1,0.6 0.1,0.8c0.1,1.2 0.3,2.5 0.3,3.8v0.6c0,0.7 0.1,1.3 0.1,2v1v3.2v1.1c0,0.6 -0.1,1.2 -0.1,1.8c0,0.4 -0.1,0.9 -0.1,1.3c-0.1,0.9 -0.1,1.7 -0.2,2.6c-0.1,0.5 -0.1,1.1 -0.2,1.6c-0.1,0.5 -0.2,1.1 -0.2,1.6c-0.1,0.5 -0.2,1.1 -0.3,1.6c-0.1,0.6 -0.2,1.3 -0.4,1.9c-0.1,0.7 -0.3,1.4 -0.5,2.1c-0.1,0.5 -0.2,0.9 -0.3,1.4c-0.2,0.6 -0.3,1.3 -0.5,1.9c-0.1,0.4 -0.3,0.9 -0.4,1.3c-0.2,0.8 -0.5,1.6 -0.8,2.5c-0.1,0.4 -0.3,0.8 -0.4,1.2c-0.3,0.7 -0.5,1.5 -0.8,2.2c-0.1,0.3 -0.2,0.5 -0.3,0.8c-0.3,0.6 -0.5,1.2 -0.8,1.8c-0.1,0.3 -0.2,0.6 -0.4,0.9c-0.1,0.3 -0.3,0.6 -0.4,1c-0.1,0.2 -0.2,0.4 -0.3,0.6c-0.3,0.6 -0.6,1.2 -0.9,1.8c-0.1,0.2 -0.2,0.3 -0.2,0.5c-0.4,0.8 -0.8,1.5 -1.2,2.2c-0.1,0.2 -0.2,0.4 -0.3,0.5c-0.2,0.3 -0.3,0.5 -0.5,0.8c-0.1,0.1 -0.1,0.2 -0.2,0.3c-0.5,0.8 -0.9,1.5 -1.4,2.2c-0.1,0.1 -0.1,0.2 -0.2,0.2c-0.6,0.9 -1.2,1.8 -1.9,2.7c-0.2,0.2 -0.3,0.5 -0.5,0.7c-0.6,0.9 -1.3,1.7 -2,2.6c0,0 0,0.1 -0.1,0.1c-0.7,0.9 -1.5,1.7 -2.2,2.6c-0.2,0.2 -0.4,0.4 -0.6,0.6c-0.8,0.8 -1.6,1.7 -2.4,2.5l-17.1,17.1c-14,-28.2 -9.3,-63.5 14.2,-86.9l17.1,-17.1c0.8,1.7 1.6,3.4 2.4,5.2c1.2,3.2 2.2,6.4 3.1,9.7z" fill="#292929"></path><path d="M291,648.7c-47.8,-47.8 -47.8,-125.6 0,-173.4l77.5,-77.5c47.8,-47.8 125.6,-47.8 173.4,0c47.8,47.8 47.8,125.6 0,173.4l-77.5,77.5c-47.8,47.8 -125.6,47.8 -173.4,0zM508.5,431.2c-29.4,-29.4 -77.3,-29.4 -106.7,0l-77.5,77.5c-29.4,29.4 -29.4,77.3 0,106.7c29.4,29.4 77.3,29.4 106.7,0l77.5,-77.5c29.4,-29.5 29.4,-77.3 0,-106.7z" fill="#de3434"></path><path d="M525.1,414.5c-37.8,-37.8 -96.7,-40.2 -131.4,-5.5l-91.5,91.5c-34.7,34.7 -32.2,93.7 5.5,131.4c37.8,37.8 96.7,40.2 131.4,5.5l91.5,-91.5c34.8,-34.6 32.3,-93.6 -5.5,-131.4zM431,615.4c-29.4,29.4 -77.3,29.4 -106.7,0c-29.4,-29.4 -29.4,-77.3 0,-106.7l77.5,-77.5c29.4,-29.4 77.3,-29.4 106.7,0c29.4,29.4 29.4,77.3 0,106.7z" fill="#bf2121"></path><path d="M472.3,608c-47.8,-47.8 -47.8,-125.6 0,-173.4l77.5,-77.5c47.8,-47.8 125.6,-47.8 173.4,0c47.8,47.8 47.8,125.6 0,173.4l-77.6,77.5c-47.8,47.8 -125.5,47.8 -173.3,0zM689.8,390.5c-29.4,-29.4 -77.3,-29.4 -106.7,0l-77.5,77.5c-29.4,29.4 -29.4,77.3 0,106.7c29.4,29.4 77.3,29.4 106.7,0l77.5,-77.5c29.4,-29.4 29.4,-77.3 0,-106.7z" fill="#ad1414"></path><path d="M705.7,374.7c-38.1,-38.1 -97.2,-41.1 -131.7,-6.6l-90.9,90.9c-34.5,34.5 -31.5,93.5 6.6,131.7c38.1,38.1 97.2,41.1 131.7,6.6l90.9,-90.9c34.5,-34.5 31.5,-93.6 -6.6,-131.7zM612.3,574.7c-29.4,29.4 -77.3,29.4 -106.7,0c-29.4,-29.4 -29.4,-77.3 0,-106.7l77.5,-77.5c29.4,-29.4 77.3,-29.4 106.7,0c29.4,29.4 29.4,77.3 0,106.7z" fill="#8c1111"></path><path d="M564.6,429.3l-36.4,36.4c6.4,25 -0.2,52.6 -19.7,72.1l-71,71l33.3,33.3l71,-71c38.4,-38.2 46,-95.8 22.8,-141.8z" fill="#de3434"></path><path d="M547.1,446.8l-18.9,18.9c6.4,25 -0.2,52.6 -19.7,72.1l-71,71l15.1,15.1l78,-78c25.9,-25.8 31.1,-65.1 16.5,-99.1z" fill="#bf2121"></path></g></g></g></g></g></svg>