<?xml version="1.0" encoding="UTF-8" standalone="no" ?>
<!DOCTYPE svg PUBLIC "-//W3C//DTD SVG 1.1//EN" "http://www.w3.org/Graphics/SVG/1.1/DTD/svg11.dtd">
<svg xmlns="http://www.w3.org/2000/svg" xmlns:xlink="http://www.w3.org/1999/xlink" version="1.1" width="1080" height="1080" viewBox="0 0 1080 1080" xml:space="preserve">
<desc>Created with Fabric.js 5.2.4</desc>
<defs>
</defs>
<g transform="matrix(1 0 0 1 540 540)" id="30a316cf-0ab6-4bd1-8143-f9b9e6816540"  >
<rect style="stroke: none; stroke-width: 1; stroke-dasharray: none; stroke-linecap: butt; stroke-dashoffset: 0; stroke-linejoin: miter; stroke-miterlimit: 4; fill: rgb(255,255,255); fill-rule: nonzero; opacity: 1; visibility: hidden;" vector-effect="non-scaling-stroke"  x="-540" y="-540" rx="0" ry="0" width="1080" height="1080" />
</g>
<g transform="matrix(1 0 0 1 540 540)" id="7c14c1c8-5311-4f96-8434-57274eb919c1"  >
</g>
<g transform="matrix(0.88 0 0 0.88 540 540)"  >
<g style="" vector-effect="non-scaling-stroke"   >
		<g transform="matrix(1 0 0 1 -490 -490)"  >
<rect style="stroke: none; stroke-width: 1; stroke-dasharray: none; stroke-linecap: butt; stroke-dashoffset: 0; stroke-linejoin: miter; stroke-miterlimit: 4; fill: rgb(255,255,255); fill-opacity: 0; fill-rule: nonzero; opacity: 1;" vector-effect="non-scaling-stroke"  x="-50" y="-50" rx="0" ry="0" width="100" height="100" />
</g>
		<g transform="matrix(1 0 0 1 0 0)"  >
<rect style="stroke: none; stroke-width: 1; stroke-dasharray: none; stroke-linecap: butt; stroke-dashoffset: 0; stroke-linejoin: miter; stroke-miterlimit: 4; fill: rgb(255,255,255); fill-rule: nonzero; opacity: 1; visibility: hidden;" vector-effect="non-scaling-stroke"  x="-540" y="-540" rx="0" ry="0" width="1080" height="1080" />
</g>
		<g transform="matrix(14.68 0 0 14.68 -0.14 -0.14)"  >
<circle style="stroke: rgb(255,255,255); stroke-width: 18; stroke-dasharray: none; stroke-linecap: butt; stroke-dashoffset: 0; stroke-linejoin: miter; stroke-miterlimit: 4; fill: rgb(79,84,94); fill-rule: nonzero; opacity: 1;" vector-effect="non-scaling-stroke"  cx="0" cy="0" r="35" />
</g>
		<g transform="matrix(1.18 0 0 1.18 181.37 229.73)"  >
<path style="stroke: none; stroke-width: 1; stroke-dasharray: none; stroke-linecap: butt; stroke-dashoffset: 0; stroke-linejoin: miter; stroke-miterlimit: 4; fill: rgb(127,211,249); fill-rule: nonzero; opacity: 1;" vector-effect="non-scaling-stroke"  transform=" translate(-452.54, -493.22)" d="M 350.847656 391.523438 L 350.847656 594.914062 L 554.238281 594.914062 L 554.238281 391.523438 Z M 350.847656 391.523438" stroke-linecap="round" />
</g>
		<g transform="matrix(1.18 0 0 1.18 120.87 -11.62)"  >
<path style="stroke: none; stroke-width: 1; stroke-dasharray: none; stroke-linecap: butt; stroke-dashoffset: 0; stroke-linejoin: miter; stroke-miterlimit: 4; fill: rgb(239,234,216); fill-rule: nonzero; opacity: 1;" vector-effect="non-scaling-stroke"  transform=" translate(-401.7, -289.83)" d="M 452.542969 188.136719 L 452.542969 289.828125 L 249.152344 289.828125 L 249.152344 391.523438 L 554.238281 391.523438 L 554.238281 188.136719 Z M 452.542969 188.136719" stroke-linecap="round" />
</g>
		<g transform="matrix(1.18 0 0 1.18 0.2 -228.84)"  >
<path style="stroke: none; stroke-width: 1; stroke-dasharray: none; stroke-linecap: butt; stroke-dashoffset: 0; stroke-linejoin: miter; stroke-miterlimit: 4; fill: rgb(124,224,229); fill-rule: nonzero; opacity: 1;" vector-effect="non-scaling-stroke"  transform=" translate(-300, -106.78)" d="M 147.457031 5.085938 L 147.457031 208.476562 L 249.152344 208.476562 L 249.152344 106.78125 L 452.542969 106.78125 L 452.542969 5.085938 Z M 147.457031 5.085938" stroke-linecap="round" />
</g>
		<g transform="matrix(1.18 0 0 1.18 -120.47 169.25)"  >
<path style="stroke: none; stroke-width: 1; stroke-dasharray: none; stroke-linecap: butt; stroke-dashoffset: 0; stroke-linejoin: miter; stroke-miterlimit: 4; fill: rgb(255,114,114); fill-rule: nonzero; opacity: 1;" vector-effect="non-scaling-stroke"  transform=" translate(-198.3, -442.37)" d="M 45.761719 289.828125 L 45.761719 493.21875 L 249.152344 493.21875 L 249.152344 594.914062 L 350.847656 594.914062 L 350.847656 391.523438 L 147.457031 391.523438 L 147.457031 289.828125 Z M 45.761719 289.828125" stroke-linecap="round" />
</g>
		<g transform="matrix(1.18 0 0 1.18 -180.67 290.22)"  >
<path style="stroke: none; stroke-width: 1; stroke-dasharray: none; stroke-linecap: butt; stroke-dashoffset: 0; stroke-linejoin: miter; stroke-miterlimit: 4; fill: rgb(234,242,244); fill-rule: nonzero; opacity: 1;" vector-effect="non-scaling-stroke"  transform=" translate(-147.46, -544.07)" d="M 45.761719 594.914062 L 249.152344 594.914062 L 249.152344 493.21875 L 45.761719 493.21875 Z M 45.761719 594.914062" stroke-linecap="round" />
</g>
		<g transform="matrix(1.18 0 0 1.18 -0.12 -0.14)"  >
<path style="stroke: none; stroke-width: 1; stroke-dasharray: none; stroke-linecap: butt; stroke-dashoffset: 0; stroke-linejoin: miter; stroke-miterlimit: 4; fill: rgb(79,84,94); fill-rule: nonzero; opacity: 1;" vector-effect="non-scaling-stroke"  transform=" translate(-300, -300)" d="M 554.238281 600 L 45.761719 600 C 42.707031 600 40.675781 597.964844 40.675781 594.914062 L 40.675781 289.828125 C 40.675781 286.78125 42.707031 284.746094 45.761719 284.746094 L 147.457031 284.746094 C 150.511719 284.746094 152.542969 286.78125 152.542969 289.828125 L 152.542969 386.441406 L 244.066406 386.441406 L 244.066406 289.828125 C 244.066406 286.78125 246.097656 284.746094 249.152344 284.746094 L 447.457031 284.746094 L 447.457031 188.132812 C 447.457031 185.085938 449.488281 183.046875 452.542969 183.046875 L 554.238281 183.046875 C 557.292969 183.046875 559.324219 185.085938 559.324219 188.132812 L 559.324219 594.914062 C 559.316406 597.964844 557.292969 600 554.238281 600 Z M 50.847656 589.828125 L 549.152344 589.828125 L 549.152344 498.304688 L 457.628906 498.304688 L 457.628906 554.238281 C 457.628906 557.285156 455.589844 559.316406 452.542969 559.316406 C 449.488281 559.316406 447.457031 557.285156 447.457031 554.238281 L 447.457031 498.304688 L 355.933594 498.304688 L 355.933594 554.238281 C 355.933594 557.285156 353.894531 559.316406 350.847656 559.316406 C 347.792969 559.316406 345.761719 557.285156 345.761719 554.238281 L 345.761719 498.304688 L 254.238281 498.304688 L 254.238281 554.238281 C 254.238281 557.285156 252.199219 559.316406 249.152344 559.316406 C 246.097656 559.316406 244.066406 557.285156 244.066406 554.238281 L 244.066406 498.304688 L 152.542969 498.304688 L 152.542969 554.238281 C 152.542969 557.285156 150.511719 559.316406 147.457031 559.316406 C 144.402344 559.316406 142.371094 557.285156 142.371094 554.238281 L 142.371094 498.304688 L 86.4375 498.304688 C 83.390625 498.304688 81.355469 496.269531 81.355469 493.21875 C 81.355469 490.167969 83.390625 488.132812 86.4375 488.132812 L 147.457031 488.132812 C 147.457031 488.132812 147.457031 488.132812 148.476562 488.132812 L 249.152344 488.132812 C 249.152344 488.132812 249.152344 488.132812 250.167969 488.132812 L 350.847656 488.132812 C 350.847656 488.132812 350.847656 488.132812 351.863281 488.132812 L 452.542969 488.132812 C 452.542969 488.132812 452.542969 488.132812 453.558594 488.132812 L 550.167969 488.132812 L 550.167969 396.609375 L 458.644531 396.609375 L 458.644531 452.542969 C 458.644531 455.589844 456.609375 457.621094 453.558594 457.621094 C 450.503906 457.621094 448.472656 455.589844 448.472656 452.542969 L 448.472656 396.609375 L 356.949219 396.609375 L 356.949219 452.542969 C 356.949219 455.589844 354.914062 457.628906 351.863281 457.628906 C 348.808594 457.628906 346.777344 455.589844 346.777344 452.542969 L 346.777344 396.609375 L 255.253906 396.609375 L 255.253906 452.542969 C 255.253906 455.589844 253.21875 457.628906 250.167969 457.628906 C 247.113281 457.628906 245.082031 455.589844 245.082031 452.542969 L 245.082031 396.609375 L 153.558594 396.609375 L 153.558594 452.542969 C 153.558594 455.589844 151.523438 457.628906 148.472656 457.628906 C 145.417969 457.628906 143.386719 455.589844 143.386719 452.542969 L 143.386719 396.609375 L 87.457031 396.609375 C 84.402344 396.609375 82.371094 394.574219 82.371094 391.523438 C 82.371094 388.476562 84.402344 386.4375 87.457031 386.4375 L 143.390625 386.4375 L 143.390625 294.914062 L 51.867188 294.914062 L 51.867188 589.828125 Z M 453.558594 386.441406 L 549.152344 386.441406 L 549.152344 294.914062 L 503.390625 294.914062 C 500.339844 294.914062 498.304688 292.878906 498.304688 289.828125 C 498.304688 286.78125 500.339844 284.746094 503.390625 284.746094 L 549.152344 284.746094 L 549.152344 193.21875 L 457.628906 193.21875 L 457.628906 350.847656 C 457.628906 353.902344 455.589844 355.933594 452.542969 355.933594 C 449.488281 355.933594 447.457031 353.902344 447.457031 350.847656 L 447.457031 294.914062 L 355.933594 294.914062 L 355.933594 350.847656 C 355.933594 353.902344 353.894531 355.933594 350.847656 355.933594 C 347.792969 355.933594 345.761719 353.902344 345.761719 350.847656 L 345.761719 294.914062 L 254.238281 294.914062 L 254.238281 386.441406 L 451.523438 386.441406 C 452.542969 386.441406 452.542969 386.441406 453.558594 386.441406 Z M 249.152344 213.558594 L 147.457031 213.558594 C 144.410156 213.558594 142.371094 211.523438 142.371094 208.476562 L 142.371094 5.085938 C 142.371094 2.035156 144.410156 0 147.457031 0 L 452.542969 0 C 455.589844 0 457.628906 2.035156 457.628906 5.085938 L 457.628906 106.78125 C 457.628906 109.828125 455.589844 111.867188 452.542969 111.867188 L 254.238281 111.867188 L 254.238281 208.476562 C 254.238281 211.523438 252.207031 213.558594 249.152344 213.558594 Z M 152.542969 203.390625 L 244.066406 203.390625 L 244.066406 111.867188 L 188.136719 111.867188 C 185.085938 111.867188 183.050781 109.828125 183.050781 106.78125 C 183.050781 103.730469 185.085938 101.695312 188.136719 101.695312 L 447.457031 101.695312 L 447.457031 10.171875 L 355.933594 10.171875 L 355.933594 66.097656 C 355.933594 69.152344 353.902344 71.183594 350.847656 71.183594 C 347.792969 71.183594 345.761719 69.152344 345.761719 66.097656 L 345.761719 10.171875 L 254.238281 10.171875 L 254.238281 66.097656 C 254.238281 69.152344 252.207031 71.183594 249.152344 71.183594 C 246.097656 71.183594 244.066406 69.152344 244.066406 66.097656 L 244.066406 10.171875 L 152.542969 10.171875 Z M 152.542969 203.390625" stroke-linecap="round" />
</g>
</g>
</g>
</svg>