<?xml version="1.0" standalone="no"?>
<!DOCTYPE svg PUBLIC "-//W3C//DTD SVG 20010904//EN"
 "http://www.w3.org/TR/2001/REC-SVG-20010904/DTD/svg10.dtd">
<svg version="1.0" xmlns="http://www.w3.org/2000/svg"
 width="700.000000pt" height="700.000000pt" viewBox="0 0 700.000000 700.000000"
 preserveAspectRatio="xMidYMid meet">
<metadata>
Created by potrace 1.14, written by Peter Selinger 2001-2017
</metadata>
<g transform="translate(0.000000,700.000000) scale(0.100000,-0.100000)"
fill="#000000" stroke="none">
<path d="M3395 6604 c-44 -25 -98 -56 -120 -69 -22 -12 -107 -61 -188 -109
-82 -47 -152 -86 -158 -86 -5 0 -9 -4 -9 -10 0 -5 -4 -10 -9 -10 -6 0 -121
-65 -258 -144 -136 -79 -264 -153 -283 -164 -19 -11 -123 -70 -230 -132 -107
-62 -250 -145 -318 -184 -68 -39 -137 -79 -154 -89 -39 -23 -280 -162 -333
-192 -357 -204 -534 -310 -553 -331 l-22 -25 0 -1557 0 -1557 23 -27 c12 -15
116 -81 232 -148 116 -66 217 -124 225 -130 8 -5 42 -24 75 -43 111 -63 232
-133 255 -146 21 -13 453 -263 865 -501 325 -187 480 -277 530 -307 11 -7 26
-15 33 -19 7 -3 117 -67 244 -140 135 -78 243 -134 258 -134 14 0 66 23 115
51 93 53 267 154 440 254 55 32 156 90 225 130 142 81 255 147 450 260 74 43
234 135 355 205 121 70 294 170 385 222 91 53 181 104 200 115 19 11 85 49
146 85 61 36 117 68 125 72 8 4 23 12 34 19 11 7 69 40 128 75 59 35 114 73
122 86 14 20 15 207 15 1568 0 950 -3 1555 -9 1571 -5 13 -22 34 -38 44 -26
19 -363 215 -478 278 -50 28 -103 59 -140 82 -11 7 -42 25 -70 41 -27 15 -169
97 -315 182 -261 151 -421 243 -490 282 -19 11 -39 24 -45 28 -5 4 -35 21 -65
37 -30 17 -111 63 -180 103 -69 40 -144 83 -167 96 -23 13 -93 54 -155 90 -62
37 -131 77 -153 89 -22 12 -123 70 -224 129 -104 59 -196 106 -210 106 -15 0
-62 -21 -106 -46z m157 -870 c25 -13 381 -218 568 -326 19 -12 54 -32 78 -45
24 -13 210 -121 414 -239 203 -118 374 -214 379 -214 5 0 9 -4 9 -10 0 -5 4
-10 9 -10 16 0 147 -79 167 -101 27 -29 26 -101 -1 -127 -36 -33 -411 -232
-438 -232 -16 0 -94 39 -184 91 -87 51 -174 101 -193 111 -44 25 -308 179
-335 195 -11 7 -27 15 -35 19 -15 8 -153 87 -180 104 -45 27 -258 148 -275
155 -11 4 -31 7 -45 5 -13 -1 -146 -72 -295 -158 -148 -85 -423 -244 -610
-352 -187 -108 -366 -211 -397 -229 -108 -61 -98 30 -98 -871 0 -779 0 -788
20 -813 12 -15 74 -56 138 -93 64 -37 131 -74 147 -84 252 -146 356 -206 385
-223 19 -11 109 -62 200 -115 91 -53 178 -103 193 -111 16 -9 36 -20 46 -26
197 -117 252 -145 281 -145 28 0 282 137 500 270 25 15 185 107 355 205 171
98 328 189 349 203 45 28 103 33 138 10 13 -8 55 -32 93 -53 39 -21 97 -54
130 -74 33 -20 77 -45 99 -56 64 -33 89 -91 61 -144 -14 -29 -28 -37 -390
-246 -125 -72 -133 -77 -285 -165 -69 -40 -140 -81 -159 -92 -134 -77 -535
-309 -676 -391 -94 -55 -186 -101 -205 -104 -30 -4 -51 5 -138 56 -57 34 -106
61 -108 61 -2 0 -21 11 -42 23 -20 13 -158 94 -307 179 -148 86 -353 204 -455
263 -102 59 -201 116 -220 127 -215 117 -667 389 -682 409 -18 24 -19 61 -19
1133 l-1 1108 27 28 c14 15 45 37 68 49 23 12 56 30 72 40 17 10 46 27 65 38
98 57 168 97 200 115 19 11 64 37 100 58 36 21 81 47 100 58 19 10 118 68 220
127 102 59 203 117 225 130 22 12 128 73 235 135 521 301 627 360 648 360 13
0 37 -7 54 -16z m1857 -1339 c9 -3 25 -18 34 -35 17 -27 18 -80 18 -732 0
-387 0 -754 -1 -816 0 -113 0 -114 -30 -144 -45 -44 -88 -36 -218 41 -57 33
-105 61 -107 61 -7 0 -150 85 -161 95 -33 32 -34 52 -34 662 0 465 3 614 13
633 12 23 49 47 200 128 235 127 230 125 286 107z"/>
</g>
</svg>
